RobotoSerifTextWide-Bold.ufo
<glyph name="exclam" format="1">
  <advance width="383"/>
  <unicode hex="0021"/>
  <outline>
    <contour>
      <point x="309" y="717" type="line"/>
      <point x="309" y="549"/>
      <point x="265" y="449"/>
      <point x="265" y="243" type="curve"/>
      <point x="118" y="243" type="line"/>
      <point x="118" y="449"/>
      <point x="74" y="548"/>
      <point x="74" y="717" type="curve"/>
    </contour>
    <component base="period" xOffset="7"/>
  </outline>
</glyph>
<glyph name="numbersign" format="1">
  <advance width="744"/>
  <unicode hex="0023"/>
  <outline>
    <contour>
      <point x="81" y="0" type="line"/>
      <point x="188" y="0" type="line"/>
      <point x="407" y="750" type="line"/>
      <point x="299" y="750" type="line"/>
    </contour>
    <contour>
      <point x="19" y="207" type="line"/>
      <point x="660" y="207" type="line"/>
      <point x="660" y="325" type="line"/>
      <point x="19" y="325" type="line"/>
    </contour>
    <contour>
      <point x="81" y="445" type="line"/>
      <point x="722" y="445" type="line"/>
      <point x="722" y="563" type="line"/>
      <point x="81" y="563" type="line"/>
    </contour>
    <contour>
      <point x="318" y="0" type="line"/>
      <point x="426" y="0" type="line"/>
      <point x="643" y="750" type="line"/>
      <point x="534" y="750" type="line"/>
    </contour>
  </outline>
</glyph>
<glyph name="dollar" format="1">
  <advance width="664"/>
  <unicode hex="0024"/>
  <outline>
    <contour>
      <point x="279" y="790" type="line"/>
      <point x="279" y="655" type="line"/>
      <point x="292" y="637" type="line"/>
      <point x="292" y="69" type="line"/>
      <point x="279" y="51" type="line"/>
      <point x="279" y="-120" type="line"/>
      <point x="391" y="-120" type="line"/>
      <point x="391" y="50" type="line"/>
      <point x="378" y="72" type="line"/>
      <point x="378" y="641" type="line"/>
      <point x="391" y="658" type="line"/>
      <point x="391" y="790" type="line"/>
    </contour>
    <contour>
      <point x="332" y="91" type="curve" smooth="yes"/>
      <point x="229" y="91"/>
      <point x="159" y="127"/>
      <point x="120" y="166" type="curve"/>
      <point x="108" y="161"/>
      <point x="142" y="104"/>
      <point x="181" y="106" type="curve"/>
      <point x="181" y="219" type="line"/>
      <point x="27" y="219" type="line"/>
      <point x="27" y="87" type="line"/>
      <point x="78" y="52"/>
      <point x="191" y="12"/>
      <point x="337" y="12" type="curve" smooth="yes"/>
      <point x="523" y="12"/>
      <point x="638" y="84"/>
      <point x="638" y="229" type="curve" smooth="yes"/>
      <point x="638" y="357"/>
      <point x="526" y="410"/>
      <point x="355" y="447" type="curve" smooth="yes"/>
      <point x="275" y="467"/>
      <point x="195" y="478"/>
      <point x="195" y="542" type="curve" smooth="yes"/>
      <point x="195" y="594"/>
      <point x="243" y="620"/>
      <point x="344" y="620" type="curve" smooth="yes"/>
      <point x="418" y="620"/>
      <point x="475" y="601"/>
      <point x="516" y="566" type="curve"/>
      <point x="527" y="581"/>
      <point x="506" y="621"/>
      <point x="468" y="619" type="curve"/>
      <point x="468" y="519" type="line"/>
      <point x="611" y="519" type="line"/>
      <point x="611" y="636" type="line"/>
      <point x="569" y="665"/>
      <point x="467" y="698"/>
      <point x="344" y="698" type="curve" smooth="yes"/>
      <point x="165" y="698"/>
      <point x="47" y="629"/>
      <point x="47" y="501" type="curve" smooth="yes"/>
      <point x="47" y="375"/>
      <point x="157" y="324"/>
      <point x="296" y="291" type="curve" smooth="yes"/>
      <point x="412" y="263"/>
      <point x="481" y="248"/>
      <point x="481" y="178" type="curve" smooth="yes"/>
      <point x="481" y="114"/>
      <point x="426" y="91"/>
    </contour>
  </outline>
</glyph>
<glyph name="percent" format="1">
  <advance width="921"/>
  <unicode hex="0025"/>
  <outline>
    <contour>
      <point x="225" y="720" type="curve" smooth="yes"/>
      <point x="102" y="720"/>
      <point x="15" y="647"/>
      <point x="15" y="548" type="curve" smooth="yes"/>
      <point x="15" y="448"/>
      <point x="102" y="376"/>
      <point x="225" y="376" type="curve" smooth="yes"/>
      <point x="348" y="376"/>
      <point x="436" y="449"/>
      <point x="436" y="548" type="curve" smooth="yes"/>
      <point x="436" y="648"/>
      <point x="348" y="720"/>
    </contour>
    <contour>
      <point x="225" y="440" type="curve" smooth="yes"/>
      <point x="191" y="440"/>
      <point x="170" y="470"/>
      <point x="170" y="548" type="curve" smooth="yes"/>
      <point x="170" y="624"/>
      <point x="191" y="655"/>
      <point x="225" y="655" type="curve" smooth="yes"/>
      <point x="259" y="655"/>
      <point x="281" y="624"/>
      <point x="281" y="548" type="curve" smooth="yes"/>
      <point x="281" y="470"/>
      <point x="259" y="440"/>
    </contour>
    <contour>
      <point x="695" y="334" type="curve" smooth="yes"/>
      <point x="572" y="334"/>
      <point x="485" y="261"/>
      <point x="485" y="162" type="curve" smooth="yes"/>
      <point x="485" y="62"/>
      <point x="572" y="-10"/>
      <point x="695" y="-10" type="curve" smooth="yes"/>
      <point x="819" y="-10"/>
      <point x="907" y="63"/>
      <point x="907" y="162" type="curve" smooth="yes"/>
      <point x="907" y="262"/>
      <point x="819" y="334"/>
    </contour>
    <contour>
      <point x="695" y="54" type="curve" smooth="yes"/>
      <point x="662" y="54"/>
      <point x="641" y="85"/>
      <point x="641" y="162" type="curve" smooth="yes"/>
      <point x="641" y="239"/>
      <point x="662" y="269"/>
      <point x="695" y="269" type="curve" smooth="yes"/>
      <point x="730" y="269"/>
      <point x="751" y="239"/>
      <point x="751" y="162" type="curve" smooth="yes"/>
      <point x="751" y="85"/>
      <point x="730" y="54"/>
    </contour>
    <component base="fraction" xOffset="248"/>
  </outline>
</glyph>
<glyph name="ampersand" format="1">
  <advance width="920"/>
  <unicode hex="0026"/>
  <outline>
    <contour>
      <point x="804" y="295" type="curve" smooth="yes"/>
      <point x="812" y="328"/>
      <point x="833" y="333"/>
      <point x="868" y="333" type="curve" smooth="yes"/>
      <point x="881" y="333" type="line"/>
      <point x="881" y="401" type="line"/>
      <point x="639" y="401" type="line"/>
      <point x="639" y="333" type="line"/>
      <point x="646" y="333" type="line" smooth="yes"/>
      <point x="672" y="333"/>
      <point x="708" y="330"/>
      <point x="708" y="323" type="curve" smooth="yes"/>
      <point x="708" y="218"/>
      <point x="571" y="76"/>
      <point x="431" y="76" type="curve" smooth="yes"/>
      <point x="322" y="76"/>
      <point x="259" y="135"/>
      <point x="259" y="225" type="curve" smooth="yes"/>
      <point x="259" y="305"/>
      <point x="300" y="359"/>
      <point x="375" y="391" type="curve"/>
      <point x="335" y="430" type="line"/>
      <point x="165" y="400"/>
      <point x="44" y="326"/>
      <point x="44" y="209" type="curve" smooth="yes"/>
      <point x="44" y="70"/>
      <point x="180" y="-10"/>
      <point x="375" y="-10" type="curve" smooth="yes"/>
      <point x="652" y="-10"/>
      <point x="780" y="201"/>
    </contour>
    <contour>
      <point x="897" y="0" type="line"/>
      <point x="897" y="73" type="line"/>
      <point x="882" y="73" type="line" smooth="yes"/>
      <point x="848" y="73"/>
      <point x="832" y="80"/>
      <point x="805" y="101" type="curve" smooth="yes"/>
      <point x="544" y="288"/>
      <point x="432" y="426"/>
      <point x="432" y="544" type="curve" smooth="yes"/>
      <point x="432" y="611"/>
      <point x="458" y="637"/>
      <point x="502" y="637" type="curve" smooth="yes"/>
      <point x="540" y="637"/>
      <point x="556" y="612"/>
      <point x="556" y="574" type="curve" smooth="yes"/>
      <point x="556" y="511"/>
      <point x="511" y="473"/>
      <point x="401" y="440" type="curve"/>
      <point x="436" y="377" type="line"/>
      <point x="590" y="414"/>
      <point x="708" y="473"/>
      <point x="708" y="573" type="curve" smooth="yes"/>
      <point x="708" y="658"/>
      <point x="632" y="719"/>
      <point x="487" y="719" type="curve" smooth="yes"/>
      <point x="330" y="719"/>
      <point x="224" y="652"/>
      <point x="224" y="536" type="curve" smooth="yes"/>
      <point x="224" y="387"/>
      <point x="405" y="169"/>
      <point x="664" y="0" type="curve"/>
    </contour>
  </outline>
</glyph>
<glyph name="quotesingle" format="1">
  <advance width="294"/>
  <unicode hex="0027"/>
  <outline>
    <contour>
      <point x="234" y="710" type="line"/>
      <point x="234" y="622"/>
      <point x="205" y="591"/>
      <point x="205" y="454" type="curve"/>
      <point x="89" y="454" type="line"/>
      <point x="89" y="591"/>
      <point x="60" y="621"/>
      <point x="60" y="710" type="curve"/>
    </contour>
  </outline>
</glyph>
<glyph name="parenleft" format="1">
  <advance width="431"/>
  <unicode hex="0028"/>
  <outline>
    <contour>
      <point x="237" y="310" type="curve" smooth="yes"/>
      <point x="237" y="112"/>
      <point x="335" y="-49"/>
      <point x="423" y="-127" type="curve"/>
      <point x="423" y="-130" type="line"/>
      <point x="283" y="-130" type="line"/>
      <point x="152" y="-51"/>
      <point x="37" y="117"/>
      <point x="37" y="310" type="curve" smooth="yes"/>
      <point x="37" y="503"/>
      <point x="152" y="671"/>
      <point x="283" y="750" type="curve"/>
      <point x="423" y="750" type="line"/>
      <point x="423" y="747" type="line"/>
      <point x="335" y="669"/>
      <point x="237" y="508"/>
    </contour>
  </outline>
</glyph>
<glyph name="asterisk" format="1">
  <advance width="559"/>
  <unicode hex="002A"/>
  <outline>
    <contour>
      <point x="109" y="369" type="line"/>
      <point x="167" y="398"/>
      <point x="194" y="436"/>
      <point x="299" y="488" type="curve"/>
      <point x="261" y="540" type="line"/>
      <point x="154" y="488"/>
      <point x="101" y="491"/>
      <point x="45" y="461" type="curve"/>
    </contour>
    <contour>
      <point x="261" y="488" type="curve"/>
      <point x="299" y="540" type="line"/>
      <point x="194" y="592"/>
      <point x="167" y="631"/>
      <point x="109" y="659" type="curve"/>
      <point x="45" y="567" type="line"/>
      <point x="102" y="538"/>
      <point x="154" y="540"/>
    </contour>
    <contour>
      <point x="214" y="318" type="curve"/>
      <point x="344" y="318" type="line"/>
      <point x="344" y="374"/>
      <point x="318" y="413"/>
      <point x="318" y="514" type="curve"/>
      <point x="241" y="514" type="line"/>
      <point x="241" y="413"/>
      <point x="214" y="374"/>
    </contour>
    <contour>
      <point x="241" y="514" type="curve"/>
      <point x="318" y="514" type="line"/>
      <point x="318" y="616"/>
      <point x="344" y="654"/>
      <point x="344" y="710" type="curve"/>
      <point x="214" y="710" type="line"/>
      <point x="214" y="654"/>
      <point x="241" y="616"/>
    </contour>
    <contour>
      <point x="450" y="369" type="curve"/>
      <point x="514" y="461" type="line"/>
      <point x="458" y="491"/>
      <point x="405" y="488"/>
      <point x="299" y="540" type="curve"/>
      <point x="261" y="488" type="line"/>
      <point x="365" y="436"/>
      <point x="392" y="398"/>
    </contour>
    <contour>
      <point x="299" y="488" type="line"/>
      <point x="405" y="540"/>
      <point x="457" y="538"/>
      <point x="514" y="567" type="curve"/>
      <point x="450" y="659" type="line"/>
      <point x="392" y="631"/>
      <point x="365" y="592"/>
      <point x="261" y="540" type="curve"/>
    </contour>
  </outline>
</glyph>
<glyph name="plus" format="1">
  <advance width="664"/>
  <unicode hex="002B"/>
  <outline>
    <contour>
      <point x="255" y="564" type="line"/>
      <point x="255" y="118" type="line"/>
      <point x="406" y="118" type="line"/>
      <point x="406" y="564" type="line"/>
    </contour>
    <contour>
      <point x="592" y="397" type="line"/>
      <point x="72" y="397" type="line"/>
      <point x="72" y="285" type="line"/>
      <point x="592" y="285" type="line"/>
    </contour>
  </outline>
</glyph>
<glyph name="comma" format="1">
  <advance width="376"/>
  <unicode hex="002C"/>
  <outline>
    <contour>
      <point x="161" y="-186" type="line"/>
      <point x="271" y="-114"/>
      <point x="321" y="-30"/>
      <point x="321" y="58" type="curve" smooth="yes"/>
      <point x="321" y="138"/>
      <point x="267" y="177"/>
      <point x="188" y="177" type="curve" smooth="yes"/>
      <point x="113" y="177"/>
      <point x="65" y="137"/>
      <point x="65" y="81" type="curve" smooth="yes"/>
      <point x="65" y="25"/>
      <point x="114" y="-12"/>
      <point x="187" y="-12" type="curve" smooth="yes"/>
      <point x="213" y="-12"/>
      <point x="229" y="-10"/>
      <point x="242" y="3" type="curve"/>
      <point x="235" y="11"/>
      <point x="206" y="16"/>
      <point x="204" y="11" type="curve"/>
      <point x="199" y="-35"/>
      <point x="131" y="-88"/>
      <point x="35" y="-132" type="curve"/>
    </contour>
  </outline>
</glyph>
<glyph name="hyphen" format="1">
  <advance width="543"/>
  <unicode hex="002D"/>
  <outline>
    <contour>
      <point x="79" y="354" type="line"/>
      <point x="79" y="224" type="line"/>
      <point x="465" y="224" type="line"/>
      <point x="465" y="354" type="line"/>
    </contour>
  </outline>
</glyph>
<glyph name="period" format="1">
  <advance width="369"/>
  <unicode hex="002E"/>
  <outline>
    <contour>
      <point x="308" y="84" type="curve" smooth="yes"/>
      <point x="308" y="140"/>
      <point x="262" y="179"/>
      <point x="184" y="179" type="curve" smooth="yes"/>
      <point x="108" y="179"/>
      <point x="61" y="140"/>
      <point x="61" y="84" type="curve" smooth="yes"/>
      <point x="61" y="27"/>
      <point x="108" y="-12"/>
      <point x="184" y="-12" type="curve" smooth="yes"/>
      <point x="262" y="-12"/>
      <point x="308" y="27"/>
    </contour>
  </outline>
</glyph>
<glyph name="slash" format="1">
  <advance width="567"/>
  <unicode hex="002F"/>
  <outline>
    <contour>
      <point x="420" y="735" type="line"/>
      <point x="-14" y="-144" type="line"/>
      <point x="146" y="-144" type="line"/>
      <point x="581" y="735" type="line"/>
    </contour>
  </outline>
</glyph>
<glyph name="zero" format="1">
  <advance width="664"/>
  <unicode hex="0030"/>
  <outline>
    <contour>
      <point x="332" y="-11" type="curve" smooth="yes"/>
      <point x="512" y="-11"/>
      <point x="641" y="111"/>
      <point x="641" y="304" type="curve" smooth="yes"/>
      <point x="641" y="497"/>
      <point x="511" y="619"/>
      <point x="332" y="619" type="curve" smooth="yes"/>
      <point x="153" y="619"/>
      <point x="23" y="497"/>
      <point x="23" y="304" type="curve" smooth="yes"/>
      <point x="23" y="111"/>
      <point x="152" y="-11"/>
    </contour>
    <contour>
      <point x="332" y="70" type="curve" smooth="yes"/>
      <point x="272" y="70"/>
      <point x="246" y="126"/>
      <point x="246" y="304" type="curve" smooth="yes"/>
      <point x="246" y="482"/>
      <point x="272" y="538"/>
      <point x="332" y="538" type="curve" smooth="yes"/>
      <point x="392" y="538"/>
      <point x="418" y="482"/>
      <point x="418" y="304" type="curve" smooth="yes"/>
      <point x="418" y="125"/>
      <point x="392" y="70"/>
    </contour>
  </outline>
</glyph>
<glyph name="one" format="1">
  <advance width="664"/>
  <unicode hex="0031"/>
  <outline>
    <contour>
      <point x="485" y="110" type="curve" smooth="yes"/>
      <point x="485" y="609" type="line"/>
      <point x="294" y="609" type="line"/>
      <point x="253" y="559"/>
      <point x="192" y="534"/>
      <point x="64" y="532" type="curve"/>
      <point x="64" y="429" type="line"/>
      <point x="173" y="427"/>
      <point x="248" y="456"/>
      <point x="279" y="529" type="curve"/>
      <point x="270" y="542"/>
      <point x="272" y="534"/>
      <point x="256" y="521" type="curve"/>
      <point x="256" y="110" type="line" smooth="yes"/>
      <point x="256" y="75"/>
      <point x="200" y="68"/>
      <point x="129" y="68" type="curve" smooth="yes"/>
      <point x="86" y="68" type="line"/>
      <point x="86" y="0" type="line"/>
      <point x="642" y="0" type="line"/>
      <point x="642" y="68" type="line"/>
      <point x="615" y="68" type="line" smooth="yes"/>
      <point x="537" y="68"/>
      <point x="485" y="75"/>
    </contour>
  </outline>
</glyph>
<glyph name="two" format="1">
  <advance width="664"/>
  <unicode hex="0032"/>
  <outline>
    <contour>
      <point x="384" y="125" type="line" smooth="yes"/>
      <point x="478" y="125"/>
      <point x="509" y="130"/>
      <point x="517" y="168" type="curve" smooth="yes"/>
      <point x="526" y="223" type="line"/>
      <point x="622" y="223" type="line"/>
      <point x="622" y="0" type="line"/>
      <point x="32" y="0" type="line"/>
      <point x="32" y="140" type="line"/>
      <point x="225" y="234"/>
      <point x="379" y="305"/>
      <point x="379" y="441" type="curve" smooth="yes"/>
      <point x="379" y="507"/>
      <point x="349" y="537"/>
      <point x="290" y="537" type="curve" smooth="yes"/>
      <point x="235" y="537"/>
      <point x="197" y="515"/>
      <point x="173" y="485" type="curve"/>
      <point x="171" y="501"/>
      <point x="174" y="540"/>
      <point x="215" y="543" type="curve"/>
      <point x="215" y="417" type="line"/>
      <point x="42" y="417" type="line"/>
      <point x="42" y="544" type="line"/>
      <point x="93" y="583"/>
      <point x="190" y="618"/>
      <point x="317" y="618" type="curve" smooth="yes"/>
      <point x="503" y="618"/>
      <point x="602" y="552"/>
      <point x="602" y="440" type="curve" smooth="yes"/>
      <point x="602" y="283"/>
      <point x="343" y="178"/>
      <point x="128" y="102" type="curve"/>
      <point x="111" y="99"/>
      <point x="114" y="119"/>
      <point x="116" y="125" type="curve"/>
    </contour>
  </outline>
</glyph>
<glyph name="three" format="1">
  <advance width="664"/>
  <unicode hex="0033"/>
  <outline>
    <contour>
      <point x="294" y="-6" type="curve" smooth="yes"/>
      <point x="375" y="-6"/>
      <point x="422" y="38"/>
      <point x="422" y="119" type="curve" smooth="yes"/>
      <point x="422" y="193"/>
      <point x="390" y="245"/>
      <point x="271" y="245" type="curve" smooth="yes"/>
      <point x="204" y="245" type="line"/>
      <point x="204" y="322" type="line"/>
      <point x="257" y="322" type="line" smooth="yes"/>
      <point x="357" y="322"/>
      <point x="405" y="361"/>
      <point x="405" y="447" type="curve" smooth="yes"/>
      <point x="405" y="512"/>
      <point x="369" y="537"/>
      <point x="316" y="537" type="curve" smooth="yes"/>
      <point x="263" y="537"/>
      <point x="226" y="516"/>
      <point x="204" y="487" type="curve"/>
      <point x="201" y="503"/>
      <point x="206" y="542"/>
      <point x="241" y="546" type="curve"/>
      <point x="241" y="426" type="line"/>
      <point x="67" y="426" type="line"/>
      <point x="67" y="545" type="line"/>
      <point x="118" y="584"/>
      <point x="208" y="618"/>
      <point x="337" y="618" type="curve" smooth="yes"/>
      <point x="491" y="618"/>
      <point x="617" y="563"/>
      <point x="617" y="453" type="curve" smooth="yes"/>
      <point x="617" y="337"/>
      <point x="462" y="278"/>
      <point x="267" y="278" type="curve"/>
      <point x="288" y="294" type="line"/>
      <point x="543" y="294"/>
      <point x="641" y="223"/>
      <point x="641" y="113" type="curve" smooth="yes"/>
      <point x="641" y="-16"/>
      <point x="503" y="-90"/>
      <point x="328" y="-90" type="curve" smooth="yes"/>
      <point x="151" y="-90"/>
      <point x="63" y="-18"/>
      <point x="18" y="73" type="curve"/>
      <point x="100" y="125" type="line"/>
      <point x="137" y="50"/>
      <point x="195" y="-6"/>
    </contour>
  </outline>
</glyph>
<glyph name="four" format="1">
  <advance width="664"/>
  <unicode hex="0034"/>
  <outline>
    <contour>
      <point x="26" y="87" type="line"/>
      <point x="656" y="87" type="line"/>
      <point x="656" y="207" type="line"/>
      <point x="111" y="207" type="line"/>
      <point x="85" y="140" type="line"/>
      <point x="376" y="539" type="line"/>
      <point x="397" y="609" type="line"/>
      <point x="320" y="609" type="line"/>
      <point x="26" y="211" type="line"/>
    </contour>
    <contour>
      <point x="562" y="-77" type="line"/>
      <point x="562" y="609" type="line"/>
      <point x="358" y="609" type="line"/>
      <point x="341" y="536" type="line"/>
      <point x="341" y="-77" type="line"/>
    </contour>
  </outline>
</glyph>
<glyph name="five" format="1">
  <advance width="664"/>
  <unicode hex="0035"/>
  <outline>
    <contour>
      <point x="319" y="-90" type="curve" smooth="yes"/>
      <point x="157" y="-90"/>
      <point x="72" y="-22"/>
      <point x="24" y="63" type="curve"/>
      <point x="105" y="117" type="line"/>
      <point x="137" y="57"/>
      <point x="195" y="-5"/>
      <point x="285" y="-5" type="curve" smooth="yes"/>
      <point x="373" y="-5"/>
      <point x="417" y="46"/>
      <point x="417" y="151" type="curve" smooth="yes"/>
      <point x="417" y="237"/>
      <point x="375" y="286"/>
      <point x="304" y="286" type="curve" smooth="yes"/>
      <point x="247" y="286"/>
      <point x="207" y="259"/>
      <point x="180" y="217" type="curve"/>
      <point x="84" y="217" type="line"/>
      <point x="84" y="609" type="line"/>
      <point x="576" y="609" type="line"/>
      <point x="556" y="482" type="line"/>
      <point x="170" y="482" type="line"/>
      <point x="192" y="589" type="line"/>
      <point x="192" y="276" type="line"/>
      <point x="186" y="264"/>
      <point x="169" y="258"/>
      <point x="160" y="272" type="curve"/>
      <point x="200" y="328"/>
      <point x="262" y="366"/>
      <point x="375" y="366" type="curve" smooth="yes"/>
      <point x="541" y="366"/>
      <point x="636" y="270"/>
      <point x="636" y="150" type="curve" smooth="yes"/>
      <point x="636" y="6"/>
      <point x="513" y="-90"/>
    </contour>
  </outline>
</glyph>
<glyph name="six" format="1">
  <advance width="664"/>
  <unicode hex="0036"/>
  <outline>
    <contour>
      <point x="563" y="662" type="line"/>
      <point x="373" y="626"/>
      <point x="244" y="495"/>
      <point x="244" y="289" type="curve" smooth="yes"/>
      <point x="244" y="116"/>
      <point x="280" y="68"/>
      <point x="337" y="68" type="curve" smooth="yes"/>
      <point x="390" y="68"/>
      <point x="417" y="118"/>
      <point x="417" y="229" type="curve" smooth="yes"/>
      <point x="417" y="317"/>
      <point x="398" y="375"/>
      <point x="337" y="375" type="curve" smooth="yes"/>
      <point x="282" y="375"/>
      <point x="245" y="332"/>
      <point x="210" y="271" type="curve"/>
      <point x="203" y="337" type="line"/>
      <point x="227" y="393"/>
      <point x="287" y="453"/>
      <point x="398" y="453" type="curve" smooth="yes"/>
      <point x="540" y="453"/>
      <point x="638" y="377"/>
      <point x="638" y="241" type="curve" smooth="yes"/>
      <point x="638" y="88"/>
      <point x="519" y="-10"/>
      <point x="343" y="-10" type="curve" smooth="yes"/>
      <point x="154" y="-10"/>
      <point x="26" y="86"/>
      <point x="26" y="295" type="curve" smooth="yes"/>
      <point x="26" y="513"/>
      <point x="223" y="702"/>
      <point x="548" y="740" type="curve"/>
    </contour>
  </outline>
</glyph>
<glyph name="seven" format="1">
  <advance width="664"/>
  <unicode hex="0037"/>
  <outline>
    <contour>
      <point x="273" y="482" type="line" smooth="yes"/>
      <point x="192" y="482"/>
      <point x="160" y="475"/>
      <point x="156" y="439" type="curve" smooth="yes"/>
      <point x="147" y="360" type="line"/>
      <point x="63" y="360" type="line"/>
      <point x="63" y="609" type="line"/>
      <point x="637" y="609" type="line"/>
      <point x="637" y="491" type="line"/>
      <point x="508" y="340"/>
      <point x="422" y="229"/>
      <point x="407" y="-77" type="curve"/>
      <point x="190" y="-77" type="line"/>
      <point x="219" y="216"/>
      <point x="455" y="424"/>
      <point x="560" y="511" type="curve"/>
      <point x="585" y="482" type="line"/>
    </contour>
  </outline>
</glyph>
<glyph name="eight" format="1">
  <advance width="664"/>
  <unicode hex="0038"/>
  <outline>
    <contour>
      <point x="332" y="74" type="curve" smooth="yes"/>
      <point x="277" y="74"/>
      <point x="245" y="116"/>
      <point x="245" y="204" type="curve" smooth="yes"/>
      <point x="245" y="298"/>
      <point x="277" y="336"/>
      <point x="332" y="336" type="curve" smooth="yes"/>
      <point x="387" y="336"/>
      <point x="419" y="298"/>
      <point x="419" y="204" type="curve" smooth="yes"/>
      <point x="419" y="116"/>
      <point x="387" y="74"/>
    </contour>
    <contour>
      <point x="332" y="-10" type="curve" smooth="yes"/>
      <point x="524" y="-10"/>
      <point x="644" y="75"/>
      <point x="644" y="199" type="curve" smooth="yes"/>
      <point x="644" y="322"/>
      <point x="518" y="394"/>
      <point x="332" y="394" type="curve" smooth="yes"/>
      <point x="146" y="394"/>
      <point x="20" y="322"/>
      <point x="20" y="199" type="curve" smooth="yes"/>
      <point x="20" y="75"/>
      <point x="140" y="-10"/>
    </contour>
    <contour>
      <point x="332" y="416" type="curve" smooth="yes"/>
      <point x="286" y="416"/>
      <point x="259" y="449"/>
      <point x="259" y="527" type="curve" smooth="yes"/>
      <point x="259" y="603"/>
      <point x="286" y="636"/>
      <point x="332" y="636" type="curve" smooth="yes"/>
      <point x="378" y="636"/>
      <point x="405" y="603"/>
      <point x="405" y="527" type="curve" smooth="yes"/>
      <point x="405" y="449"/>
      <point x="378" y="416"/>
    </contour>
    <contour>
      <point x="332" y="363" type="curve" smooth="yes"/>
      <point x="503" y="363"/>
      <point x="610" y="429"/>
      <point x="610" y="540" type="curve" smooth="yes"/>
      <point x="610" y="646"/>
      <point x="502" y="720"/>
      <point x="332" y="720" type="curve" smooth="yes"/>
      <point x="162" y="720"/>
      <point x="54" y="646"/>
      <point x="54" y="540" type="curve" smooth="yes"/>
      <point x="54" y="429"/>
      <point x="161" y="363"/>
    </contour>
  </outline>
</glyph>
<glyph name="nine" format="1">
  <advance width="664"/>
  <unicode hex="0039"/>
  <outline>
    <contour>
      <point x="87" y="-23" type="line"/>
      <point x="293" y="0"/>
      <point x="419" y="106"/>
      <point x="419" y="331" type="curve" smooth="yes"/>
      <point x="419" y="496"/>
      <point x="386" y="541"/>
      <point x="331" y="541" type="curve" smooth="yes"/>
      <point x="276" y="541"/>
      <point x="247" y="496"/>
      <point x="247" y="393" type="curve" smooth="yes"/>
      <point x="247" y="308"/>
      <point x="267" y="255"/>
      <point x="330" y="255" type="curve" smooth="yes"/>
      <point x="383" y="255"/>
      <point x="419" y="289"/>
      <point x="454" y="359" type="curve"/>
      <point x="461" y="293" type="line"/>
      <point x="438" y="236"/>
      <point x="380" y="177"/>
      <point x="269" y="177" type="curve" smooth="yes"/>
      <point x="126" y="177"/>
      <point x="26" y="252"/>
      <point x="26" y="389" type="curve" smooth="yes"/>
      <point x="26" y="529"/>
      <point x="147" y="619"/>
      <point x="326" y="619" type="curve" smooth="yes"/>
      <point x="520" y="619"/>
      <point x="638" y="527"/>
      <point x="638" y="325" type="curve" smooth="yes"/>
      <point x="638" y="87"/>
      <point x="436" y="-76"/>
      <point x="102" y="-101" type="curve"/>
    </contour>
  </outline>
</glyph>
<glyph name="less" format="1">
  <advance width="664"/>
  <unicode hex="003C"/>
  <outline>
    <contour>
      <point x="559" y="574" type="line"/>
      <point x="105" y="400" type="line"/>
      <point x="105" y="338" type="line"/>
      <point x="130" y="299" type="line"/>
      <point x="559" y="459" type="line"/>
    </contour>
    <contour>
      <point x="559" y="241" type="line"/>
      <point x="131" y="400" type="line"/>
      <point x="105" y="356" type="line"/>
      <point x="105" y="290" type="line"/>
      <point x="559" y="116" type="line"/>
    </contour>
  </outline>
</glyph>
<glyph name="question" format="1">
  <advance width="682"/>
  <unicode hex="003F"/>
  <outline>
    <contour>
      <point x="249" y="383" type="line"/>
      <point x="359" y="417"/>
      <point x="421" y="466"/>
      <point x="421" y="550" type="curve" smooth="yes"/>
      <point x="421" y="606"/>
      <point x="387" y="641"/>
      <point x="314" y="641" type="curve" smooth="yes"/>
      <point x="264" y="641"/>
      <point x="218" y="626"/>
      <point x="192" y="595" type="curve"/>
      <point x="181" y="622"/>
      <point x="199" y="639"/>
      <point x="228" y="644" type="curve"/>
      <point x="228" y="517" type="line"/>
      <point x="44" y="517" type="line"/>
      <point x="44" y="651" type="line"/>
      <point x="88" y="683"/>
      <point x="187" y="726"/>
      <point x="338" y="726" type="curve" smooth="yes"/>
      <point x="543" y="726"/>
      <point x="644" y="650"/>
      <point x="644" y="544" type="curve" smooth="yes"/>
      <point x="644" y="419"/>
      <point x="501" y="362"/>
      <point x="377" y="334" type="curve"/>
      <point x="377" y="243" type="line"/>
      <point x="249" y="243" type="line"/>
    </contour>
    <component base="period" xOffset="128"/>
  </outline>
</glyph>
<glyph name="at" format="1">
  <advance width="1088"/>
  <unicode hex="0040"/>
  <outline>
    <contour>
      <point x="555" y="-77" type="curve" smooth="yes"/>
      <point x="312" y="-77"/>
      <point x="141" y="41"/>
      <point x="141" y="231" type="curve" smooth="yes"/>
      <point x="141" y="439"/>
      <point x="332" y="597"/>
      <point x="593" y="597" type="curve" smooth="yes"/>
      <point x="817" y="597"/>
      <point x="947" y="487"/>
      <point x="947" y="342" type="curve" smooth="yes"/>
      <point x="947" y="203"/>
      <point x="868" y="123"/>
      <point x="812" y="123" type="curve" smooth="yes"/>
      <point x="781" y="123"/>
      <point x="773" y="139"/>
      <point x="782" y="179" type="curve" smooth="yes"/>
      <point x="841" y="469" type="line"/>
      <point x="691" y="469" type="line"/>
      <point x="651" y="387" type="line"/>
      <point x="637" y="382" type="line"/>
      <point x="591" y="150" type="line"/>
      <point x="596" y="145"/>
      <point x="605" y="142"/>
      <point x="607" y="147" type="curve"/>
      <point x="622" y="95"/>
      <point x="675" y="54"/>
      <point x="777" y="54" type="curve" smooth="yes"/>
      <point x="920" y="54"/>
      <point x="1054" y="159"/>
      <point x="1054" y="342" type="curve" smooth="yes"/>
      <point x="1054" y="532"/>
      <point x="873" y="673"/>
      <point x="593" y="673" type="curve" smooth="yes"/>
      <point x="276" y="673"/>
      <point x="34" y="487"/>
      <point x="34" y="231" type="curve" smooth="yes"/>
      <point x="34" y="-8"/>
      <point x="257" y="-153"/>
      <point x="555" y="-153" type="curve" smooth="yes"/>
      <point x="690" y="-153"/>
      <point x="818" y="-125"/>
      <point x="896" y="-93" type="curve"/>
      <point x="869" y="-20" type="line"/>
      <point x="787" y="-52"/>
      <point x="681" y="-77"/>
    </contour>
    <contour>
      <point x="473" y="48" type="curve" smooth="yes"/>
      <point x="572" y="48"/>
      <point x="616" y="111"/>
      <point x="685" y="217" type="curve"/>
      <point x="652" y="262" type="line"/>
      <point x="597" y="172"/>
      <point x="557" y="118"/>
      <point x="512" y="118" type="curve" smooth="yes"/>
      <point x="472" y="118"/>
      <point x="455" y="151"/>
      <point x="455" y="212" type="curve" smooth="yes"/>
      <point x="455" y="306"/>
      <point x="498" y="404"/>
      <point x="567" y="404" type="curve" smooth="yes"/>
      <point x="611" y="404"/>
      <point x="638" y="373"/>
      <point x="661" y="290" type="curve"/>
      <point x="697" y="329" type="line"/>
      <point x="669" y="438"/>
      <point x="629" y="475"/>
      <point x="533" y="475" type="curve" smooth="yes"/>
      <point x="370" y="475"/>
      <point x="267" y="346"/>
      <point x="267" y="225" type="curve" smooth="yes"/>
      <point x="267" y="110"/>
      <point x="357" y="48"/>
    </contour>
  </outline>
</glyph>
<glyph name="A" format="1">
  <advance width="867"/>
  <unicode hex="0041"/>
  <outline>
    <contour>
      <point x="194" y="307" type="line"/>
      <point x="193" y="229" type="line"/>
      <point x="516" y="229" type="line"/>
      <point x="516" y="307" type="line"/>
    </contour>
    <contour>
      <point x="326" y="648" type="line"/>
      <point x="542" y="78" type="line"/>
      <point x="542" y="72"/>
      <point x="509" y="68"/>
      <point x="480" y="68" type="curve" smooth="yes"/>
      <point x="461" y="68" type="line"/>
      <point x="461" y="0" type="line"/>
      <point x="854" y="0" type="line"/>
      <point x="854" y="68" type="line"/>
      <point x="849" y="68" type="line"/>
      <point x="821" y="68"/>
      <point x="805" y="73"/>
      <point x="795" y="96" type="curve" smooth="yes"/>
      <point x="555" y="710" type="line"/>
      <point x="309" y="710" type="line"/>
      <point x="76" y="111" type="line" smooth="yes"/>
      <point x="62" y="77"/>
      <point x="48" y="68"/>
      <point x="19" y="68" type="curve"/>
      <point x="13" y="68" type="line"/>
      <point x="13" y="0" type="line"/>
      <point x="250" y="0" type="line"/>
      <point x="250" y="68" type="line"/>
      <point x="235" y="68" type="line" smooth="yes"/>
      <point x="206" y="68"/>
      <point x="176" y="75"/>
      <point x="176" y="87" type="curve"/>
      <point x="366" y="605" type="line"/>
    </contour>
    <contour>
      <point x="415" y="721" type="move" name="top"/>
    </contour>
    <contour>
      <point x="657" y="0" type="move" name="right"/>
    </contour>
    <contour>
      <point x="415" y="0" type="move" name="bottom"/>
    </contour>
  </outline>
</glyph>
<glyph name="B" format="1">
  <advance width="858"/>
  <unicode hex="0042"/>
  <outline>
    <contour>
      <point x="493" y="710" type="curve" smooth="yes"/>
      <point x="37" y="710" type="line"/>
      <point x="37" y="642" type="line"/>
      <point x="49" y="642" type="line" smooth="yes"/>
      <point x="82" y="642"/>
      <point x="106" y="635"/>
      <point x="106" y="606" type="curve" smooth="yes"/>
      <point x="106" y="104" type="line" smooth="yes"/>
      <point x="106" y="75"/>
      <point x="82" y="68"/>
      <point x="49" y="68" type="curve" smooth="yes"/>
      <point x="37" y="68" type="line"/>
      <point x="37" y="0" type="line"/>
      <point x="503" y="0" type="line" smooth="yes"/>
      <point x="710" y="0"/>
      <point x="823" y="75"/>
      <point x="823" y="200" type="curve" smooth="yes"/>
      <point x="823" y="317"/>
      <point x="708" y="381"/>
      <point x="544" y="382" type="curve"/>
      <point x="574" y="359" type="line"/>
      <point x="574" y="389" type="line"/>
      <point x="534" y="368" type="line"/>
      <point x="681" y="374"/>
      <point x="789" y="434"/>
      <point x="789" y="537" type="curve" smooth="yes"/>
      <point x="789" y="645"/>
      <point x="688" y="710"/>
    </contour>
    <contour>
      <point x="355" y="77" type="line"/>
      <point x="355" y="633" type="line"/>
      <point x="427" y="633" type="line" smooth="yes"/>
      <point x="505" y="633"/>
      <point x="541" y="595"/>
      <point x="541" y="527" type="curve" smooth="yes"/>
      <point x="541" y="452"/>
      <point x="510" y="408"/>
      <point x="421" y="408" type="curve" smooth="yes"/>
      <point x="315" y="408" type="line"/>
      <point x="315" y="334" type="line"/>
      <point x="429" y="334" type="line" smooth="yes"/>
      <point x="533" y="334"/>
      <point x="570" y="286"/>
      <point x="570" y="207" type="curve" smooth="yes"/>
      <point x="570" y="120"/>
      <point x="525" y="77"/>
      <point x="434" y="77" type="curve" smooth="yes"/>
    </contour>
  </outline>
</glyph>
<glyph name="C" format="1">
  <advance width="827"/>
  <unicode hex="0043"/>
  <outline>
    <contour>
      <point x="484" y="635" type="curve" smooth="yes"/>
      <point x="584" y="635"/>
      <point x="647" y="573"/>
      <point x="678" y="484" type="curve"/>
      <point x="786" y="484" type="line"/>
      <point x="786" y="710" type="line"/>
      <point x="691" y="710" type="line"/>
      <point x="666" y="542" type="line"/>
      <point x="733" y="529" type="line"/>
      <point x="697" y="650"/>
      <point x="616" y="720"/>
      <point x="441" y="720" type="curve" smooth="yes"/>
      <point x="217" y="720"/>
      <point x="37" y="573"/>
      <point x="37" y="354" type="curve" smooth="yes"/>
      <point x="37" y="136"/>
      <point x="204" y="-10"/>
      <point x="463" y="-10" type="curve" smooth="yes"/>
      <point x="658" y="-10"/>
      <point x="760" y="91"/>
      <point x="799" y="235" type="curve"/>
      <point x="710" y="265" type="line"/>
      <point x="683" y="153"/>
      <point x="612" y="75"/>
      <point x="501" y="75" type="curve" smooth="yes"/>
      <point x="366" y="75"/>
      <point x="297" y="173"/>
      <point x="297" y="355" type="curve" smooth="yes"/>
      <point x="297" y="531"/>
      <point x="365" y="635"/>
    </contour>
  </outline>
</glyph>
<glyph name="D" format="1">
  <advance width="941"/>
  <unicode hex="0044"/>
  <outline>
    <contour>
      <point x="36" y="642" type="line"/>
      <point x="49" y="642" type="line" smooth="yes"/>
      <point x="82" y="642"/>
      <point x="105" y="633"/>
      <point x="105" y="606" type="curve" smooth="yes"/>
      <point x="105" y="104" type="line" smooth="yes"/>
      <point x="105" y="75"/>
      <point x="82" y="68"/>
      <point x="49" y="68" type="curve" smooth="yes"/>
      <point x="36" y="68" type="line"/>
      <point x="36" y="0" type="line"/>
      <point x="466" y="0" type="line" smooth="yes"/>
      <point x="724" y="0"/>
      <point x="903" y="135"/>
      <point x="903" y="357" type="curve" smooth="yes"/>
      <point x="903" y="581"/>
      <point x="725" y="710"/>
      <point x="466" y="710" type="curve" smooth="yes"/>
      <point x="36" y="710" type="line"/>
    </contour>
    <contour>
      <point x="432" y="630" type="line" smooth="yes"/>
      <point x="565" y="630"/>
      <point x="644" y="538"/>
      <point x="644" y="357" type="curve" smooth="yes"/>
      <point x="644" y="176"/>
      <point x="563" y="80"/>
      <point x="432" y="80" type="curve" smooth="yes"/>
      <point x="354" y="80" type="line"/>
      <point x="354" y="630" type="line"/>
    </contour>
    <contour>
      <point x="453" y="741" type="move" name="top"/>
    </contour>
    <contour>
      <point x="454" y="0" type="move" name="bottom"/>
    </contour>
  </outline>
</glyph>
<glyph name="E" format="1">
  <advance width="768"/>
  <unicode hex="0045"/>
  <outline>
    <contour>
      <point x="730" y="224" type="line"/>
      <point x="622" y="224" type="line"/>
      <point x="612" y="135" type="line" smooth="yes"/>
      <point x="606" y="86"/>
      <point x="580" y="79"/>
      <point x="475" y="79" type="curve" smooth="yes"/>
      <point x="354" y="79" type="line"/>
      <point x="354" y="631" type="line"/>
      <point x="467" y="631" type="line" smooth="yes"/>
      <point x="546" y="631"/>
      <point x="580" y="624"/>
      <point x="584" y="581" type="curve" smooth="yes"/>
      <point x="591" y="511" type="line"/>
      <point x="698" y="511" type="line"/>
      <point x="698" y="710" type="line"/>
      <point x="36" y="710" type="line"/>
      <point x="36" y="642" type="line"/>
      <point x="48" y="642" type="line" smooth="yes"/>
      <point x="82" y="642"/>
      <point x="105" y="635"/>
      <point x="105" y="606" type="curve" smooth="yes"/>
      <point x="105" y="104" type="line" smooth="yes"/>
      <point x="105" y="75"/>
      <point x="82" y="68"/>
      <point x="48" y="68" type="curve" smooth="yes"/>
      <point x="36" y="68" type="line"/>
      <point x="36" y="0" type="line"/>
      <point x="730" y="0" type="line"/>
    </contour>
    <contour>
      <point x="322" y="398" type="curve"/>
      <point x="322" y="329" type="line"/>
      <point x="415" y="325"/>
      <point x="507" y="321"/>
      <point x="595" y="317" type="curve"/>
      <point x="595" y="410" type="line"/>
      <point x="504" y="405"/>
      <point x="413" y="402"/>
    </contour>
    <contour>
      <point x="442" y="741" type="move" name="top"/>
    </contour>
    <contour>
      <point x="518" y="0" type="move" name="right"/>
    </contour>
    <contour>
      <point x="442" y="0" type="move" name="bottom"/>
    </contour>
  </outline>
</glyph>
<glyph name="F" format="1">
  <advance width="733"/>
  <unicode hex="0046"/>
  <outline>
    <contour>
      <point x="354" y="631" type="line"/>
      <point x="469" y="631" type="line" smooth="yes"/>
      <point x="554" y="631"/>
      <point x="581" y="624"/>
      <point x="586" y="579" type="curve" smooth="yes"/>
      <point x="594" y="511" type="line"/>
      <point x="700" y="511" type="line"/>
      <point x="700" y="710" type="line"/>
      <point x="36" y="710" type="line"/>
      <point x="36" y="642" type="line"/>
      <point x="48" y="642" type="line" smooth="yes"/>
      <point x="82" y="642"/>
      <point x="105" y="635"/>
      <point x="105" y="606" type="curve" smooth="yes"/>
      <point x="105" y="104" type="line" smooth="yes"/>
      <point x="105" y="75"/>
      <point x="82" y="68"/>
      <point x="48" y="68" type="curve" smooth="yes"/>
      <point x="36" y="68" type="line"/>
      <point x="36" y="0" type="line"/>
      <point x="451" y="0" type="line"/>
      <point x="451" y="68" type="line"/>
      <point x="431" y="68" type="line" smooth="yes"/>
      <point x="397" y="68"/>
      <point x="354" y="69"/>
      <point x="354" y="104" type="curve" smooth="yes"/>
    </contour>
    <contour>
      <point x="322" y="391" type="curve"/>
      <point x="322" y="322" type="line"/>
      <point x="414" y="318"/>
      <point x="506" y="314"/>
      <point x="598" y="310" type="curve"/>
      <point x="598" y="403" type="line"/>
      <point x="506" y="398"/>
      <point x="414" y="395"/>
    </contour>
  </outline>
</glyph>
<glyph name="G" format="1">
  <advance width="913"/>
  <unicode hex="0047"/>
  <outline>
    <contour>
      <point x="833" y="255" type="line" smooth="yes"/>
      <point x="833" y="284"/>
      <point x="854" y="291"/>
      <point x="882" y="291" type="curve" smooth="yes"/>
      <point x="889" y="291" type="line"/>
      <point x="889" y="359" type="line"/>
      <point x="534" y="359" type="line"/>
      <point x="534" y="291" type="line"/>
      <point x="545" y="291" type="line" smooth="yes"/>
      <point x="582" y="291"/>
      <point x="608" y="284"/>
      <point x="608" y="255" type="curve" smooth="yes"/>
      <point x="608" y="111" type="line"/>
      <point x="590" y="96"/>
      <point x="553" y="75"/>
      <point x="493" y="75" type="curve" smooth="yes"/>
      <point x="373" y="75"/>
      <point x="297" y="164"/>
      <point x="297" y="355" type="curve" smooth="yes"/>
      <point x="297" y="531"/>
      <point x="367" y="635"/>
      <point x="499" y="635" type="curve" smooth="yes"/>
      <point x="611" y="635"/>
      <point x="673" y="569"/>
      <point x="706" y="487" type="curve"/>
      <point x="815" y="487" type="line"/>
      <point x="815" y="710" type="line"/>
      <point x="720" y="710" type="line"/>
      <point x="695" y="542" type="line"/>
      <point x="761" y="533" type="line"/>
      <point x="722" y="649"/>
      <point x="637" y="720"/>
      <point x="459" y="720" type="curve" smooth="yes"/>
      <point x="212" y="720"/>
      <point x="37" y="569"/>
      <point x="37" y="355" type="curve" smooth="yes"/>
      <point x="37" y="136"/>
      <point x="208" y="-10"/>
      <point x="478" y="-10" type="curve" smooth="yes"/>
      <point x="647" y="-10"/>
      <point x="774" y="46"/>
      <point x="833" y="101" type="curve"/>
    </contour>
    <contour>
      <point x="466" y="741" type="move" name="top"/>
    </contour>
    <contour>
      <point x="468" y="0" type="move" name="bottom"/>
    </contour>
  </outline>
</glyph>
<glyph name="H" format="1">
  <advance width="965"/>
  <unicode hex="0048"/>
  <outline>
    <contour>
      <point x="206" y="405" type="line"/>
      <point x="206" y="326" type="line"/>
      <point x="717" y="326" type="line"/>
      <point x="717" y="405" type="line"/>
    </contour>
    <contour>
      <point x="37" y="0" type="line"/>
      <point x="427" y="0" type="line"/>
      <point x="427" y="68" type="line"/>
      <point x="418" y="68" type="line" smooth="yes"/>
      <point x="390" y="68"/>
      <point x="355" y="71"/>
      <point x="355" y="78" type="curve" smooth="yes"/>
      <point x="355" y="632" type="line" smooth="yes"/>
      <point x="355" y="639"/>
      <point x="390" y="642"/>
      <point x="418" y="642" type="curve" smooth="yes"/>
      <point x="427" y="642" type="line"/>
      <point x="427" y="710" type="line"/>
      <point x="37" y="710" type="line"/>
      <point x="37" y="642" type="line"/>
      <point x="49" y="642" type="line" smooth="yes"/>
      <point x="82" y="642"/>
      <point x="106" y="635"/>
      <point x="106" y="606" type="curve" smooth="yes"/>
      <point x="106" y="104" type="line" smooth="yes"/>
      <point x="106" y="75"/>
      <point x="82" y="68"/>
      <point x="49" y="68" type="curve" smooth="yes"/>
      <point x="37" y="68" type="line"/>
    </contour>
    <contour>
      <point x="538" y="0" type="line"/>
      <point x="928" y="0" type="line"/>
      <point x="928" y="68" type="line"/>
      <point x="916" y="68" type="line" smooth="yes"/>
      <point x="883" y="68"/>
      <point x="859" y="75"/>
      <point x="859" y="104" type="curve" smooth="yes"/>
      <point x="859" y="606" type="line" smooth="yes"/>
      <point x="859" y="635"/>
      <point x="883" y="642"/>
      <point x="916" y="642" type="curve" smooth="yes"/>
      <point x="928" y="642" type="line"/>
      <point x="928" y="710" type="line"/>
      <point x="538" y="710" type="line"/>
      <point x="538" y="642" type="line"/>
      <point x="548" y="642" type="line" smooth="yes"/>
      <point x="575" y="642"/>
      <point x="610" y="639"/>
      <point x="610" y="632" type="curve" smooth="yes"/>
      <point x="610" y="78" type="line" smooth="yes"/>
      <point x="610" y="71"/>
      <point x="575" y="68"/>
      <point x="548" y="68" type="curve" smooth="yes"/>
      <point x="538" y="68" type="line"/>
    </contour>
    <contour>
      <point x="488" y="741" type="move" name="top"/>
    </contour>
    <contour>
      <point x="488" y="0" type="move" name="bottom"/>
    </contour>
  </outline>
</glyph>
<glyph name="I" format="1">
  <advance width="461"/>
  <unicode hex="0049"/>
  <outline>
    <contour>
      <point x="106" y="104" type="line" smooth="yes"/>
      <point x="106" y="75"/>
      <point x="82" y="68"/>
      <point x="49" y="68" type="curve" smooth="yes"/>
      <point x="37" y="68" type="line"/>
      <point x="37" y="0" type="line"/>
      <point x="425" y="0" type="line"/>
      <point x="425" y="68" type="line"/>
      <point x="412" y="68" type="line" smooth="yes"/>
      <point x="380" y="68"/>
      <point x="355" y="75"/>
      <point x="355" y="104" type="curve" smooth="yes"/>
      <point x="355" y="606" type="line" smooth="yes"/>
      <point x="355" y="635"/>
      <point x="380" y="642"/>
      <point x="412" y="642" type="curve" smooth="yes"/>
      <point x="425" y="642" type="line"/>
      <point x="425" y="710" type="line"/>
      <point x="37" y="710" type="line"/>
      <point x="37" y="642" type="line"/>
      <point x="49" y="642" type="line" smooth="yes"/>
      <point x="82" y="642"/>
      <point x="106" y="635"/>
      <point x="106" y="606" type="curve" smooth="yes"/>
    </contour>
    <contour>
      <point x="217" y="741" type="move" name="top"/>
    </contour>
    <contour>
      <point x="285" y="0" type="move" name="right"/>
    </contour>
    <contour>
      <point x="217" y="0" type="move" name="bottom"/>
    </contour>
  </outline>
</glyph>
<glyph name="J" format="1">
  <advance width="717"/>
  <unicode hex="004A"/>
  <outline>
    <contour>
      <point x="280" y="710" type="line"/>
      <point x="280" y="642" type="line"/>
      <point x="302" y="642" type="line" smooth="yes"/>
      <point x="340" y="642"/>
      <point x="367" y="635"/>
      <point x="367" y="606" type="curve" smooth="yes"/>
      <point x="367" y="209" type="line" smooth="yes"/>
      <point x="367" y="105"/>
      <point x="329" y="74"/>
      <point x="263" y="74" type="curve" smooth="yes"/>
      <point x="203" y="74"/>
      <point x="167" y="103"/>
      <point x="141" y="132" type="curve"/>
      <point x="114" y="134"/>
      <point x="138" y="82"/>
      <point x="196" y="72" type="curve"/>
      <point x="196" y="208" type="line"/>
      <point x="18" y="208" type="line"/>
      <point x="18" y="61" type="line"/>
      <point x="71" y="25"/>
      <point x="158" y="-10"/>
      <point x="295" y="-10" type="curve" smooth="yes"/>
      <point x="481" y="-10"/>
      <point x="615" y="47"/>
      <point x="615" y="216" type="curve" smooth="yes"/>
      <point x="615" y="606" type="line" smooth="yes"/>
      <point x="615" y="635"/>
      <point x="639" y="642"/>
      <point x="672" y="642" type="curve" smooth="yes"/>
      <point x="684" y="642" type="line"/>
      <point x="684" y="710" type="line"/>
    </contour>
    <contour>
      <point x="437" y="741" type="move" name="top"/>
    </contour>
  </outline>
</glyph>
<glyph name="K" format="1">
  <advance width="935"/>
  <unicode hex="004B"/>
  <outline>
    <contour>
      <point x="37" y="0" type="line"/>
      <point x="420" y="0" type="line"/>
      <point x="420" y="68" type="line"/>
      <point x="409" y="68" type="line" smooth="yes"/>
      <point x="384" y="68"/>
      <point x="355" y="71"/>
      <point x="355" y="78" type="curve" smooth="yes"/>
      <point x="355" y="632" type="line" smooth="yes"/>
      <point x="355" y="639"/>
      <point x="393" y="642"/>
      <point x="428" y="642" type="curve" smooth="yes"/>
      <point x="440" y="642" type="line"/>
      <point x="440" y="710" type="line"/>
      <point x="37" y="710" type="line"/>
      <point x="37" y="642" type="line"/>
      <point x="49" y="642" type="line" smooth="yes"/>
      <point x="82" y="642"/>
      <point x="106" y="635"/>
      <point x="106" y="606" type="curve" smooth="yes"/>
      <point x="106" y="104" type="line" smooth="yes"/>
      <point x="106" y="75"/>
      <point x="82" y="68"/>
      <point x="49" y="68" type="curve" smooth="yes"/>
      <point x="37" y="68" type="line"/>
    </contour>
    <contour>
      <point x="511" y="0" type="line"/>
      <point x="915" y="0" type="line"/>
      <point x="915" y="68" type="line"/>
      <point x="903" y="68" type="line" smooth="yes"/>
      <point x="874" y="68"/>
      <point x="860" y="77"/>
      <point x="841" y="102" type="curve" smooth="yes"/>
      <point x="584" y="462" type="line"/>
      <point x="504" y="353" type="line"/>
      <point x="762" y="607" type="line" smooth="yes"/>
      <point x="790" y="635"/>
      <point x="810" y="642"/>
      <point x="846" y="642" type="curve" smooth="yes"/>
      <point x="870" y="642" type="line"/>
      <point x="870" y="710" type="line"/>
      <point x="572" y="710" type="line"/>
      <point x="572" y="642" type="line"/>
      <point x="583" y="642" type="line" smooth="yes"/>
      <point x="617" y="642"/>
      <point x="662" y="640"/>
      <point x="661" y="633" type="curve"/>
      <point x="387" y="363" type="line"/>
      <point x="387" y="337" type="line"/>
      <point x="576" y="78" type="line"/>
      <point x="576" y="71"/>
      <point x="546" y="68"/>
      <point x="520" y="68" type="curve" smooth="yes"/>
      <point x="511" y="68" type="line"/>
    </contour>
    <contour>
      <point x="439" y="741" type="move" name="top"/>
    </contour>
    <contour>
      <point x="439" y="0" type="move" name="bottom"/>
    </contour>
  </outline>
</glyph>
<glyph name="L" format="1">
  <advance width="752"/>
  <unicode hex="004C"/>
  <outline>
    <contour>
      <point x="433" y="710" type="line"/>
      <point x="433" y="642" type="line"/>
      <point x="416" y="642" type="line" smooth="yes"/>
      <point x="380" y="642"/>
      <point x="354" y="635"/>
      <point x="354" y="606" type="curve" smooth="yes"/>
      <point x="354" y="79" type="line"/>
      <point x="461" y="79" type="line" smooth="yes"/>
      <point x="565" y="79"/>
      <point x="592" y="86"/>
      <point x="598" y="132" type="curve" smooth="yes"/>
      <point x="608" y="235" type="line"/>
      <point x="720" y="235" type="line"/>
      <point x="720" y="0" type="line"/>
      <point x="36" y="0" type="line"/>
      <point x="36" y="68" type="line"/>
      <point x="48" y="68" type="line" smooth="yes"/>
      <point x="82" y="68"/>
      <point x="105" y="75"/>
      <point x="105" y="104" type="curve" smooth="yes"/>
      <point x="105" y="606" type="line" smooth="yes"/>
      <point x="105" y="635"/>
      <point x="82" y="642"/>
      <point x="48" y="642" type="curve" smooth="yes"/>
      <point x="36" y="642" type="line"/>
      <point x="36" y="710" type="line"/>
    </contour>
    <contour>
      <point x="443" y="741" type="move" name="top"/>
    </contour>
    <contour>
      <point x="551" y="710" type="move" name="right"/>
    </contour>
    <contour>
      <point x="554" y="410" type="move" name="mid"/>
    </contour>
    <contour>
      <point x="443" y="0" type="move" name="bottom"/>
    </contour>
  </outline>
</glyph>
<glyph name="M" format="1">
  <advance width="1142"/>
  <unicode hex="004D"/>
  <outline>
    <contour>
      <point x="37" y="0" type="line"/>
      <point x="279" y="0" type="line"/>
      <point x="279" y="68" type="line"/>
      <point x="272" y="68" type="line" smooth="yes"/>
      <point x="244" y="68"/>
      <point x="210" y="71"/>
      <point x="210" y="78" type="curve" smooth="yes"/>
      <point x="210" y="684" type="line"/>
      <point x="192" y="687" type="line"/>
      <point x="432" y="-2" type="line"/>
      <point x="564" y="-2" type="line"/>
      <point x="804" y="686" type="line"/>
      <point x="787" y="688" type="line"/>
      <point x="787" y="78" type="line" smooth="yes"/>
      <point x="787" y="71"/>
      <point x="757" y="68"/>
      <point x="728" y="68" type="curve" smooth="yes"/>
      <point x="719" y="68" type="line"/>
      <point x="719" y="0" type="line"/>
      <point x="1105" y="0" type="line"/>
      <point x="1105" y="68" type="line"/>
      <point x="1093" y="68" type="line" smooth="yes"/>
      <point x="1060" y="68"/>
      <point x="1036" y="75"/>
      <point x="1036" y="104" type="curve" smooth="yes"/>
      <point x="1036" y="606" type="line" smooth="yes"/>
      <point x="1036" y="635"/>
      <point x="1060" y="642"/>
      <point x="1093" y="642" type="curve" smooth="yes"/>
      <point x="1105" y="642" type="line"/>
      <point x="1105" y="710" type="line"/>
      <point x="710" y="710" type="line"/>
      <point x="552" y="244" type="line"/>
      <point x="600" y="238" type="line"/>
      <point x="445" y="710" type="line"/>
      <point x="37" y="710" type="line"/>
      <point x="37" y="642" type="line"/>
      <point x="49" y="642" type="line" smooth="yes"/>
      <point x="82" y="642"/>
      <point x="106" y="635"/>
      <point x="106" y="606" type="curve" smooth="yes"/>
      <point x="106" y="104" type="line" smooth="yes"/>
      <point x="106" y="75"/>
      <point x="82" y="68"/>
      <point x="49" y="68" type="curve"/>
      <point x="37" y="68" type="line"/>
    </contour>
    <contour>
      <point x="544" y="0" type="move" name="bottom"/>
    </contour>
  </outline>
</glyph>
<glyph name="N" format="1">
  <advance width="892"/>
  <unicode hex="004E"/>
  <outline>
    <contour>
      <point x="37" y="0" type="line"/>
      <point x="293" y="0" type="line"/>
      <point x="293" y="68" type="line"/>
      <point x="278" y="68" type="line" smooth="yes"/>
      <point x="245" y="68"/>
      <point x="210" y="76"/>
      <point x="210" y="83" type="curve" smooth="yes"/>
      <point x="210" y="662" type="line"/>
      <point x="175" y="670" type="line"/>
      <point x="542" y="0" type="line"/>
      <point x="789" y="0" type="line"/>
      <point x="789" y="604" type="line" smooth="yes"/>
      <point x="789" y="633"/>
      <point x="813" y="642"/>
      <point x="847" y="642" type="curve" smooth="yes"/>
      <point x="859" y="642" type="line"/>
      <point x="859" y="710" type="line"/>
      <point x="603" y="710" type="line"/>
      <point x="603" y="642" type="line"/>
      <point x="617" y="642" type="line" smooth="yes"/>
      <point x="651" y="642"/>
      <point x="685" y="634"/>
      <point x="685" y="627" type="curve" smooth="yes"/>
      <point x="685" y="169" type="line"/>
      <point x="720" y="153" type="line"/>
      <point x="425" y="710" type="line"/>
      <point x="37" y="710" type="line"/>
      <point x="37" y="642" type="line"/>
      <point x="49" y="642" type="line" smooth="yes"/>
      <point x="82" y="642"/>
      <point x="106" y="635"/>
      <point x="106" y="606" type="curve" smooth="yes"/>
      <point x="106" y="109" type="line" smooth="yes"/>
      <point x="106" y="80"/>
      <point x="82" y="68"/>
      <point x="49" y="68" type="curve" smooth="yes"/>
      <point x="37" y="68" type="line"/>
    </contour>
    <contour>
      <point x="478" y="741" type="move" name="top"/>
    </contour>
    <contour>
      <point x="470" y="0" type="move" name="bottom"/>
    </contour>
  </outline>
</glyph>
<glyph name="O" format="1">
  <advance width="952"/>
  <unicode hex="004F"/>
  <outline>
    <contour>
      <point x="476" y="720" type="curve" smooth="yes"/>
      <point x="216" y="720"/>
      <point x="37" y="574"/>
      <point x="37" y="355" type="curve" smooth="yes"/>
      <point x="37" y="135"/>
      <point x="216" y="-10"/>
      <point x="476" y="-10" type="curve" smooth="yes"/>
      <point x="737" y="-10"/>
      <point x="915" y="135"/>
      <point x="915" y="355" type="curve" smooth="yes"/>
      <point x="915" y="574"/>
      <point x="737" y="720"/>
    </contour>
    <contour>
      <point x="476" y="74" type="curve" smooth="yes"/>
      <point x="367" y="74"/>
      <point x="297" y="170"/>
      <point x="297" y="355" type="curve" smooth="yes"/>
      <point x="297" y="540"/>
      <point x="367" y="636"/>
      <point x="476" y="636" type="curve" smooth="yes"/>
      <point x="586" y="636"/>
      <point x="656" y="540"/>
      <point x="656" y="355" type="curve" smooth="yes"/>
      <point x="656" y="170"/>
      <point x="586" y="74"/>
    </contour>
    <contour>
      <point x="477" y="741" type="move" name="top"/>
    </contour>
    <contour>
      <point x="477" y="0" type="move" name="bottom"/>
    </contour>
  </outline>
</glyph>
<glyph name="P" format="1">
  <advance width="815"/>
  <unicode hex="0050"/>
  <outline>
    <contour>
      <point x="354" y="78" type="line" smooth="yes"/>
      <point x="354" y="71"/>
      <point x="384" y="68"/>
      <point x="409" y="68" type="curve" smooth="yes"/>
      <point x="438" y="68" type="line"/>
      <point x="438" y="0" type="line"/>
      <point x="36" y="0" type="line"/>
      <point x="36" y="68" type="line"/>
      <point x="48" y="68" type="line" smooth="yes"/>
      <point x="82" y="68"/>
      <point x="105" y="75"/>
      <point x="105" y="104" type="curve" smooth="yes"/>
      <point x="105" y="606" type="line" smooth="yes"/>
      <point x="105" y="635"/>
      <point x="82" y="642"/>
      <point x="48" y="642" type="curve" smooth="yes"/>
      <point x="36" y="642" type="line"/>
      <point x="36" y="710" type="line"/>
      <point x="481" y="710" type="line" smooth="yes"/>
      <point x="686" y="710"/>
      <point x="799" y="632"/>
      <point x="799" y="497" type="curve" smooth="yes"/>
      <point x="799" y="360"/>
      <point x="677" y="272"/>
      <point x="475" y="272" type="curve" smooth="yes"/>
      <point x="327" y="272" type="line"/>
      <point x="327" y="351" type="line"/>
      <point x="419" y="351" type="line" smooth="yes"/>
      <point x="504" y="351"/>
      <point x="553" y="401"/>
      <point x="553" y="494" type="curve" smooth="yes"/>
      <point x="553" y="586"/>
      <point x="506" y="630"/>
      <point x="423" y="630" type="curve" smooth="yes"/>
      <point x="354" y="630" type="line"/>
    </contour>
  </outline>
</glyph>
<glyph name="Q" format="1">
  <advance width="952"/>
  <unicode hex="0051"/>
  <outline>
    <contour>
      <point x="419" y="3" type="line"/>
      <point x="414" y="-157"/>
      <point x="512" y="-216"/>
      <point x="696" y="-216" type="curve" smooth="yes"/>
      <point x="759" y="-216"/>
      <point x="822" y="-206"/>
      <point x="863" y="-189" type="curve"/>
      <point x="863" y="-43" type="line"/>
      <point x="824" y="-58"/>
      <point x="749" y="-75"/>
      <point x="683" y="-75" type="curve" smooth="yes"/>
      <point x="588" y="-75"/>
      <point x="532" y="-58"/>
      <point x="537" y="10" type="curve"/>
    </contour>
    <contour>
      <point x="476" y="720" type="curve" smooth="yes"/>
      <point x="216" y="720"/>
      <point x="37" y="574"/>
      <point x="37" y="355" type="curve" smooth="yes"/>
      <point x="37" y="135"/>
      <point x="216" y="-10"/>
      <point x="476" y="-10" type="curve" smooth="yes"/>
      <point x="737" y="-10"/>
      <point x="915" y="135"/>
      <point x="915" y="355" type="curve" smooth="yes"/>
      <point x="915" y="574"/>
      <point x="737" y="720"/>
    </contour>
    <contour>
      <point x="476" y="74" type="curve" smooth="yes"/>
      <point x="367" y="74"/>
      <point x="297" y="170"/>
      <point x="297" y="355" type="curve" smooth="yes"/>
      <point x="297" y="540"/>
      <point x="367" y="636"/>
      <point x="476" y="636" type="curve" smooth="yes"/>
      <point x="586" y="636"/>
      <point x="656" y="540"/>
      <point x="656" y="355" type="curve" smooth="yes"/>
      <point x="656" y="170"/>
      <point x="586" y="74"/>
    </contour>
  </outline>
</glyph>
<glyph name="R" format="1">
  <advance width="882"/>
  <unicode hex="0052"/>
  <outline>
    <contour>
      <point x="419" y="320" type="line"/>
      <point x="661" y="340" type="line"/>
      <point x="800" y="96" type="line" smooth="yes"/>
      <point x="812" y="74"/>
      <point x="829" y="68"/>
      <point x="850" y="68" type="curve" smooth="yes"/>
      <point x="861" y="68" type="line"/>
      <point x="861" y="0" type="line"/>
      <point x="581" y="0" type="line"/>
    </contour>
    <contour>
      <point x="36" y="0" type="line"/>
      <point x="36" y="68" type="line"/>
      <point x="48" y="68" type="line" smooth="yes"/>
      <point x="82" y="68"/>
      <point x="105" y="75"/>
      <point x="105" y="104" type="curve" smooth="yes"/>
      <point x="105" y="606" type="line" smooth="yes"/>
      <point x="105" y="635"/>
      <point x="82" y="642"/>
      <point x="48" y="642" type="curve" smooth="yes"/>
      <point x="36" y="642" type="line"/>
      <point x="36" y="710" type="line"/>
      <point x="485" y="710" type="line" smooth="yes"/>
      <point x="692" y="710"/>
      <point x="803" y="631"/>
      <point x="803" y="505" type="curve" smooth="yes"/>
      <point x="803" y="389"/>
      <point x="692" y="303"/>
      <point x="488" y="294" type="curve" smooth="yes"/>
      <point x="479" y="291"/>
      <point x="469" y="289"/>
      <point x="455" y="289" type="curve" smooth="yes"/>
      <point x="331" y="289" type="line"/>
      <point x="331" y="366" type="line"/>
      <point x="415" y="366" type="line" smooth="yes"/>
      <point x="502" y="366"/>
      <point x="548" y="418"/>
      <point x="548" y="505" type="curve" smooth="yes"/>
      <point x="548" y="588"/>
      <point x="503" y="632"/>
      <point x="423" y="632" type="curve" smooth="yes"/>
      <point x="354" y="632" type="line"/>
      <point x="354" y="78" type="line" smooth="yes"/>
      <point x="354" y="71"/>
      <point x="381" y="68"/>
      <point x="405" y="68" type="curve" smooth="yes"/>
      <point x="417" y="68" type="line"/>
      <point x="417" y="0" type="line"/>
    </contour>
    <contour>
      <point x="454" y="741" type="move" name="top"/>
    </contour>
    <contour>
      <point x="454" y="0" type="move" name="bottom"/>
    </contour>
  </outline>
</glyph>
<glyph name="S" format="1">
  <advance width="740"/>
  <unicode hex="0053"/>
  <outline>
    <contour>
      <point x="388" y="73" type="curve" smooth="yes"/>
      <point x="288" y="73"/>
      <point x="188" y="131"/>
      <point x="146" y="229" type="curve"/>
      <point x="33" y="229" type="line"/>
      <point x="33" y="0" type="line"/>
      <point x="125" y="0" type="line"/>
      <point x="151" y="168" type="line"/>
      <point x="145" y="172"/>
      <point x="118" y="186"/>
      <point x="85" y="179" type="curve"/>
      <point x="142" y="38"/>
      <point x="269" y="-10"/>
      <point x="410" y="-10" type="curve" smooth="yes"/>
      <point x="605" y="-10"/>
      <point x="718" y="85"/>
      <point x="718" y="226" type="curve" smooth="yes"/>
      <point x="718" y="375"/>
      <point x="596" y="418"/>
      <point x="454" y="455" type="curve" smooth="yes"/>
      <point x="334" y="487"/>
      <point x="259" y="494"/>
      <point x="259" y="560" type="curve" smooth="yes"/>
      <point x="259" y="610"/>
      <point x="296" y="638"/>
      <point x="368" y="638" type="curve" smooth="yes"/>
      <point x="455" y="638"/>
      <point x="530" y="594"/>
      <point x="559" y="516" type="curve"/>
      <point x="663" y="516" type="line"/>
      <point x="663" y="710" type="line"/>
      <point x="577" y="710" type="line"/>
      <point x="549" y="567" type="line"/>
      <point x="572" y="560"/>
      <point x="591" y="554"/>
      <point x="613" y="557" type="curve"/>
      <point x="564" y="680"/>
      <point x="474" y="720"/>
      <point x="332" y="720" type="curve" smooth="yes"/>
      <point x="169" y="720"/>
      <point x="53" y="645"/>
      <point x="53" y="511" type="curve" smooth="yes"/>
      <point x="53" y="365"/>
      <point x="171" y="311"/>
      <point x="311" y="272" type="curve" smooth="yes"/>
      <point x="438" y="236"/>
      <point x="507" y="223"/>
      <point x="507" y="158" type="curve" smooth="yes"/>
      <point x="507" y="100"/>
      <point x="465" y="73"/>
    </contour>
    <contour>
      <point x="406" y="741" type="move" name="top"/>
    </contour>
    <contour>
      <point x="408" y="0" type="move" name="bottom"/>
    </contour>
  </outline>
</glyph>
<glyph name="T" format="1">
  <advance width="864"/>
  <unicode hex="0054"/>
  <outline>
    <contour>
      <point x="307" y="104" type="line" smooth="yes"/>
      <point x="307" y="75"/>
      <point x="281" y="68"/>
      <point x="243" y="68" type="curve" smooth="yes"/>
      <point x="226" y="68" type="line"/>
      <point x="226" y="0" type="line"/>
      <point x="638" y="0" type="line"/>
      <point x="638" y="68" type="line"/>
      <point x="621" y="68" type="line" smooth="yes"/>
      <point x="583" y="68"/>
      <point x="556" y="75"/>
      <point x="556" y="104" type="curve" smooth="yes"/>
      <point x="556" y="631" type="line"/>
      <point x="587" y="631" type="line" smooth="yes"/>
      <point x="685" y="631"/>
      <point x="709" y="624"/>
      <point x="714" y="578" type="curve" smooth="yes"/>
      <point x="723" y="480" type="line"/>
      <point x="833" y="480" type="line"/>
      <point x="833" y="710" type="line"/>
      <point x="31" y="710" type="line"/>
      <point x="31" y="480" type="line"/>
      <point x="141" y="480" type="line"/>
      <point x="151" y="578" type="line" smooth="yes"/>
      <point x="155" y="625"/>
      <point x="179" y="631"/>
      <point x="277" y="631" type="curve" smooth="yes"/>
      <point x="307" y="631" type="line"/>
    </contour>
    <contour>
      <point x="398" y="741" type="move" name="top"/>
    </contour>
    <contour>
      <point x="399" y="0" type="move" name="bottom"/>
    </contour>
  </outline>
</glyph>
<glyph name="U" format="1">
  <advance width="890"/>
  <unicode hex="0055"/>
  <outline>
    <contour>
      <point x="352" y="261" type="curve" smooth="yes"/>
      <point x="352" y="632" type="line" smooth="yes"/>
      <point x="352" y="639"/>
      <point x="386" y="642"/>
      <point x="412" y="642" type="curve" smooth="yes"/>
      <point x="423" y="642" type="line"/>
      <point x="423" y="710" type="line"/>
      <point x="34" y="710" type="line"/>
      <point x="34" y="642" type="line"/>
      <point x="46" y="642" type="line" smooth="yes"/>
      <point x="79" y="642"/>
      <point x="103" y="635"/>
      <point x="103" y="606" type="curve" smooth="yes"/>
      <point x="103" y="261" type="line" smooth="yes"/>
      <point x="103" y="70"/>
      <point x="244" y="-10"/>
      <point x="461" y="-10" type="curve" smooth="yes"/>
      <point x="652" y="-10"/>
      <point x="786" y="68"/>
      <point x="786" y="261" type="curve" smooth="yes"/>
      <point x="786" y="602" type="line" smooth="yes"/>
      <point x="786" y="633"/>
      <point x="811" y="642"/>
      <point x="844" y="642" type="curve" smooth="yes"/>
      <point x="857" y="642" type="line"/>
      <point x="857" y="710" type="line"/>
      <point x="613" y="710" type="line"/>
      <point x="613" y="642" type="line"/>
      <point x="623" y="642" type="line" smooth="yes"/>
      <point x="649" y="642"/>
      <point x="683" y="635"/>
      <point x="683" y="621" type="curve" smooth="yes"/>
      <point x="683" y="261" type="line" smooth="yes"/>
      <point x="683" y="134"/>
      <point x="617" y="85"/>
      <point x="518" y="85" type="curve" smooth="yes"/>
      <point x="408" y="85"/>
      <point x="352" y="130"/>
    </contour>
    <contour>
      <point x="477" y="741" type="move" name="top"/>
    </contour>
    <contour>
      <point x="542" y="0" type="move" name="right"/>
    </contour>
    <contour>
      <point x="477" y="0" type="move" name="bottom"/>
    </contour>
  </outline>
</glyph>
<glyph name="V" format="1">
  <advance width="852"/>
  <unicode hex="0056"/>
  <outline>
    <contour>
      <point x="536" y="60" type="line"/>
      <point x="331" y="632" type="line"/>
      <point x="331" y="639"/>
      <point x="360" y="642"/>
      <point x="386" y="642" type="curve" smooth="yes"/>
      <point x="405" y="642" type="line"/>
      <point x="405" y="710" type="line"/>
      <point x="12" y="710" type="line"/>
      <point x="12" y="642" type="line"/>
      <point x="21" y="642" type="line"/>
      <point x="47" y="642"/>
      <point x="65" y="636"/>
      <point x="74" y="614" type="curve" smooth="yes"/>
      <point x="306" y="0" type="line"/>
      <point x="550" y="0" type="line"/>
      <point x="775" y="599" type="line" smooth="yes"/>
      <point x="788" y="633"/>
      <point x="802" y="642"/>
      <point x="835" y="642" type="curve"/>
      <point x="840" y="642" type="line"/>
      <point x="840" y="710" type="line"/>
      <point x="605" y="710" type="line"/>
      <point x="605" y="642" type="line"/>
      <point x="621" y="642" type="line" smooth="yes"/>
      <point x="648" y="642"/>
      <point x="679" y="635"/>
      <point x="679" y="624" type="curve"/>
      <point x="488" y="102" type="line"/>
    </contour>
  </outline>
</glyph>
<glyph name="W" format="1">
  <advance width="1204"/>
  <unicode hex="0057"/>
  <outline>
    <contour>
      <point x="12" y="710" type="line"/>
      <point x="12" y="642" type="line"/>
      <point x="20" y="642" type="line" smooth="yes"/>
      <point x="49" y="642"/>
      <point x="69" y="637"/>
      <point x="75" y="610" type="curve" smooth="yes"/>
      <point x="229" y="0" type="line"/>
      <point x="477" y="0" type="line"/>
      <point x="625" y="581" type="line"/>
      <point x="590" y="581" type="line"/>
      <point x="740" y="0" type="line"/>
      <point x="983" y="0" type="line"/>
      <point x="1129" y="599" type="line" smooth="yes"/>
      <point x="1137" y="632"/>
      <point x="1156" y="642"/>
      <point x="1185" y="642" type="curve" smooth="yes"/>
      <point x="1192" y="642" type="line"/>
      <point x="1192" y="710" type="line"/>
      <point x="963" y="710" type="line"/>
      <point x="963" y="642" type="line"/>
      <point x="981" y="642" type="line" smooth="yes"/>
      <point x="1005" y="642"/>
      <point x="1033" y="635"/>
      <point x="1033" y="624" type="curve"/>
      <point x="922" y="132" type="line"/>
      <point x="942" y="133" type="line"/>
      <point x="796" y="710" type="line"/>
      <point x="568" y="710" type="line"/>
      <point x="416" y="127" type="line"/>
      <point x="442" y="128" type="line"/>
      <point x="329" y="632" type="line"/>
      <point x="329" y="639"/>
      <point x="356" y="642"/>
      <point x="380" y="642" type="curve" smooth="yes"/>
      <point x="397" y="642" type="line"/>
      <point x="397" y="710" type="line"/>
    </contour>
    <contour>
      <point x="625" y="741" type="move" name="top"/>
    </contour>
  </outline>
</glyph>
<glyph name="X" format="1">
  <advance width="863"/>
  <unicode hex="0058"/>
  <outline>
    <contour>
      <point x="25" y="642" type="line"/>
      <point x="30" y="642" type="line" smooth="yes"/>
      <point x="61" y="642"/>
      <point x="73" y="637"/>
      <point x="95" y="610" type="curve" smooth="yes"/>
      <point x="317" y="321" type="line"/>
      <point x="324" y="317" type="line"/>
      <point x="506" y="78" type="line"/>
      <point x="506" y="71"/>
      <point x="478" y="68"/>
      <point x="454" y="68" type="curve" smooth="yes"/>
      <point x="437" y="68" type="line"/>
      <point x="437" y="0" type="line"/>
      <point x="847" y="0" type="line"/>
      <point x="847" y="68" type="line"/>
      <point x="837" y="68" type="line" smooth="yes"/>
      <point x="810" y="68"/>
      <point x="796" y="74"/>
      <point x="774" y="102" type="curve" smooth="yes"/>
      <point x="535" y="404" type="line"/>
      <point x="528" y="407" type="line"/>
      <point x="361" y="632" type="line"/>
      <point x="361" y="639"/>
      <point x="389" y="642"/>
      <point x="412" y="642" type="curve" smooth="yes"/>
      <point x="431" y="642" type="line"/>
      <point x="431" y="710" type="line"/>
      <point x="25" y="710" type="line"/>
    </contour>
    <contour>
      <point x="16" y="0" type="line"/>
      <point x="266" y="0" type="line"/>
      <point x="266" y="68" type="line"/>
      <point x="250" y="68" type="line" smooth="yes"/>
      <point x="223" y="68"/>
      <point x="191" y="75"/>
      <point x="191" y="86" type="curve"/>
      <point x="398" y="346" type="line"/>
      <point x="325" y="390" type="line"/>
      <point x="101" y="114" type="line" smooth="yes"/>
      <point x="73" y="80"/>
      <point x="54" y="68"/>
      <point x="25" y="68" type="curve" smooth="yes"/>
      <point x="16" y="68" type="line"/>
    </contour>
    <contour>
      <point x="541" y="336" type="line"/>
      <point x="738" y="597" type="line" smooth="yes"/>
      <point x="764" y="631"/>
      <point x="783" y="642"/>
      <point x="816" y="642" type="curve" smooth="yes"/>
      <point x="821" y="642" type="line"/>
      <point x="821" y="710" type="line"/>
      <point x="579" y="710" type="line"/>
      <point x="579" y="642" type="line"/>
      <point x="594" y="642" type="line" smooth="yes"/>
      <point x="620" y="642"/>
      <point x="651" y="635"/>
      <point x="651" y="624" type="curve"/>
      <point x="484" y="402" type="line"/>
    </contour>
  </outline>
</glyph>
<glyph name="Y" format="1">
  <advance width="827"/>
  <unicode hex="0059"/>
  <outline>
    <contour>
      <point x="291" y="322" type="line"/>
      <point x="291" y="104" type="line" smooth="yes"/>
      <point x="291" y="75"/>
      <point x="265" y="68"/>
      <point x="231" y="68" type="curve" smooth="yes"/>
      <point x="214" y="68" type="line"/>
      <point x="214" y="0" type="line"/>
      <point x="617" y="0" type="line"/>
      <point x="617" y="68" type="line"/>
      <point x="600" y="68" type="line" smooth="yes"/>
      <point x="566" y="68"/>
      <point x="540" y="75"/>
      <point x="540" y="104" type="curve" smooth="yes"/>
      <point x="540" y="322" type="line"/>
      <point x="527" y="275" type="line"/>
      <point x="739" y="601" type="line" smooth="yes"/>
      <point x="761" y="635"/>
      <point x="781" y="642"/>
      <point x="809" y="642" type="curve" smooth="yes"/>
      <point x="814" y="642" type="line"/>
      <point x="814" y="710" type="line"/>
      <point x="572" y="710" type="line"/>
      <point x="572" y="642" type="line"/>
      <point x="586" y="642" type="line" smooth="yes"/>
      <point x="616" y="642"/>
      <point x="646" y="635"/>
      <point x="646" y="624" type="curve"/>
      <point x="458" y="328" type="line"/>
      <point x="517" y="342" type="line"/>
      <point x="331" y="631" type="line"/>
      <point x="331" y="639"/>
      <point x="355" y="642"/>
      <point x="381" y="642" type="curve" smooth="yes"/>
      <point x="400" y="642" type="line"/>
      <point x="400" y="710" type="line"/>
      <point x="13" y="710" type="line"/>
      <point x="13" y="642" type="line"/>
      <point x="18" y="642" type="line" smooth="yes"/>
      <point x="44" y="642"/>
      <point x="61" y="639"/>
      <point x="77" y="616" type="curve" smooth="yes"/>
      <point x="305" y="277" type="line"/>
    </contour>
    <contour>
      <point x="410" y="741" type="move" name="top"/>
    </contour>
    <contour>
      <point x="410" y="0" type="move" name="bottom"/>
    </contour>
  </outline>
</glyph>
<glyph name="Z" format="1">
  <advance width="755"/>
  <unicode hex="005A"/>
  <outline>
    <contour>
      <point x="178" y="80" type="line"/>
      <point x="233" y="18" type="line"/>
      <point x="712" y="614" type="line"/>
      <point x="712" y="710" type="line"/>
      <point x="51" y="710" type="line"/>
      <point x="51" y="504" type="line"/>
      <point x="160" y="504" type="line"/>
      <point x="167" y="581" type="line" smooth="yes"/>
      <point x="171" y="624"/>
      <point x="208" y="630"/>
      <point x="284" y="630" type="curve" smooth="yes"/>
      <point x="541" y="630" type="line"/>
      <point x="498" y="686" type="line"/>
      <point x="28" y="99" type="line"/>
      <point x="28" y="0" type="line"/>
      <point x="727" y="0" type="line"/>
      <point x="727" y="228" type="line"/>
      <point x="618" y="228" type="line"/>
      <point x="604" y="127" type="line" smooth="yes"/>
      <point x="599" y="86"/>
      <point x="569" y="80"/>
      <point x="470" y="80" type="curve" smooth="yes"/>
    </contour>
    <contour>
      <point x="389" y="741" type="move" name="top"/>
    </contour>
    <contour>
      <point x="389" y="0" type="move" name="bottom"/>
    </contour>
  </outline>
</glyph>
<glyph name="bracketleft" format="1">
  <advance width="398"/>
  <unicode hex="005B"/>
  <outline>
    <contour>
      <point x="50" y="750" type="line"/>
      <point x="50" y="-130" type="line"/>
      <point x="235" y="-130" type="line"/>
      <point x="235" y="750" type="line"/>
    </contour>
    <contour>
      <point x="372" y="750" type="line"/>
      <point x="96" y="750" type="line"/>
      <point x="96" y="669" type="line"/>
      <point x="372" y="669" type="line"/>
    </contour>
    <contour>
      <point x="372" y="-49" type="line"/>
      <point x="96" y="-49" type="line"/>
      <point x="96" y="-130" type="line"/>
      <point x="372" y="-130" type="line"/>
    </contour>
  </outline>
</glyph>
<glyph name="asciicircum" format="1">
  <advance width="595"/>
  <unicode hex="005E"/>
  <outline>
    <contour>
      <point x="193" y="355" type="line"/>
      <point x="333" y="685" type="line"/>
      <point x="337" y="710" type="line"/>
      <point x="206" y="710" type="line"/>
      <point x="31" y="355" type="line"/>
    </contour>
    <contour>
      <point x="398" y="355" type="line"/>
      <point x="564" y="355" type="line"/>
      <point x="389" y="710" type="line"/>
      <point x="255" y="710" type="line"/>
      <point x="256" y="686" type="line"/>
    </contour>
  </outline>
</glyph>
<glyph name="underscore" format="1">
  <advance width="568"/>
  <unicode hex="005F"/>
  <outline>
    <contour>
      <point x="-6" y="-77" type="line"/>
      <point x="-6" y="-164" type="line"/>
      <point x="573" y="-164" type="line"/>
      <point x="573" y="-77" type="line"/>
    </contour>
  </outline>
</glyph>
<glyph name="a" format="1">
  <advance width="698"/>
  <unicode hex="0061"/>
  <outline>
    <contour>
      <point x="424" y="314" type="line"/>
      <point x="138" y="292"/>
      <point x="30" y="239"/>
      <point x="30" y="125" type="curve" smooth="yes"/>
      <point x="30" y="36"/>
      <point x="108" y="-10"/>
      <point x="215" y="-10" type="curve" smooth="yes"/>
      <point x="321" y="-10"/>
      <point x="388" y="30"/>
      <point x="423" y="87" type="curve"/>
      <point x="423" y="176" type="line"/>
      <point x="398" y="114"/>
      <point x="360" y="76"/>
      <point x="308" y="76" type="curve" smooth="yes"/>
      <point x="271" y="76"/>
      <point x="247" y="95"/>
      <point x="247" y="140" type="curve" smooth="yes"/>
      <point x="247" y="200"/>
      <point x="293" y="239"/>
      <point x="424" y="249" type="curve"/>
    </contour>
    <contour>
      <point x="413" y="0" type="line"/>
      <point x="679" y="0" type="line"/>
      <point x="679" y="66" type="line"/>
      <point x="672" y="68" type="line"/>
      <point x="644" y="71"/>
      <point x="629" y="76"/>
      <point x="629" y="97" type="curve" smooth="yes"/>
      <point x="629" y="332" type="line" smooth="yes"/>
      <point x="629" y="470"/>
      <point x="521" y="522"/>
      <point x="346" y="522" type="curve" smooth="yes"/>
      <point x="195" y="522"/>
      <point x="106" y="477"/>
      <point x="71" y="454" type="curve"/>
      <point x="71" y="346" type="line"/>
      <point x="251" y="346" type="line"/>
      <point x="251" y="449" type="line"/>
      <point x="202" y="442"/>
      <point x="183" y="415"/>
      <point x="216" y="389" type="curve"/>
      <point x="235" y="419"/>
      <point x="273" y="444"/>
      <point x="323" y="444" type="curve" smooth="yes"/>
      <point x="373" y="444"/>
      <point x="399" y="424"/>
      <point x="399" y="370" type="curve" smooth="yes"/>
      <point x="399" y="99" type="line"/>
      <point x="413" y="100" type="line"/>
    </contour>
    <contour>
      <point x="294" y="553" type="move" name="top"/>
    </contour>
    <contour>
      <point x="478" y="-10" type="move" name="right"/>
    </contour>
    <contour>
      <point x="328" y="0" type="move" name="bottom"/>
    </contour>
  </outline>
</glyph>
<glyph name="b" format="1">
  <advance width="791"/>
  <unicode hex="0062"/>
  <outline>
    <contour>
      <point x="757" y="261" type="curve" smooth="yes"/>
      <point x="757" y="420"/>
      <point x="656" y="522"/>
      <point x="503" y="522" type="curve" smooth="yes"/>
      <point x="398" y="522"/>
      <point x="324" y="477"/>
      <point x="266" y="383" type="curve"/>
      <point x="266" y="278" type="line"/>
      <point x="320" y="381"/>
      <point x="364" y="429"/>
      <point x="423" y="429" type="curve" smooth="yes"/>
      <point x="485" y="429"/>
      <point x="515" y="378"/>
      <point x="515" y="261" type="curve" smooth="yes"/>
      <point x="515" y="145"/>
      <point x="483" y="82"/>
      <point x="412" y="82" type="curve" smooth="yes"/>
      <point x="347" y="82"/>
      <point x="313" y="133"/>
      <point x="266" y="223" type="curve"/>
      <point x="266" y="94" type="line"/>
      <point x="311" y="28"/>
      <point x="378" y="-10"/>
      <point x="480" y="-10" type="curve" smooth="yes"/>
      <point x="643" y="-10"/>
      <point x="757" y="102"/>
    </contour>
    <contour>
      <point x="75" y="634" type="curve" smooth="yes"/>
      <point x="75" y="-1" type="line"/>
      <point x="214" y="-1" type="line"/>
      <point x="282" y="106" type="line"/>
      <point x="310" y="114" type="line"/>
      <point x="310" y="735" type="line"/>
      <point x="23" y="735" type="line"/>
      <point x="23" y="668" type="line"/>
      <point x="33" y="666" type="line" smooth="yes"/>
      <point x="63" y="660"/>
      <point x="75" y="655"/>
    </contour>
  </outline>
</glyph>
<glyph name="c" format="1">
  <advance width="674"/>
  <unicode hex="0063"/>
  <outline>
    <contour>
      <point x="423" y="72" type="curve" smooth="yes"/>
      <point x="328" y="72"/>
      <point x="274" y="134"/>
      <point x="274" y="255" type="curve" smooth="yes"/>
      <point x="274" y="377"/>
      <point x="315" y="441"/>
      <point x="396" y="441" type="curve" smooth="yes"/>
      <point x="438" y="441"/>
      <point x="469" y="424"/>
      <point x="487" y="397" type="curve"/>
      <point x="511" y="414"/>
      <point x="504" y="451"/>
      <point x="459" y="453" type="curve"/>
      <point x="459" y="327" type="line"/>
      <point x="634" y="327" type="line"/>
      <point x="634" y="462" type="line"/>
      <point x="605" y="482"/>
      <point x="521" y="522"/>
      <point x="387" y="522" type="curve" smooth="yes"/>
      <point x="168" y="522"/>
      <point x="33" y="420"/>
      <point x="33" y="255" type="curve" smooth="yes"/>
      <point x="33" y="88"/>
      <point x="173" y="-10"/>
      <point x="373" y="-10" type="curve" smooth="yes"/>
      <point x="517" y="-10"/>
      <point x="595" y="49"/>
      <point x="647" y="128" type="curve"/>
      <point x="579" y="175" type="line"/>
      <point x="549" y="131"/>
      <point x="502" y="72"/>
    </contour>
    <contour>
      <point x="350" y="551" type="move" name="top"/>
    </contour>
    <contour>
      <point x="362" y="0" type="move" name="bottom"/>
    </contour>
  </outline>
</glyph>
<glyph name="d" format="1">
  <advance width="789"/>
  <unicode hex="0064"/>
  <outline>
    <contour>
      <point x="496" y="0" type="line"/>
      <point x="768" y="0" type="line"/>
      <point x="768" y="66" type="line"/>
      <point x="762" y="68" type="line"/>
      <point x="733" y="71"/>
      <point x="717" y="76"/>
      <point x="717" y="97" type="curve" smooth="yes"/>
      <point x="717" y="735" type="line"/>
      <point x="426" y="735" type="line"/>
      <point x="426" y="668" type="line"/>
      <point x="436" y="666" type="line" smooth="yes"/>
      <point x="466" y="661"/>
      <point x="482" y="655"/>
      <point x="482" y="634" type="curve" smooth="yes"/>
      <point x="482" y="110" type="line"/>
      <point x="496" y="118" type="line"/>
    </contour>
    <contour>
      <point x="301" y="-10" type="curve" smooth="yes"/>
      <point x="413" y="-10"/>
      <point x="479" y="45"/>
      <point x="528" y="136" type="curve"/>
      <point x="528" y="241" type="line"/>
      <point x="470" y="124"/>
      <point x="434" y="82"/>
      <point x="376" y="82" type="curve" smooth="yes"/>
      <point x="308" y="82"/>
      <point x="276" y="143"/>
      <point x="276" y="250" type="curve" smooth="yes"/>
      <point x="276" y="359"/>
      <point x="309" y="429"/>
      <point x="384" y="429" type="curve" smooth="yes"/>
      <point x="441" y="429"/>
      <point x="478" y="391"/>
      <point x="528" y="297" type="curve"/>
      <point x="528" y="399" type="line"/>
      <point x="488" y="478"/>
      <point x="420" y="522"/>
      <point x="313" y="522" type="curve" smooth="yes"/>
      <point x="149" y="522"/>
      <point x="35" y="410"/>
      <point x="35" y="250" type="curve" smooth="yes"/>
      <point x="35" y="94"/>
      <point x="137" y="-10"/>
    </contour>
    <contour>
      <point x="716" y="720" type="move" name="right"/>
    </contour>
    <contour>
      <point x="353" y="0" type="move" name="bottom"/>
    </contour>
  </outline>
</glyph>
<glyph name="e" format="1">
  <advance width="696"/>
  <unicode hex="0065"/>
  <outline>
    <contour>
      <point x="380" y="-10" type="curve" smooth="yes"/>
      <point x="515" y="-10"/>
      <point x="602" y="41"/>
      <point x="655" y="117" type="curve"/>
      <point x="588" y="169" type="line"/>
      <point x="550" y="117"/>
      <point x="500" y="73"/>
      <point x="421" y="73" type="curve" smooth="yes"/>
      <point x="316" y="73"/>
      <point x="269" y="127"/>
      <point x="269" y="254" type="curve" smooth="yes"/>
      <point x="269" y="395"/>
      <point x="306" y="441"/>
      <point x="363" y="441" type="curve" smooth="yes"/>
      <point x="421" y="441"/>
      <point x="453" y="400"/>
      <point x="452" y="270" type="curve"/>
      <point x="477" y="299" type="line"/>
      <point x="248" y="299" type="line"/>
      <point x="248" y="226" type="line"/>
      <point x="668" y="226" type="line"/>
      <point x="667" y="424"/>
      <point x="557" y="522"/>
      <point x="358" y="522" type="curve" smooth="yes"/>
      <point x="166" y="522"/>
      <point x="33" y="414"/>
      <point x="33" y="254" type="curve" smooth="yes"/>
      <point x="33" y="88"/>
      <point x="164" y="-10"/>
    </contour>
    <contour>
      <point x="329" y="551" type="move" name="top"/>
    </contour>
    <contour>
      <point x="511" y="1" type="move" name="right"/>
    </contour>
    <contour>
      <point x="354" y="0" type="move" name="bottom"/>
    </contour>
  </outline>
</glyph>
<glyph name="f" format="1">
  <advance width="506"/>
  <unicode hex="0066"/>
  <outline>
    <contour>
      <point x="16" y="512" type="line"/>
      <point x="16" y="438" type="line"/>
      <point x="492" y="438" type="line"/>
      <point x="492" y="512" type="line"/>
    </contour>
    <contour>
      <point x="534" y="737" type="line"/>
      <point x="515" y="743"/>
      <point x="463" y="749"/>
      <point x="405" y="749" type="curve" smooth="yes"/>
      <point x="241" y="749"/>
      <point x="105" y="701"/>
      <point x="105" y="556" type="curve" smooth="yes"/>
      <point x="105" y="96" type="line" smooth="yes"/>
      <point x="105" y="73"/>
      <point x="84" y="64"/>
      <point x="45" y="64" type="curve" smooth="yes"/>
      <point x="32" y="64" type="line"/>
      <point x="32" y="0" type="line"/>
      <point x="433" y="0" type="line"/>
      <point x="433" y="64" type="line"/>
      <point x="420" y="64" type="line" smooth="yes"/>
      <point x="380" y="64"/>
      <point x="341" y="66"/>
      <point x="341" y="72" type="curve" smooth="yes"/>
      <point x="341" y="571" type="line" smooth="yes"/>
      <point x="341" y="646"/>
      <point x="378" y="671"/>
      <point x="442" y="671" type="curve" smooth="yes"/>
      <point x="483" y="671"/>
      <point x="518" y="661"/>
      <point x="534" y="656" type="curve"/>
    </contour>
  </outline>
</glyph>
<glyph name="g" format="1">
  <advance width="732"/>
  <unicode hex="0067"/>
  <outline>
    <contour>
      <point x="340" y="235" type="curve" smooth="yes"/>
      <point x="295" y="235"/>
      <point x="269" y="266"/>
      <point x="269" y="339" type="curve" smooth="yes"/>
      <point x="269" y="414"/>
      <point x="295" y="448"/>
      <point x="340" y="448" type="curve" smooth="yes"/>
      <point x="386" y="448"/>
      <point x="411" y="414"/>
      <point x="411" y="339" type="curve" smooth="yes"/>
      <point x="411" y="266"/>
      <point x="386" y="235"/>
    </contour>
    <contour>
      <point x="340" y="164" type="curve" smooth="yes"/>
      <point x="511" y="164"/>
      <point x="627" y="230"/>
      <point x="627" y="341" type="curve" smooth="yes"/>
      <point x="627" y="452"/>
      <point x="511" y="522"/>
      <point x="340" y="522" type="curve" smooth="yes"/>
      <point x="169" y="522"/>
      <point x="55" y="452"/>
      <point x="55" y="341" type="curve" smooth="yes"/>
      <point x="55" y="230"/>
      <point x="167" y="164"/>
    </contour>
    <contour>
      <point x="538" y="408" type="line"/>
      <point x="577" y="424"/>
      <point x="640" y="420"/>
      <point x="725" y="407" type="curve"/>
      <point x="725" y="532" type="line"/>
      <point x="624" y="543"/>
      <point x="562" y="495"/>
      <point x="513" y="414" type="curve"/>
    </contour>
    <contour>
      <point x="361" y="-236" type="line" smooth="yes"/>
      <point x="563" y="-236"/>
      <point x="711" y="-172"/>
      <point x="711" y="-46" type="curve" smooth="yes"/>
      <point x="711" y="47"/>
      <point x="628" y="97"/>
      <point x="499" y="97" type="curve" smooth="yes"/>
      <point x="258" y="97" type="line" smooth="yes"/>
      <point x="219" y="97"/>
      <point x="202" y="106"/>
      <point x="202" y="128" type="curve" smooth="yes"/>
      <point x="202" y="150"/>
      <point x="229" y="169"/>
      <point x="284" y="184" type="curve"/>
      <point x="216" y="210" type="line"/>
      <point x="97" y="183"/>
      <point x="35" y="132"/>
      <point x="35" y="70" type="curve" smooth="yes"/>
      <point x="35" y="12"/>
      <point x="88" y="-34"/>
      <point x="156" y="-51" type="curve"/>
      <point x="159" y="-65" type="line"/>
      <point x="462" y="-65" type="line" smooth="yes"/>
      <point x="505" y="-65"/>
      <point x="521" y="-78"/>
      <point x="521" y="-100" type="curve" smooth="yes"/>
      <point x="521" y="-137"/>
      <point x="470" y="-163"/>
      <point x="361" y="-163" type="curve" smooth="yes"/>
      <point x="305" y="-163" type="line" smooth="yes"/>
      <point x="206" y="-163"/>
      <point x="167" y="-144"/>
      <point x="167" y="-107" type="curve" smooth="yes"/>
      <point x="167" y="-81"/>
      <point x="184" y="-62"/>
      <point x="230" y="-45" type="curve"/>
      <point x="183" y="-15" type="line"/>
      <point x="48" y="-39"/>
      <point x="-5" y="-72"/>
      <point x="-5" y="-124" type="curve" smooth="yes"/>
      <point x="-5" y="-206"/>
      <point x="98" y="-236"/>
      <point x="282" y="-236" type="curve" smooth="yes"/>
    </contour>
    <contour>
      <point x="340" y="545" type="move" name="top"/>
    </contour>
  </outline>
</glyph>
<glyph name="h" format="1">
  <advance width="789"/>
  <unicode hex="0068"/>
  <outline>
    <contour>
      <point x="317" y="735" type="line"/>
      <point x="31" y="735" type="line"/>
      <point x="31" y="668" type="line"/>
      <point x="40" y="666" type="line" smooth="yes"/>
      <point x="70" y="660"/>
      <point x="82" y="655"/>
      <point x="82" y="634" type="curve" smooth="yes"/>
      <point x="82" y="93" type="line" smooth="yes"/>
      <point x="82" y="70"/>
      <point x="59" y="64"/>
      <point x="32" y="64" type="curve" smooth="yes"/>
      <point x="31" y="64" type="line"/>
      <point x="31" y="0" type="line"/>
      <point x="364" y="0" type="line"/>
      <point x="364" y="64" type="line"/>
      <point x="360" y="64" type="line" smooth="yes"/>
      <point x="344" y="64"/>
      <point x="317" y="66"/>
      <point x="317" y="72" type="curve"/>
    </contour>
    <contour>
      <point x="771" y="0" type="line"/>
      <point x="771" y="64" type="line"/>
      <point x="768" y="64" type="line" smooth="yes"/>
      <point x="741" y="64"/>
      <point x="721" y="70"/>
      <point x="721" y="93" type="curve" smooth="yes"/>
      <point x="721" y="336" type="line" smooth="yes"/>
      <point x="721" y="464"/>
      <point x="640" y="522"/>
      <point x="517" y="522" type="curve" smooth="yes"/>
      <point x="412" y="522"/>
      <point x="331" y="472"/>
      <point x="291" y="398" type="curve"/>
      <point x="291" y="301" type="line"/>
      <point x="329" y="379"/>
      <point x="374" y="421"/>
      <point x="425" y="421" type="curve" smooth="yes"/>
      <point x="469" y="421"/>
      <point x="486" y="394"/>
      <point x="486" y="342" type="curve" smooth="yes"/>
      <point x="486" y="72" type="line" smooth="yes"/>
      <point x="486" y="66"/>
      <point x="459" y="64"/>
      <point x="441" y="64" type="curve" smooth="yes"/>
      <point x="439" y="64" type="line"/>
      <point x="439" y="0" type="line"/>
    </contour>
    <contour>
      <point x="398" y="740" type="move" name="top"/>
    </contour>
    <contour>
      <point x="386" y="0" type="move" name="bottom"/>
    </contour>
  </outline>
</glyph>
<glyph name="i" format="1">
  <advance width="390"/>
  <unicode hex="0069"/>
  <outline>
    <contour>
      <point x="194" y="581" type="curve" smooth="yes"/>
      <point x="274" y="581"/>
      <point x="321" y="612"/>
      <point x="321" y="667" type="curve" smooth="yes"/>
      <point x="321" y="721"/>
      <point x="274" y="751"/>
      <point x="194" y="751" type="curve" smooth="yes"/>
      <point x="115" y="751"/>
      <point x="67" y="721"/>
      <point x="67" y="667" type="curve" smooth="yes"/>
      <point x="67" y="612"/>
      <point x="115" y="581"/>
    </contour>
    <contour>
      <point x="317" y="512" type="line"/>
      <point x="31" y="512" type="line"/>
      <point x="31" y="445" type="line"/>
      <point x="40" y="443" type="line" smooth="yes"/>
      <point x="70" y="437"/>
      <point x="82" y="431"/>
      <point x="82" y="411" type="curve" smooth="yes"/>
      <point x="82" y="93" type="line" smooth="yes"/>
      <point x="82" y="70"/>
      <point x="59" y="64"/>
      <point x="32" y="64" type="curve" smooth="yes"/>
      <point x="31" y="64" type="line"/>
      <point x="31" y="0" type="line"/>
      <point x="367" y="0" type="line"/>
      <point x="367" y="64" type="line"/>
      <point x="366" y="64" type="line" smooth="yes"/>
      <point x="338" y="64"/>
      <point x="317" y="70"/>
      <point x="317" y="93" type="curve" smooth="yes"/>
    </contour>
    <contour>
      <point x="197" y="551" type="move" name="top"/>
    </contour>
    <contour>
      <point x="251" y="-10" type="move" name="right"/>
    </contour>
    <contour>
      <point x="195" y="-10" type="move" name="bottom"/>
    </contour>
  </outline>
</glyph>
<glyph name="j" format="1">
  <advance width="370"/>
  <unicode hex="006A"/>
  <outline>
    <contour>
      <point x="77" y="-47" type="line" smooth="yes"/>
      <point x="77" y="-127"/>
      <point x="46" y="-153"/>
      <point x="-11" y="-153" type="curve" smooth="yes"/>
      <point x="-41" y="-153"/>
      <point x="-65" y="-147"/>
      <point x="-86" y="-141" type="curve"/>
      <point x="-86" y="-225" type="line"/>
      <point x="-62" y="-233"/>
      <point x="-24" y="-236"/>
      <point x="29" y="-236" type="curve" smooth="yes"/>
      <point x="215" y="-236"/>
      <point x="312" y="-181"/>
      <point x="312" y="-27" type="curve" smooth="yes"/>
      <point x="312" y="512" type="line"/>
      <point x="14" y="512" type="line"/>
      <point x="14" y="445" type="line"/>
      <point x="25" y="443" type="line" smooth="yes"/>
      <point x="56" y="438"/>
      <point x="77" y="431"/>
      <point x="77" y="411" type="curve" smooth="yes"/>
    </contour>
    <contour>
      <point x="187" y="581" type="curve" smooth="yes"/>
      <point x="267" y="581"/>
      <point x="314" y="612"/>
      <point x="314" y="667" type="curve" smooth="yes"/>
      <point x="314" y="721"/>
      <point x="267" y="751"/>
      <point x="187" y="751" type="curve" smooth="yes"/>
      <point x="109" y="751"/>
      <point x="60" y="721"/>
      <point x="60" y="667" type="curve" smooth="yes"/>
      <point x="60" y="612"/>
      <point x="109" y="581"/>
    </contour>
    <contour>
      <point x="185" y="551" type="move" name="top"/>
    </contour>
  </outline>
</glyph>
<glyph name="k" format="1">
  <advance width="820"/>
  <unicode hex="006B"/>
  <outline>
    <contour>
      <point x="801" y="0" type="line"/>
      <point x="801" y="64" type="line"/>
      <point x="798" y="64" type="line"/>
      <point x="768" y="64"/>
      <point x="743" y="73"/>
      <point x="721" y="103" type="curve" smooth="yes"/>
      <point x="536" y="363" type="line"/>
      <point x="460" y="268" type="line"/>
      <point x="639" y="404" type="line" smooth="yes"/>
      <point x="672" y="430"/>
      <point x="706" y="448"/>
      <point x="753" y="448" type="curve"/>
      <point x="755" y="448" type="line"/>
      <point x="755" y="512" type="line"/>
      <point x="451" y="512" type="line"/>
      <point x="451" y="448" type="line"/>
      <point x="458" y="448" type="line"/>
      <point x="488" y="448"/>
      <point x="541" y="445"/>
      <point x="541" y="430" type="curve"/>
      <point x="343" y="278" type="line"/>
      <point x="343" y="256" type="line"/>
      <point x="478" y="72" type="line"/>
      <point x="478" y="66"/>
      <point x="450" y="64"/>
      <point x="432" y="64" type="curve"/>
      <point x="428" y="64" type="line"/>
      <point x="428" y="0" type="line"/>
    </contour>
    <contour>
      <point x="317" y="735" type="line"/>
      <point x="30" y="735" type="line"/>
      <point x="30" y="668" type="line"/>
      <point x="39" y="666" type="line" smooth="yes"/>
      <point x="70" y="660"/>
      <point x="82" y="655"/>
      <point x="82" y="634" type="curve" smooth="yes"/>
      <point x="82" y="93" type="line" smooth="yes"/>
      <point x="82" y="70"/>
      <point x="60" y="64"/>
      <point x="32" y="64" type="curve" smooth="yes"/>
      <point x="31" y="64" type="line"/>
      <point x="31" y="0" type="line"/>
      <point x="366" y="0" type="line"/>
      <point x="366" y="64" type="line"/>
      <point x="362" y="64" type="line" smooth="yes"/>
      <point x="345" y="64"/>
      <point x="317" y="66"/>
      <point x="317" y="72" type="curve" smooth="yes"/>
    </contour>
    <contour>
      <point x="377" y="0" type="move" name="bottom"/>
    </contour>
  </outline>
</glyph>
<glyph name="l" format="1">
  <advance width="387"/>
  <unicode hex="006C"/>
  <outline>
    <contour>
      <point x="316" y="735" type="line"/>
      <point x="28" y="735" type="line"/>
      <point x="28" y="668" type="line"/>
      <point x="38" y="666" type="line" smooth="yes"/>
      <point x="69" y="660"/>
      <point x="81" y="655"/>
      <point x="81" y="634" type="curve" smooth="yes"/>
      <point x="81" y="93" type="line" smooth="yes"/>
      <point x="81" y="70"/>
      <point x="58" y="64"/>
      <point x="31" y="64" type="curve" smooth="yes"/>
      <point x="29" y="64" type="line"/>
      <point x="29" y="0" type="line"/>
      <point x="366" y="0" type="line"/>
      <point x="366" y="64" type="line"/>
      <point x="364" y="64" type="line" smooth="yes"/>
      <point x="336" y="64"/>
      <point x="316" y="70"/>
      <point x="316" y="93" type="curve" smooth="yes"/>
    </contour>
    <contour>
      <point x="189" y="743" type="move" name="top"/>
    </contour>
    <contour>
      <point x="315" y="732" type="move" name="right"/>
    </contour>
    <contour>
      <point x="382" y="391" type="move" name="mid"/>
    </contour>
    <contour>
      <point x="193" y="0" type="move" name="bottom"/>
    </contour>
  </outline>
</glyph>
<glyph name="m" format="1">
  <advance width="1148"/>
  <unicode hex="006D"/>
  <outline>
    <contour>
      <point x="31" y="0" type="line"/>
      <point x="354" y="0" type="line"/>
      <point x="354" y="64" type="line"/>
      <point x="351" y="64" type="line" smooth="yes"/>
      <point x="337" y="64"/>
      <point x="317" y="66"/>
      <point x="317" y="72" type="curve" smooth="yes"/>
      <point x="317" y="401" type="line"/>
      <point x="302" y="397" type="line"/>
      <point x="302" y="512" type="line"/>
      <point x="31" y="512" type="line"/>
      <point x="31" y="445" type="line"/>
      <point x="40" y="443" type="line" smooth="yes"/>
      <point x="70" y="437"/>
      <point x="82" y="431"/>
      <point x="82" y="411" type="curve" smooth="yes"/>
      <point x="82" y="93" type="line" smooth="yes"/>
      <point x="82" y="70"/>
      <point x="59" y="64"/>
      <point x="32" y="64" type="curve" smooth="yes"/>
      <point x="31" y="64" type="line"/>
    </contour>
    <contour>
      <point x="733" y="0" type="line"/>
      <point x="733" y="64" type="line"/>
      <point x="732" y="64" type="line" smooth="yes"/>
      <point x="717" y="64"/>
      <point x="695" y="66"/>
      <point x="695" y="72" type="curve" smooth="yes"/>
      <point x="695" y="338" type="line" smooth="yes"/>
      <point x="695" y="464"/>
      <point x="619" y="522"/>
      <point x="504" y="522" type="curve" smooth="yes"/>
      <point x="409" y="522"/>
      <point x="336" y="476"/>
      <point x="291" y="401" type="curve"/>
      <point x="291" y="305" type="line"/>
      <point x="330" y="389"/>
      <point x="370" y="421"/>
      <point x="410" y="421" type="curve" smooth="yes"/>
      <point x="448" y="421"/>
      <point x="460" y="397"/>
      <point x="460" y="346" type="curve" smooth="yes"/>
      <point x="460" y="72" type="line" smooth="yes"/>
      <point x="460" y="66"/>
      <point x="440" y="64"/>
      <point x="424" y="64" type="curve" smooth="yes"/>
      <point x="423" y="64" type="line"/>
      <point x="423" y="0" type="line"/>
    </contour>
    <contour>
      <point x="1125" y="0" type="line"/>
      <point x="1125" y="64" type="line"/>
      <point x="1123" y="64" type="line" smooth="yes"/>
      <point x="1096" y="64"/>
      <point x="1074" y="70"/>
      <point x="1074" y="93" type="curve" smooth="yes"/>
      <point x="1074" y="338" type="line" smooth="yes"/>
      <point x="1074" y="464"/>
      <point x="998" y="522"/>
      <point x="884" y="522" type="curve" smooth="yes"/>
      <point x="789" y="522"/>
      <point x="717" y="477"/>
      <point x="670" y="401" type="curve"/>
      <point x="670" y="307" type="line"/>
      <point x="708" y="384"/>
      <point x="747" y="421"/>
      <point x="789" y="421" type="curve" smooth="yes"/>
      <point x="827" y="421"/>
      <point x="839" y="397"/>
      <point x="839" y="346" type="curve" smooth="yes"/>
      <point x="839" y="72" type="line" smooth="yes"/>
      <point x="839" y="66"/>
      <point x="819" y="64"/>
      <point x="803" y="64" type="curve" smooth="yes"/>
      <point x="802" y="64" type="line"/>
      <point x="802" y="0" type="line"/>
    </contour>
  </outline>
</glyph>
<glyph name="n" format="1">
  <advance width="793"/>
  <unicode hex="006E"/>
  <outline>
    <contour>
      <point x="31" y="0" type="line"/>
      <point x="363" y="0" type="line"/>
      <point x="363" y="64" type="line"/>
      <point x="360" y="64" type="line" smooth="yes"/>
      <point x="343" y="64"/>
      <point x="317" y="66"/>
      <point x="317" y="72" type="curve" smooth="yes"/>
      <point x="317" y="401" type="line"/>
      <point x="302" y="401" type="line"/>
      <point x="302" y="512" type="line"/>
      <point x="31" y="512" type="line"/>
      <point x="31" y="445" type="line"/>
      <point x="40" y="443" type="line" smooth="yes"/>
      <point x="69" y="437"/>
      <point x="82" y="431"/>
      <point x="82" y="411" type="curve" smooth="yes"/>
      <point x="82" y="93" type="line" smooth="yes"/>
      <point x="82" y="70"/>
      <point x="59" y="64"/>
      <point x="32" y="64" type="curve" smooth="yes"/>
      <point x="31" y="64" type="line"/>
    </contour>
    <contour>
      <point x="771" y="0" type="line"/>
      <point x="771" y="64" type="line"/>
      <point x="768" y="64" type="line" smooth="yes"/>
      <point x="741" y="64"/>
      <point x="721" y="70"/>
      <point x="721" y="93" type="curve" smooth="yes"/>
      <point x="721" y="336" type="line" smooth="yes"/>
      <point x="721" y="464"/>
      <point x="640" y="522"/>
      <point x="517" y="522" type="curve" smooth="yes"/>
      <point x="412" y="522"/>
      <point x="331" y="472"/>
      <point x="291" y="398" type="curve"/>
      <point x="291" y="301" type="line"/>
      <point x="329" y="379"/>
      <point x="374" y="421"/>
      <point x="425" y="421" type="curve" smooth="yes"/>
      <point x="469" y="421"/>
      <point x="486" y="394"/>
      <point x="486" y="342" type="curve" smooth="yes"/>
      <point x="486" y="72" type="line" smooth="yes"/>
      <point x="486" y="66"/>
      <point x="459" y="64"/>
      <point x="441" y="64" type="curve" smooth="yes"/>
      <point x="439" y="64" type="line"/>
      <point x="439" y="0" type="line"/>
    </contour>
    <contour>
      <point x="376" y="551" type="move" name="top"/>
    </contour>
    <contour>
      <point x="385" y="0" type="move" name="bottom"/>
    </contour>
  </outline>
</glyph>
<glyph name="o" format="1">
  <advance width="763"/>
  <unicode hex="006F"/>
  <outline>
    <contour>
      <point x="382" y="-10" type="curve" smooth="yes"/>
      <point x="596" y="-10"/>
      <point x="731" y="98"/>
      <point x="731" y="255" type="curve" smooth="yes"/>
      <point x="731" y="413"/>
      <point x="596" y="522"/>
      <point x="382" y="522" type="curve" smooth="yes"/>
      <point x="168" y="522"/>
      <point x="33" y="414"/>
      <point x="33" y="255" type="curve" smooth="yes"/>
      <point x="33" y="98"/>
      <point x="168" y="-10"/>
    </contour>
    <contour>
      <point x="382" y="69" type="curve" smooth="yes"/>
      <point x="312" y="69"/>
      <point x="274" y="132"/>
      <point x="274" y="257" type="curve" smooth="yes"/>
      <point x="274" y="382"/>
      <point x="312" y="443"/>
      <point x="382" y="443" type="curve" smooth="yes"/>
      <point x="452" y="443"/>
      <point x="490" y="382"/>
      <point x="490" y="257" type="curve" smooth="yes"/>
      <point x="490" y="132"/>
      <point x="452" y="69"/>
    </contour>
    <contour>
      <point x="382" y="551" type="move" name="top"/>
    </contour>
    <contour>
      <point x="505" y="0" type="move" name="right"/>
    </contour>
    <contour>
      <point x="382" y="0" type="move" name="bottom"/>
    </contour>
  </outline>
</glyph>
<glyph name="p" format="1">
  <advance width="797"/>
  <unicode hex="0070"/>
  <outline>
    <contour>
      <point x="29" y="-223" type="line"/>
      <point x="390" y="-223" type="line"/>
      <point x="390" y="-159" type="line"/>
      <point x="379" y="-159" type="line" smooth="yes"/>
      <point x="354" y="-159"/>
      <point x="315" y="-157"/>
      <point x="315" y="-151" type="curve" smooth="yes"/>
      <point x="315" y="374" type="line"/>
      <point x="301" y="376" type="line"/>
      <point x="301" y="512" type="line"/>
      <point x="29" y="512" type="line"/>
      <point x="29" y="445" type="line"/>
      <point x="38" y="443" type="line" smooth="yes"/>
      <point x="68" y="437"/>
      <point x="80" y="431"/>
      <point x="80" y="411" type="curve" smooth="yes"/>
      <point x="80" y="-130" type="line" smooth="yes"/>
      <point x="80" y="-153"/>
      <point x="58" y="-159"/>
      <point x="30" y="-159" type="curve"/>
      <point x="29" y="-159" type="line"/>
    </contour>
    <contour>
      <point x="485" y="-10" type="curve" smooth="yes"/>
      <point x="648" y="-10"/>
      <point x="762" y="102"/>
      <point x="762" y="261" type="curve" smooth="yes"/>
      <point x="762" y="420"/>
      <point x="662" y="522"/>
      <point x="509" y="522" type="curve" smooth="yes"/>
      <point x="404" y="522"/>
      <point x="330" y="477"/>
      <point x="272" y="383" type="curve"/>
      <point x="272" y="278" type="line"/>
      <point x="325" y="381"/>
      <point x="370" y="429"/>
      <point x="428" y="429" type="curve" smooth="yes"/>
      <point x="491" y="429"/>
      <point x="521" y="378"/>
      <point x="521" y="261" type="curve" smooth="yes"/>
      <point x="521" y="145"/>
      <point x="489" y="82"/>
      <point x="418" y="82" type="curve" smooth="yes"/>
      <point x="353" y="82"/>
      <point x="318" y="133"/>
      <point x="272" y="223" type="curve"/>
      <point x="272" y="94" type="line"/>
      <point x="316" y="28"/>
      <point x="383" y="-10"/>
    </contour>
  </outline>
</glyph>
<glyph name="q" format="1">
  <advance width="788"/>
  <unicode hex="0071"/>
  <outline>
    <contour>
      <point x="406" y="-223" type="line"/>
      <point x="768" y="-223" type="line"/>
      <point x="768" y="-159" type="line"/>
      <point x="767" y="-159" type="line"/>
      <point x="737" y="-159"/>
      <point x="717" y="-153"/>
      <point x="717" y="-130" type="curve" smooth="yes"/>
      <point x="717" y="512" type="line"/>
      <point x="576" y="512" type="line"/>
      <point x="502" y="401" type="line"/>
      <point x="482" y="397" type="line"/>
      <point x="482" y="-151" type="line" smooth="yes"/>
      <point x="482" y="-157"/>
      <point x="444" y="-159"/>
      <point x="417" y="-159" type="curve" smooth="yes"/>
      <point x="406" y="-159" type="line"/>
    </contour>
    <contour>
      <point x="301" y="-10" type="curve" smooth="yes"/>
      <point x="413" y="-10"/>
      <point x="479" y="45"/>
      <point x="528" y="136" type="curve"/>
      <point x="528" y="241" type="line"/>
      <point x="470" y="124"/>
      <point x="434" y="82"/>
      <point x="376" y="82" type="curve" smooth="yes"/>
      <point x="308" y="82"/>
      <point x="276" y="143"/>
      <point x="276" y="250" type="curve" smooth="yes"/>
      <point x="276" y="359"/>
      <point x="309" y="429"/>
      <point x="384" y="429" type="curve" smooth="yes"/>
      <point x="441" y="429"/>
      <point x="478" y="391"/>
      <point x="528" y="297" type="curve"/>
      <point x="528" y="399" type="line"/>
      <point x="488" y="478"/>
      <point x="420" y="522"/>
      <point x="313" y="522" type="curve" smooth="yes"/>
      <point x="149" y="522"/>
      <point x="35" y="410"/>
      <point x="35" y="250" type="curve" smooth="yes"/>
      <point x="35" y="94"/>
      <point x="137" y="-10"/>
    </contour>
  </outline>
</glyph>
<glyph name="r" format="1">
  <advance width="544"/>
  <unicode hex="0072"/>
  <outline>
    <contour>
      <point x="518" y="514" type="line"/>
      <point x="510" y="516"/>
      <point x="493" y="518"/>
      <point x="473" y="518" type="curve" smooth="yes"/>
      <point x="366" y="518"/>
      <point x="323" y="445"/>
      <point x="291" y="342" type="curve"/>
      <point x="291" y="281" type="line"/>
      <point x="325" y="344"/>
      <point x="375" y="364"/>
      <point x="447" y="364" type="curve" smooth="yes"/>
      <point x="472" y="364"/>
      <point x="498" y="361"/>
      <point x="518" y="356" type="curve"/>
    </contour>
    <contour>
      <point x="31" y="0" type="line"/>
      <point x="394" y="0" type="line"/>
      <point x="394" y="64" type="line"/>
      <point x="387" y="64" type="line" smooth="yes"/>
      <point x="360" y="64"/>
      <point x="317" y="66"/>
      <point x="317" y="82" type="curve" smooth="yes"/>
      <point x="317" y="362" type="line"/>
      <point x="302" y="349" type="line"/>
      <point x="302" y="512" type="line"/>
      <point x="31" y="512" type="line"/>
      <point x="31" y="445" type="line"/>
      <point x="40" y="443" type="line" smooth="yes"/>
      <point x="69" y="437"/>
      <point x="82" y="431"/>
      <point x="82" y="411" type="curve" smooth="yes"/>
      <point x="82" y="93" type="line" smooth="yes"/>
      <point x="82" y="70"/>
      <point x="59" y="64"/>
      <point x="32" y="64" type="curve" smooth="yes"/>
      <point x="31" y="64" type="line"/>
    </contour>
    <contour>
      <point x="260" y="545" type="move" name="top"/>
    </contour>
    <contour>
      <point x="197" y="0" type="move" name="bottom"/>
    </contour>
  </outline>
</glyph>
<glyph name="s" format="1">
  <advance width="618"/>
  <unicode hex="0073"/>
  <outline>
    <contour>
      <point x="391" y="115" type="curve" smooth="yes"/>
      <point x="391" y="81"/>
      <point x="354" y="65"/>
      <point x="291" y="65" type="curve" smooth="yes"/>
      <point x="233" y="65"/>
      <point x="179" y="73"/>
      <point x="148" y="104" type="curve"/>
      <point x="107" y="102"/>
      <point x="113" y="67"/>
      <point x="183" y="42" type="curve"/>
      <point x="183" y="154" type="line"/>
      <point x="25" y="154" type="line"/>
      <point x="25" y="43" type="line"/>
      <point x="64" y="20"/>
      <point x="159" y="-10"/>
      <point x="289" y="-10" type="curve" smooth="yes"/>
      <point x="489" y="-10"/>
      <point x="596" y="56"/>
      <point x="596" y="168" type="curve" smooth="yes"/>
      <point x="596" y="261"/>
      <point x="515" y="297"/>
      <point x="388" y="328" type="curve" smooth="yes"/>
      <point x="281" y="353"/>
      <point x="229" y="362"/>
      <point x="229" y="401" type="curve" smooth="yes"/>
      <point x="229" y="431"/>
      <point x="260" y="447"/>
      <point x="322" y="447" type="curve" smooth="yes"/>
      <point x="371" y="447"/>
      <point x="409" y="439"/>
      <point x="436" y="415" type="curve"/>
      <point x="452" y="435"/>
      <point x="467" y="461"/>
      <point x="401" y="457" type="curve"/>
      <point x="401" y="373" type="line"/>
      <point x="557" y="373" type="line"/>
      <point x="557" y="475" type="line"/>
      <point x="533" y="491"/>
      <point x="455" y="522"/>
      <point x="319" y="522" type="curve" smooth="yes"/>
      <point x="152" y="522"/>
      <point x="40" y="465"/>
      <point x="40" y="354" type="curve" smooth="yes"/>
      <point x="40" y="246"/>
      <point x="145" y="211"/>
      <point x="249" y="185" type="curve" smooth="yes"/>
      <point x="337" y="163"/>
      <point x="391" y="153"/>
    </contour>
    <contour>
      <point x="285" y="546" type="move" name="top"/>
    </contour>
    <contour>
      <point x="288" y="0" type="move" name="bottom"/>
    </contour>
  </outline>
</glyph>
<glyph name="t" format="1">
  <advance width="485"/>
  <unicode hex="0074"/>
  <outline>
    <contour>
      <point x="311" y="173" type="curve" smooth="yes"/>
      <point x="311" y="651" type="line"/>
      <point x="83" y="651" type="line"/>
      <point x="83" y="500" type="line"/>
      <point x="76" y="492" type="line"/>
      <point x="76" y="168" type="line" smooth="yes"/>
      <point x="76" y="34"/>
      <point x="178" y="-10"/>
      <point x="326" y="-10" type="curve" smooth="yes"/>
      <point x="393" y="-10"/>
      <point x="443" y="0"/>
      <point x="462" y="8" type="curve"/>
      <point x="462" y="87" type="line"/>
      <point x="449" y="84"/>
      <point x="421" y="76"/>
      <point x="391" y="76" type="curve" smooth="yes"/>
      <point x="338" y="76"/>
      <point x="311" y="99"/>
    </contour>
    <contour>
      <point x="83" y="549" type="line"/>
      <point x="83" y="514"/>
      <point x="51" y="507"/>
      <point x="4" y="507" type="curve" smooth="yes"/>
      <point x="0" y="507" type="line"/>
      <point x="0" y="438" type="line"/>
      <point x="123" y="438" type="line"/>
    </contour>
    <contour>
      <point x="218" y="438" type="line"/>
      <point x="458" y="438" type="line"/>
      <point x="458" y="512" type="line"/>
      <point x="218" y="512" type="line"/>
    </contour>
    <contour>
      <point x="181" y="675" type="move" name="top"/>
    </contour>
    <contour>
      <point x="341" y="681" type="move" name="right"/>
    </contour>
    <contour>
      <point x="285" y="0" type="move" name="bottom"/>
    </contour>
  </outline>
</glyph>
<glyph name="u" format="1">
  <advance width="778"/>
  <unicode hex="0075"/>
  <outline>
    <contour>
      <point x="308" y="512" type="line"/>
      <point x="21" y="512" type="line"/>
      <point x="21" y="445" type="line"/>
      <point x="31" y="443" type="line" smooth="yes"/>
      <point x="61" y="438"/>
      <point x="73" y="431"/>
      <point x="73" y="411" type="curve" smooth="yes"/>
      <point x="73" y="169" type="line" smooth="yes"/>
      <point x="73" y="49"/>
      <point x="152" y="-10"/>
      <point x="274" y="-10" type="curve" smooth="yes"/>
      <point x="371" y="-10"/>
      <point x="453" y="30"/>
      <point x="497" y="110" type="curve"/>
      <point x="497" y="210" type="line"/>
      <point x="456" y="125"/>
      <point x="415" y="91"/>
      <point x="368" y="91" type="curve" smooth="yes"/>
      <point x="322" y="91"/>
      <point x="308" y="115"/>
      <point x="308" y="170" type="curve" smooth="yes"/>
    </contour>
    <contour>
      <point x="706" y="512" type="line"/>
      <point x="402" y="512" type="line"/>
      <point x="402" y="445" type="line"/>
      <point x="415" y="443" type="line"/>
      <point x="452" y="436"/>
      <point x="471" y="431"/>
      <point x="471" y="407" type="curve" smooth="yes"/>
      <point x="471" y="111" type="line"/>
      <point x="486" y="115" type="line"/>
      <point x="486" y="0" type="line"/>
      <point x="757" y="0" type="line"/>
      <point x="757" y="66" type="line"/>
      <point x="751" y="68" type="line" smooth="yes"/>
      <point x="719" y="71"/>
      <point x="706" y="76"/>
      <point x="706" y="97" type="curve" smooth="yes"/>
    </contour>
    <contour>
      <point x="342" y="551" type="move" name="top"/>
    </contour>
    <contour>
      <point x="535" y="0" type="move" name="right"/>
    </contour>
    <contour>
      <point x="339" y="0" type="move" name="bottom"/>
    </contour>
  </outline>
</glyph>
<glyph name="v" format="1">
  <advance width="700"/>
  <unicode hex="0076"/>
  <outline>
    <contour>
      <point x="538" y="427" type="curve"/>
      <point x="413" y="99" type="line"/>
      <point x="437" y="74" type="line"/>
      <point x="298" y="439" type="line"/>
      <point x="298" y="446"/>
      <point x="335" y="448"/>
      <point x="369" y="448" type="curve" smooth="yes"/>
      <point x="371" y="448" type="line"/>
      <point x="371" y="512" type="line"/>
      <point x="11" y="512" type="line"/>
      <point x="11" y="448" type="line"/>
      <point x="12" y="448" type="line" smooth="yes"/>
      <point x="42" y="448"/>
      <point x="57" y="440"/>
      <point x="68" y="414" type="curve" smooth="yes"/>
      <point x="237" y="0" type="line"/>
      <point x="469" y="0" type="line"/>
      <point x="632" y="406" type="line" smooth="yes"/>
      <point x="645" y="438"/>
      <point x="664" y="448"/>
      <point x="688" y="448" type="curve" smooth="yes"/>
      <point x="690" y="448" type="line"/>
      <point x="690" y="512" type="line"/>
      <point x="470" y="512" type="line"/>
      <point x="470" y="448" type="line"/>
      <point x="472" y="448" type="line" smooth="yes"/>
      <point x="504" y="448"/>
      <point x="537" y="439"/>
    </contour>
  </outline>
</glyph>
<glyph name="w" format="1">
  <advance width="1016"/>
  <unicode hex="0077"/>
  <outline>
    <contour>
      <point x="523" y="361" type="line"/>
      <point x="419" y="0" type="line"/>
      <point x="193" y="0" type="line"/>
      <point x="68" y="416" type="line" smooth="yes"/>
      <point x="60" y="441"/>
      <point x="43" y="448"/>
      <point x="13" y="448" type="curve"/>
      <point x="11" y="448" type="line"/>
      <point x="11" y="512" type="line"/>
      <point x="364" y="512" type="line"/>
      <point x="364" y="448" type="line"/>
      <point x="363" y="448" type="line" smooth="yes"/>
      <point x="330" y="448"/>
      <point x="296" y="446"/>
      <point x="296" y="439" type="curve"/>
      <point x="385" y="98" type="line"/>
      <point x="347" y="56" type="line"/>
      <point x="480" y="512" type="line"/>
      <point x="672" y="512" type="line"/>
      <point x="789" y="99" type="line"/>
      <point x="749" y="59" type="line"/>
      <point x="851" y="427" type="line"/>
      <point x="851" y="440"/>
      <point x="821" y="448"/>
      <point x="790" y="448" type="curve" smooth="yes"/>
      <point x="789" y="448" type="line"/>
      <point x="789" y="512" type="line"/>
      <point x="1006" y="512" type="line"/>
      <point x="1006" y="448" type="line" smooth="yes"/>
      <point x="1004" y="448" type="line" smooth="yes"/>
      <point x="979" y="448"/>
      <point x="958" y="437"/>
      <point x="949" y="406" type="curve" smooth="yes"/>
      <point x="828" y="0" type="line"/>
      <point x="601" y="0" type="line"/>
      <point x="504" y="370" type="line"/>
    </contour>
    <contour>
      <point x="498" y="551" type="move" name="top"/>
    </contour>
  </outline>
</glyph>
<glyph name="x" format="1">
  <advance width="694"/>
  <unicode hex="0078"/>
  <outline>
    <contour>
      <point x="684" y="0" type="line"/>
      <point x="684" y="63" type="line"/>
      <point x="683" y="63" type="line"/>
      <point x="651" y="63"/>
      <point x="641" y="74"/>
      <point x="621" y="97" type="curve" smooth="yes"/>
      <point x="465" y="279" type="line"/>
      <point x="459" y="283" type="line"/>
      <point x="324" y="440" type="line"/>
      <point x="324" y="446"/>
      <point x="356" y="448"/>
      <point x="384" y="448" type="curve" smooth="yes"/>
      <point x="387" y="448" type="line"/>
      <point x="387" y="512" type="line"/>
      <point x="18" y="512" type="line"/>
      <point x="18" y="447" type="line"/>
      <point x="18" y="447" type="line"/>
      <point x="47" y="447"/>
      <point x="57" y="441"/>
      <point x="74" y="421" type="curve" smooth="yes"/>
      <point x="232" y="237" type="line"/>
      <point x="236" y="234" type="line"/>
      <point x="376" y="72" type="line"/>
      <point x="376" y="65"/>
      <point x="343" y="63"/>
      <point x="314" y="63" type="curve" smooth="yes"/>
      <point x="311" y="63" type="line"/>
      <point x="311" y="0" type="line"/>
    </contour>
    <contour>
      <point x="14" y="0" type="line"/>
      <point x="232" y="0" type="line"/>
      <point x="232" y="63" type="line"/>
      <point x="230" y="63" type="line" smooth="yes"/>
      <point x="203" y="63"/>
      <point x="174" y="71"/>
      <point x="174" y="83" type="curve"/>
      <point x="318" y="238" type="line"/>
      <point x="244" y="272" type="line"/>
      <point x="80" y="101" type="line" smooth="yes"/>
      <point x="56" y="77"/>
      <point x="37" y="63"/>
      <point x="15" y="63" type="curve"/>
      <point x="14" y="63" type="line"/>
    </contour>
    <contour>
      <point x="453" y="245" type="line"/>
      <point x="601" y="403" type="line" smooth="yes"/>
      <point x="629" y="434"/>
      <point x="644" y="448"/>
      <point x="672" y="448" type="curve" smooth="yes"/>
      <point x="673" y="448" type="line"/>
      <point x="673" y="512" type="line"/>
      <point x="462" y="512" type="line"/>
      <point x="462" y="448" type="line"/>
      <point x="465" y="448" type="line" smooth="yes"/>
      <point x="488" y="448"/>
      <point x="516" y="440"/>
      <point x="516" y="428" type="curve"/>
      <point x="381" y="282" type="line"/>
    </contour>
  </outline>
</glyph>
<glyph name="y" format="1">
  <advance width="709"/>
  <unicode hex="0079"/>
  <outline>
    <contour>
      <point x="319" y="-54" type="line"/>
      <point x="372" y="14" type="line"/>
      <point x="457" y="135" type="line"/>
      <point x="298" y="439" type="line"/>
      <point x="298" y="446"/>
      <point x="332" y="448"/>
      <point x="365" y="448" type="curve" smooth="yes"/>
      <point x="366" y="448" type="line"/>
      <point x="366" y="512" type="line"/>
      <point x="11" y="512" type="line"/>
      <point x="11" y="448" type="line"/>
      <point x="12" y="448" type="line"/>
      <point x="44" y="448"/>
      <point x="55" y="439"/>
      <point x="69" y="413" type="curve" smooth="yes"/>
    </contour>
    <contour>
      <point x="152" y="-233" type="curve" smooth="yes"/>
      <point x="271" y="-233"/>
      <point x="344" y="-162"/>
      <point x="403" y="-48" type="curve" smooth="yes"/>
      <point x="636" y="403" type="line" smooth="yes"/>
      <point x="653" y="436"/>
      <point x="669" y="448"/>
      <point x="696" y="448" type="curve"/>
      <point x="697" y="448" type="line"/>
      <point x="697" y="512" type="line"/>
      <point x="477" y="512" type="line"/>
      <point x="477" y="448" type="line"/>
      <point x="480" y="448" type="line" smooth="yes"/>
      <point x="513" y="448"/>
      <point x="546" y="439"/>
      <point x="546" y="426" type="curve"/>
      <point x="371" y="71" type="line"/>
      <point x="316" y="-14" type="line"/>
      <point x="283" y="-84"/>
      <point x="246" y="-104"/>
      <point x="170" y="-104" type="curve" smooth="yes"/>
      <point x="111" y="-104"/>
      <point x="63" y="-81"/>
      <point x="53" y="-79" type="curve"/>
      <point x="53" y="-213" type="line"/>
      <point x="70" y="-223"/>
      <point x="106" y="-233"/>
    </contour>
    <contour>
      <point x="351" y="551" type="move" name="top"/>
    </contour>
    <contour>
      <point x="361" y="-211" type="move" name="bottom"/>
    </contour>
  </outline>
</glyph>
<glyph name="z" format="1">
  <advance width="626"/>
  <unicode hex="007A"/>
  <outline>
    <contour>
      <point x="254" y="47" type="line"/>
      <point x="586" y="421" type="line"/>
      <point x="586" y="512" type="line"/>
      <point x="38" y="512" type="line"/>
      <point x="38" y="330" type="line"/>
      <point x="123" y="330" type="line"/>
      <point x="132" y="395" type="line" smooth="yes"/>
      <point x="136" y="431"/>
      <point x="166" y="438"/>
      <point x="246" y="438" type="curve" smooth="yes"/>
      <point x="440" y="438" type="line"/>
      <point x="367" y="466" type="line"/>
      <point x="31" y="94" type="line"/>
      <point x="31" y="0" type="line"/>
      <point x="605" y="0" type="line"/>
      <point x="605" y="200" type="line"/>
      <point x="520" y="200" type="line"/>
      <point x="509" y="120" type="line" smooth="yes"/>
      <point x="504" y="82"/>
      <point x="473" y="75"/>
      <point x="395" y="75" type="curve" smooth="yes"/>
      <point x="237" y="75" type="line"/>
    </contour>
    <contour>
      <point x="288" y="551" type="move" name="top"/>
    </contour>
    <contour>
      <point x="311" y="0" type="move" name="bottom"/>
    </contour>
  </outline>
</glyph>
<glyph name="braceleft" format="1">
  <advance width="427"/>
  <unicode hex="007B"/>
  <outline>
    <contour>
      <point x="326" y="223" type="curve" smooth="yes"/>
      <point x="326" y="264"/>
      <point x="308" y="291"/>
      <point x="170" y="305" type="curve"/>
      <point x="170" y="310" type="line"/>
      <point x="308" y="325"/>
      <point x="326" y="352"/>
      <point x="326" y="392" type="curve" smooth="yes"/>
      <point x="326" y="440"/>
      <point x="251" y="533"/>
      <point x="251" y="594" type="curve" smooth="yes"/>
      <point x="251" y="657"/>
      <point x="299" y="679"/>
      <point x="398" y="678" type="curve"/>
      <point x="377" y="749" type="line"/>
      <point x="202" y="758"/>
      <point x="63" y="726"/>
      <point x="63" y="605" type="curve" smooth="yes"/>
      <point x="63" y="519"/>
      <point x="139" y="445"/>
      <point x="199" y="357" type="curve"/>
      <point x="203" y="386" type="line"/>
      <point x="41" y="339" type="line"/>
      <point x="41" y="276" type="line"/>
      <point x="203" y="229" type="line"/>
      <point x="199" y="258" type="line"/>
      <point x="139" y="171"/>
      <point x="63" y="96"/>
      <point x="63" y="10" type="curve" smooth="yes"/>
      <point x="63" y="-112"/>
      <point x="202" y="-143"/>
      <point x="377" y="-134" type="curve"/>
      <point x="398" y="-64" type="line"/>
      <point x="299" y="-63"/>
      <point x="251" y="-41"/>
      <point x="251" y="20" type="curve" smooth="yes"/>
      <point x="251" y="82"/>
      <point x="326" y="176"/>
    </contour>
  </outline>
</glyph>
<glyph name="bar" format="1">
  <advance width="348"/>
  <unicode hex="007C"/>
  <outline>
    <contour>
      <point x="99" y="762" type="line"/>
      <point x="99" y="-154" type="line"/>
      <point x="250" y="-154" type="line"/>
      <point x="250" y="762" type="line"/>
    </contour>
  </outline>
</glyph>
<glyph name="asciitilde" format="1">
  <advance width="630"/>
  <unicode hex="007E"/>
  <outline>
    <contour>
      <point x="413" y="264" type="curve" smooth="yes"/>
      <point x="510" y="264"/>
      <point x="562" y="330"/>
      <point x="592" y="439" type="curve"/>
      <point x="493" y="464" type="line"/>
      <point x="478" y="430"/>
      <point x="463" y="399"/>
      <point x="416" y="399" type="curve" smooth="yes"/>
      <point x="352" y="399"/>
      <point x="314" y="458"/>
      <point x="214" y="458" type="curve" smooth="yes"/>
      <point x="110" y="458"/>
      <point x="62" y="394"/>
      <point x="37" y="284" type="curve"/>
      <point x="138" y="258" type="line"/>
      <point x="149" y="294"/>
      <point x="160" y="323"/>
      <point x="207" y="323" type="curve" smooth="yes"/>
      <point x="270" y="323"/>
      <point x="313" y="264"/>
    </contour>
  </outline>
</glyph>
<glyph name="cent" format="1">
  <advance width="664"/>
  <unicode hex="00A2"/>
  <outline>
    <contour>
      <point x="318" y="623" type="line"/>
      <point x="318" y="475" type="line"/>
      <point x="337" y="461" type="line"/>
      <point x="337" y="47" type="line"/>
      <point x="318" y="30" type="line"/>
      <point x="318" y="-126" type="line"/>
      <point x="430" y="-126" type="line"/>
      <point x="430" y="26" type="line"/>
      <point x="412" y="40" type="line"/>
      <point x="412" y="466" type="line"/>
      <point x="430" y="483" type="line"/>
      <point x="430" y="623" type="line"/>
    </contour>
    <contour>
      <point x="402" y="67" type="curve" smooth="yes"/>
      <point x="303" y="67"/>
      <point x="243" y="124"/>
      <point x="243" y="252" type="curve" smooth="yes"/>
      <point x="243" y="380"/>
      <point x="278" y="444"/>
      <point x="386" y="444" type="curve" smooth="yes"/>
      <point x="456" y="444"/>
      <point x="488" y="420"/>
      <point x="505" y="398" type="curve"/>
      <point x="546" y="396"/>
      <point x="560" y="436"/>
      <point x="475" y="453" type="curve"/>
      <point x="475" y="327" type="line"/>
      <point x="623" y="327" type="line"/>
      <point x="623" y="459" type="line"/>
      <point x="593" y="480"/>
      <point x="517" y="522"/>
      <point x="373" y="522" type="curve" smooth="yes"/>
      <point x="170" y="522"/>
      <point x="31" y="417"/>
      <point x="31" y="252" type="curve" smooth="yes"/>
      <point x="31" y="88"/>
      <point x="178" y="-12"/>
      <point x="370" y="-12" type="curve" smooth="yes"/>
      <point x="513" y="-12"/>
      <point x="586" y="47"/>
      <point x="636" y="128" type="curve"/>
      <point x="559" y="173" type="line"/>
      <point x="528" y="127"/>
      <point x="483" y="67"/>
    </contour>
  </outline>
</glyph>
<glyph name="sterling" format="1">
  <advance width="664"/>
  <unicode hex="00A3"/>
  <outline>
    <contour>
      <point x="31" y="388" type="line"/>
      <point x="31" y="299" type="line"/>
      <point x="517" y="299" type="line"/>
      <point x="517" y="388" type="line"/>
    </contour>
    <contour>
      <point x="28" y="-12" type="line"/>
      <point x="241" y="20"/>
      <point x="350" y="133"/>
      <point x="350" y="254" type="curve" smooth="yes"/>
      <point x="350" y="374"/>
      <point x="292" y="446"/>
      <point x="292" y="536" type="curve" smooth="yes"/>
      <point x="292" y="600"/>
      <point x="325" y="635"/>
      <point x="380" y="635" type="curve" smooth="yes"/>
      <point x="419" y="635"/>
      <point x="444" y="620"/>
      <point x="464" y="596" type="curve"/>
      <point x="489" y="607"/>
      <point x="479" y="635"/>
      <point x="434" y="635" type="curve"/>
      <point x="434" y="528" type="line"/>
      <point x="605" y="528" type="line"/>
      <point x="605" y="662" type="line"/>
      <point x="575" y="683"/>
      <point x="504" y="719"/>
      <point x="367" y="719" type="curve" smooth="yes"/>
      <point x="175" y="719"/>
      <point x="70" y="635"/>
      <point x="70" y="524" type="curve" smooth="yes"/>
      <point x="70" y="402"/>
      <point x="176" y="338"/>
      <point x="176" y="229" type="curve" smooth="yes"/>
      <point x="176" y="161"/>
      <point x="127" y="118"/>
      <point x="28" y="92" type="curve"/>
    </contour>
    <contour>
      <point x="449" y="-10" type="curve" smooth="yes"/>
      <point x="564" y="-10"/>
      <point x="625" y="88"/>
      <point x="656" y="192" type="curve"/>
      <point x="553" y="220" type="line"/>
      <point x="529" y="153"/>
      <point x="504" y="125"/>
      <point x="448" y="125" type="curve" smooth="yes"/>
      <point x="384" y="125"/>
      <point x="340" y="152"/>
      <point x="268" y="211" type="curve"/>
      <point x="232" y="201"/>
      <point x="192" y="151"/>
      <point x="192" y="129" type="curve"/>
      <point x="304" y="40"/>
      <point x="359" y="-10"/>
    </contour>
  </outline>
</glyph>
<glyph name="currency" format="1">
  <advance width="664"/>
  <unicode hex="00A4"/>
  <outline>
    <contour>
      <point x="435" y="373" type="curve" smooth="yes"/>
      <point x="435" y="315"/>
      <point x="395" y="277"/>
      <point x="332" y="277" type="curve" smooth="yes"/>
      <point x="268" y="277"/>
      <point x="229" y="315"/>
      <point x="229" y="373" type="curve" smooth="yes"/>
      <point x="229" y="431"/>
      <point x="268" y="470"/>
      <point x="332" y="470" type="curve" smooth="yes"/>
      <point x="395" y="470"/>
      <point x="435" y="431"/>
    </contour>
    <contour>
      <point x="73" y="373" type="curve" smooth="yes"/>
      <point x="73" y="248"/>
      <point x="186" y="158"/>
      <point x="332" y="158" type="curve" smooth="yes"/>
      <point x="478" y="158"/>
      <point x="591" y="248"/>
      <point x="591" y="373" type="curve" smooth="yes"/>
      <point x="591" y="499"/>
      <point x="478" y="589"/>
      <point x="332" y="589" type="curve" smooth="yes"/>
      <point x="186" y="589"/>
      <point x="73" y="499"/>
    </contour>
    <contour>
      <point x="15" y="571" type="line"/>
      <point x="143" y="463" type="line"/>
      <point x="249" y="535" type="line"/>
      <point x="113" y="649" type="line"/>
    </contour>
    <contour>
      <point x="649" y="571" type="line"/>
      <point x="551" y="649" type="line"/>
      <point x="415" y="535" type="line"/>
      <point x="521" y="463" type="line"/>
    </contour>
    <contour>
      <point x="15" y="175" type="line"/>
      <point x="113" y="97" type="line"/>
      <point x="249" y="211" type="line"/>
      <point x="143" y="283" type="line"/>
    </contour>
    <contour>
      <point x="649" y="175" type="line"/>
      <point x="521" y="283" type="line"/>
      <point x="415" y="211" type="line"/>
      <point x="551" y="97" type="line"/>
    </contour>
  </outline>
</glyph>
<glyph name="yen" format="1">
  <advance width="664"/>
  <unicode hex="00A5"/>
  <outline>
    <contour>
      <point x="61" y="368" type="line"/>
      <point x="61" y="287" type="line"/>
      <point x="607" y="287" type="line"/>
      <point x="607" y="368" type="line"/>
    </contour>
    <contour>
      <point x="61" y="236" type="line"/>
      <point x="61" y="156" type="line"/>
      <point x="607" y="156" type="line"/>
      <point x="607" y="236" type="line"/>
    </contour>
    <contour>
      <point x="10" y="710" type="line"/>
      <point x="10" y="642" type="line"/>
      <point x="14" y="642" type="line" smooth="yes"/>
      <point x="36" y="642"/>
      <point x="51" y="639"/>
      <point x="64" y="616" type="curve" smooth="yes"/>
      <point x="235" y="327" type="line"/>
      <point x="436" y="325" type="line"/>
      <point x="590" y="601" type="line" smooth="yes"/>
      <point x="609" y="636"/>
      <point x="627" y="642"/>
      <point x="651" y="642" type="curve" smooth="yes"/>
      <point x="654" y="642" type="line"/>
      <point x="654" y="710" type="line"/>
      <point x="442" y="710" type="line"/>
      <point x="442" y="642" type="line"/>
      <point x="450" y="642" type="line" smooth="yes"/>
      <point x="475" y="642"/>
      <point x="501" y="635"/>
      <point x="501" y="624" type="curve"/>
      <point x="369" y="376" type="line"/>
      <point x="433" y="389" type="line"/>
      <point x="298" y="632" type="line"/>
      <point x="298" y="639"/>
      <point x="322" y="642"/>
      <point x="346" y="642" type="curve" smooth="yes"/>
      <point x="357" y="642" type="line"/>
      <point x="357" y="710" type="line"/>
    </contour>
    <contour>
      <point x="131" y="0" type="line"/>
      <point x="536" y="0" type="line"/>
      <point x="536" y="68" type="line"/>
      <point x="519" y="68" type="line" smooth="yes"/>
      <point x="482" y="68"/>
      <point x="455" y="75"/>
      <point x="455" y="104" type="curve" smooth="yes"/>
      <point x="455" y="372" type="line"/>
      <point x="213" y="372" type="line"/>
      <point x="213" y="104" type="line" smooth="yes"/>
      <point x="213" y="75"/>
      <point x="186" y="68"/>
      <point x="149" y="68" type="curve" smooth="yes"/>
      <point x="131" y="68" type="line"/>
    </contour>
  </outline>
</glyph>
<glyph name="brokenbar" format="1">
  <advance width="348"/>
  <unicode hex="00A6"/>
  <outline>
    <contour>
      <point x="99" y="762" type="line"/>
      <point x="99" y="368" type="line"/>
      <point x="250" y="368" type="line"/>
      <point x="250" y="762" type="line"/>
    </contour>
    <contour>
      <point x="99" y="241" type="line"/>
      <point x="99" y="-154" type="line"/>
      <point x="250" y="-154" type="line"/>
      <point x="250" y="241" type="line"/>
    </contour>
  </outline>
</glyph>
<glyph name="section" format="1">
  <advance width="780"/>
  <unicode hex="00A7"/>
  <outline>
    <contour>
      <point x="387" y="409" type="line"/>
      <point x="156" y="418"/>
      <point x="33" y="360"/>
      <point x="33" y="245" type="curve" smooth="yes"/>
      <point x="33" y="136"/>
      <point x="150" y="90"/>
      <point x="269" y="47" type="curve" smooth="yes"/>
      <point x="371" y="8"/>
      <point x="464" y="-14"/>
      <point x="464" y="-81" type="curve" smooth="yes"/>
      <point x="464" y="-127"/>
      <point x="429" y="-153"/>
      <point x="363" y="-153" type="curve" smooth="yes"/>
      <point x="291" y="-153"/>
      <point x="249" y="-126"/>
      <point x="210" y="-70" type="curve"/>
      <point x="200" y="-76"/>
      <point x="224" y="-130"/>
      <point x="264" y="-148" type="curve"/>
      <point x="264" y="-34" type="line"/>
      <point x="69" y="-34" type="line"/>
      <point x="69" y="-150" type="line"/>
      <point x="124" y="-201"/>
      <point x="230" y="-236"/>
      <point x="369" y="-236" type="curve" smooth="yes"/>
      <point x="540" y="-236"/>
      <point x="662" y="-164"/>
      <point x="662" y="-42" type="curve" smooth="yes"/>
      <point x="662" y="69"/>
      <point x="548" y="128"/>
      <point x="427" y="173" type="curve" smooth="yes"/>
      <point x="325" y="211"/>
      <point x="231" y="233"/>
      <point x="231" y="292" type="curve" smooth="yes"/>
      <point x="231" y="348"/>
      <point x="309" y="373"/>
      <point x="411" y="380" type="curve"/>
    </contour>
    <contour>
      <point x="454" y="76" type="line"/>
      <point x="647" y="96"/>
      <point x="744" y="151"/>
      <point x="744" y="260" type="curve" smooth="yes"/>
      <point x="744" y="367"/>
      <point x="627" y="411"/>
      <point x="502" y="456" type="curve" smooth="yes"/>
      <point x="407" y="493"/>
      <point x="316" y="512"/>
      <point x="316" y="573" type="curve" smooth="yes"/>
      <point x="316" y="611"/>
      <point x="350" y="638"/>
      <point x="412" y="638" type="curve" smooth="yes"/>
      <point x="470" y="638"/>
      <point x="507" y="613"/>
      <point x="531" y="575" type="curve"/>
      <point x="552" y="602"/>
      <point x="516" y="628"/>
      <point x="490" y="629" type="curve"/>
      <point x="490" y="540" type="line"/>
      <point x="672" y="540" type="line"/>
      <point x="672" y="641" type="line"/>
      <point x="637" y="682"/>
      <point x="540" y="720"/>
      <point x="415" y="720" type="curve" smooth="yes"/>
      <point x="237" y="720"/>
      <point x="118" y="653"/>
      <point x="118" y="543" type="curve" smooth="yes"/>
      <point x="118" y="429"/>
      <point x="230" y="372"/>
      <point x="344" y="330" type="curve" smooth="yes"/>
      <point x="450" y="291"/>
      <point x="547" y="265"/>
      <point x="547" y="209" type="curve" smooth="yes"/>
      <point x="547" y="163"/>
      <point x="500" y="139"/>
      <point x="439" y="123" type="curve"/>
    </contour>
  </outline>
</glyph>
<glyph name="dieresis" format="1">
  <advance width="593"/>
  <unicode hex="00A8"/>
  <outline>
    <contour>
      <point x="151" y="575" type="curve" smooth="yes"/>
      <point x="224" y="575"/>
      <point x="269" y="606"/>
      <point x="269" y="658" type="curve" smooth="yes"/>
      <point x="269" y="710"/>
      <point x="224" y="741"/>
      <point x="151" y="741" type="curve" smooth="yes"/>
      <point x="78" y="741"/>
      <point x="33" y="710"/>
      <point x="33" y="658" type="curve" smooth="yes"/>
      <point x="33" y="605"/>
      <point x="78" y="575"/>
    </contour>
    <contour>
      <point x="441" y="575" type="curve" smooth="yes"/>
      <point x="515" y="575"/>
      <point x="559" y="606"/>
      <point x="559" y="658" type="curve" smooth="yes"/>
      <point x="559" y="710"/>
      <point x="515" y="741"/>
      <point x="441" y="741" type="curve" smooth="yes"/>
      <point x="369" y="741"/>
      <point x="324" y="710"/>
      <point x="324" y="658" type="curve" smooth="yes"/>
      <point x="324" y="605"/>
      <point x="369" y="575"/>
    </contour>
    <contour>
      <point x="297" y="526" type="move" name="_top"/>
    </contour>
  </outline>
</glyph>
<glyph name="copyright" format="1">
  <advance width="1012"/>
  <unicode hex="00A9"/>
  <outline>
    <contour>
      <point x="531" y="498" type="curve" smooth="yes"/>
      <point x="586" y="498"/>
      <point x="623" y="462"/>
      <point x="638" y="409" type="curve"/>
      <point x="712" y="409" type="line"/>
      <point x="712" y="551" type="line"/>
      <point x="648" y="551" type="line"/>
      <point x="639" y="447" type="line"/>
      <point x="645" y="439"/>
      <point x="657" y="441"/>
      <point x="681" y="425" type="curve"/>
      <point x="663" y="519"/>
      <point x="597" y="562"/>
      <point x="501" y="562" type="curve" smooth="yes"/>
      <point x="367" y="562"/>
      <point x="261" y="476"/>
      <point x="261" y="354" type="curve" smooth="yes"/>
      <point x="261" y="231"/>
      <point x="366" y="148"/>
      <point x="513" y="148" type="curve" smooth="yes"/>
      <point x="623" y="148"/>
      <point x="703" y="210"/>
      <point x="723" y="290" type="curve"/>
      <point x="661" y="315" type="line"/>
      <point x="645" y="256"/>
      <point x="603" y="212"/>
      <point x="536" y="212" type="curve" smooth="yes"/>
      <point x="461" y="212"/>
      <point x="422" y="267"/>
      <point x="422" y="354" type="curve" smooth="yes"/>
      <point x="422" y="447"/>
      <point x="462" y="498"/>
    </contour>
    <contour>
      <point x="142" y="355" type="curve" smooth="yes"/>
      <point x="142" y="534"/>
      <point x="291" y="673"/>
      <point x="505" y="673" type="curve" smooth="yes"/>
      <point x="721" y="673"/>
      <point x="870" y="534"/>
      <point x="870" y="355" type="curve" smooth="yes"/>
      <point x="870" y="176"/>
      <point x="721" y="37"/>
      <point x="505" y="37" type="curve" smooth="yes"/>
      <point x="291" y="37"/>
      <point x="142" y="176"/>
    </contour>
    <contour>
      <point x="38" y="355" type="curve" smooth="yes"/>
      <point x="38" y="134"/>
      <point x="237" y="-35"/>
      <point x="505" y="-35" type="curve" smooth="yes"/>
      <point x="775" y="-35"/>
      <point x="973" y="134"/>
      <point x="973" y="355" type="curve" smooth="yes"/>
      <point x="973" y="576"/>
      <point x="775" y="745"/>
      <point x="505" y="745" type="curve" smooth="yes"/>
      <point x="237" y="745"/>
      <point x="38" y="576"/>
    </contour>
  </outline>
</glyph>
<glyph name="ordfeminine" format="1">
  <advance width="597"/>
  <unicode hex="00AA"/>
  <outline>
    <contour>
      <point x="353" y="558" type="line"/>
      <point x="136" y="538"/>
      <point x="32" y="504"/>
      <point x="32" y="419" type="curve" smooth="yes"/>
      <point x="32" y="349"/>
      <point x="93" y="311"/>
      <point x="198" y="311" type="curve" smooth="yes"/>
      <point x="289" y="311"/>
      <point x="337" y="348"/>
      <point x="370" y="414" type="curve"/>
      <point x="412" y="465"/>
      <point x="348" y="447"/>
      <point x="344" y="447" type="curve"/>
      <point x="332" y="410"/>
      <point x="308" y="380"/>
      <point x="274" y="380" type="curve" smooth="yes"/>
      <point x="243" y="380"/>
      <point x="226" y="396"/>
      <point x="226" y="426" type="curve" smooth="yes"/>
      <point x="226" y="467"/>
      <point x="261" y="500"/>
      <point x="353" y="509" type="curve"/>
    </contour>
    <contour>
      <point x="348" y="320" type="line"/>
      <point x="572" y="320" type="line"/>
      <point x="572" y="376" type="line"/>
      <point x="568" y="377" type="line"/>
      <point x="544" y="381"/>
      <point x="529" y="383"/>
      <point x="529" y="400" type="curve" smooth="yes"/>
      <point x="529" y="581" type="line" smooth="yes"/>
      <point x="529" y="678"/>
      <point x="425" y="720"/>
      <point x="296" y="720" type="curve" smooth="yes"/>
      <point x="174" y="720"/>
      <point x="94" y="689"/>
      <point x="64" y="653" type="curve"/>
      <point x="64" y="591" type="line"/>
      <point x="226" y="591" type="line"/>
      <point x="226" y="661" type="line"/>
      <point x="188" y="657"/>
      <point x="168" y="632"/>
      <point x="195" y="609" type="curve"/>
      <point x="209" y="634"/>
      <point x="240" y="652"/>
      <point x="277" y="652" type="curve" smooth="yes"/>
      <point x="316" y="652"/>
      <point x="338" y="635"/>
      <point x="338" y="592" type="curve" smooth="yes"/>
      <point x="338" y="394" type="line"/>
      <point x="348" y="402" type="line"/>
    </contour>
  </outline>
</glyph>
<glyph name="logicalnot" format="1">
  <advance width="664"/>
  <unicode hex="00AC"/>
  <outline>
    <contour>
      <point x="442" y="339" type="line"/>
      <point x="442" y="140" type="line"/>
      <point x="588" y="140" type="line"/>
      <point x="588" y="398" type="line"/>
      <point x="76" y="398" type="line"/>
      <point x="76" y="288" type="line"/>
      <point x="490" y="288" type="line"/>
    </contour>
  </outline>
</glyph>
<glyph name="registered" format="1">
  <advance width="1012"/>
  <unicode hex="00AE"/>
  <outline>
    <contour>
      <point x="142" y="355" type="curve" smooth="yes"/>
      <point x="142" y="534"/>
      <point x="291" y="673"/>
      <point x="505" y="673" type="curve" smooth="yes"/>
      <point x="721" y="673"/>
      <point x="870" y="534"/>
      <point x="870" y="355" type="curve" smooth="yes"/>
      <point x="870" y="176"/>
      <point x="721" y="37"/>
      <point x="505" y="37" type="curve" smooth="yes"/>
      <point x="291" y="37"/>
      <point x="142" y="176"/>
    </contour>
    <contour>
      <point x="38" y="355" type="curve" smooth="yes"/>
      <point x="38" y="134"/>
      <point x="237" y="-35"/>
      <point x="505" y="-35" type="curve" smooth="yes"/>
      <point x="775" y="-35"/>
      <point x="973" y="134"/>
      <point x="973" y="355" type="curve" smooth="yes"/>
      <point x="973" y="576"/>
      <point x="775" y="745"/>
      <point x="505" y="745" type="curve" smooth="yes"/>
      <point x="237" y="745"/>
      <point x="38" y="576"/>
    </contour>
    <contour>
      <point x="282" y="152" type="line"/>
      <point x="510" y="152" type="line"/>
      <point x="510" y="207" type="line"/>
      <point x="501" y="207" type="line" smooth="yes"/>
      <point x="487" y="207"/>
      <point x="473" y="209"/>
      <point x="473" y="213" type="curve" smooth="yes"/>
      <point x="473" y="309" type="line"/>
      <point x="518" y="309" type="line" smooth="yes"/>
      <point x="651" y="309"/>
      <point x="725" y="359"/>
      <point x="725" y="437" type="curve" smooth="yes"/>
      <point x="725" y="512"/>
      <point x="657" y="557"/>
      <point x="521" y="557" type="curve" smooth="yes"/>
      <point x="282" y="557" type="line"/>
      <point x="282" y="501" type="line"/>
      <point x="288" y="501" type="line" smooth="yes"/>
      <point x="310" y="501"/>
      <point x="329" y="497"/>
      <point x="329" y="481" type="curve" smooth="yes"/>
      <point x="329" y="227" type="line" smooth="yes"/>
      <point x="329" y="211"/>
      <point x="310" y="207"/>
      <point x="288" y="207" type="curve" smooth="yes"/>
      <point x="282" y="207" type="line"/>
    </contour>
    <contour>
      <point x="500" y="496" type="line" smooth="yes"/>
      <point x="550" y="496"/>
      <point x="579" y="477"/>
      <point x="579" y="431" type="curve" smooth="yes"/>
      <point x="579" y="382"/>
      <point x="550" y="357"/>
      <point x="497" y="357" type="curve" smooth="yes"/>
      <point x="473" y="357" type="line"/>
      <point x="473" y="496" type="line"/>
    </contour>
    <contour>
      <point x="493" y="335" type="line"/>
      <point x="580" y="152" type="line"/>
      <point x="743" y="152" type="line"/>
      <point x="743" y="207" type="line"/>
      <point x="734" y="207" type="line" smooth="yes"/>
      <point x="718" y="207"/>
      <point x="707" y="210"/>
      <point x="699" y="223" type="curve" smooth="yes"/>
      <point x="618" y="367" type="line"/>
    </contour>
  </outline>
</glyph>
<glyph name="degree" format="1">
  <advance width="588"/>
  <unicode hex="00B0"/>
  <outline>
    <contour>
      <point x="401" y="536" type="curve" smooth="yes"/>
      <point x="401" y="477"/>
      <point x="357" y="437"/>
      <point x="294" y="437" type="curve" smooth="yes"/>
      <point x="231" y="437"/>
      <point x="187" y="477"/>
      <point x="187" y="536" type="curve" smooth="yes"/>
      <point x="187" y="596"/>
      <point x="231" y="634"/>
      <point x="294" y="634" type="curve" smooth="yes"/>
      <point x="357" y="634"/>
      <point x="401" y="596"/>
    </contour>
    <contour>
      <point x="53" y="536" type="curve" smooth="yes"/>
      <point x="53" y="421"/>
      <point x="160" y="342"/>
      <point x="294" y="342" type="curve" smooth="yes"/>
      <point x="428" y="342"/>
      <point x="535" y="421"/>
      <point x="535" y="536" type="curve" smooth="yes"/>
      <point x="535" y="651"/>
      <point x="428" y="729"/>
      <point x="294" y="729" type="curve" smooth="yes"/>
      <point x="160" y="729"/>
      <point x="53" y="651"/>
    </contour>
  </outline>
</glyph>
<glyph name="acute" format="1">
  <advance width="593"/>
  <unicode hex="00B4"/>
  <outline>
    <contour>
      <point x="257" y="690" type="curve" smooth="yes"/>
      <point x="221" y="585" type="line"/>
      <point x="221" y="558" type="line"/>
      <point x="290" y="558" type="line"/>
      <point x="380" y="621" type="line" smooth="yes"/>
      <point x="432" y="648"/>
      <point x="457" y="679"/>
      <point x="457" y="713" type="curve" smooth="yes"/>
      <point x="457" y="747"/>
      <point x="423" y="774"/>
      <point x="370" y="774" type="curve" smooth="yes"/>
      <point x="310" y="774"/>
      <point x="276" y="743"/>
    </contour>
    <contour>
      <point x="257" y="527" type="move" name="_top"/>
    </contour>
  </outline>
</glyph>
<glyph name="paragraph" format="1">
  <advance width="764"/>
  <unicode hex="00B6"/>
  <outline>
    <contour>
      <point x="733" y="710" type="line"/>
      <point x="733" y="642" type="line"/>
      <point x="720" y="642" type="line" smooth="yes"/>
      <point x="683" y="642"/>
      <point x="655" y="635"/>
      <point x="655" y="606" type="curve" smooth="yes"/>
      <point x="655" y="0" type="line"/>
      <point x="520" y="0" type="line"/>
      <point x="520" y="710" type="line"/>
    </contour>
    <contour>
      <point x="442" y="0" type="line"/>
      <point x="306" y="0" type="line"/>
      <point x="306" y="308" type="line"/>
      <point x="301" y="308" type="line" smooth="yes"/>
      <point x="133" y="308"/>
      <point x="29" y="394"/>
      <point x="29" y="515" type="curve" smooth="yes"/>
      <point x="29" y="634"/>
      <point x="128" y="710"/>
      <point x="296" y="710" type="curve" smooth="yes"/>
      <point x="442" y="710" type="line"/>
    </contour>
    <contour>
      <point x="560" y="710" type="line"/>
      <point x="560" y="642" type="line"/>
      <point x="363" y="642" type="line"/>
      <point x="363" y="710" type="line"/>
    </contour>
  </outline>
</glyph>
<glyph name="cedilla" format="1">
  <advance width="711"/>
  <unicode hex="00B8"/>
  <outline>
    <contour>
      <point x="373" y="4" type="line"/>
      <point x="275" y="4" type="line"/>
      <point x="238" y="-99" type="line"/>
      <point x="264" y="-99" type="line" smooth="yes"/>
      <point x="321" y="-99"/>
      <point x="340" y="-113"/>
      <point x="340" y="-136" type="curve" smooth="yes"/>
      <point x="340" y="-158"/>
      <point x="324" y="-171"/>
      <point x="295" y="-171" type="curve" smooth="yes"/>
      <point x="262" y="-171"/>
      <point x="234" y="-155"/>
      <point x="205" y="-133" type="curve"/>
      <point x="153" y="-187" type="line"/>
      <point x="190" y="-219"/>
      <point x="241" y="-237"/>
      <point x="315" y="-237" type="curve" smooth="yes"/>
      <point x="408" y="-237"/>
      <point x="476" y="-207"/>
      <point x="476" y="-140" type="curve" smooth="yes"/>
      <point x="476" y="-82"/>
      <point x="415" y="-50"/>
      <point x="316" y="-55" type="curve"/>
      <point x="290" y="-77"/>
      <point x="324" y="-75"/>
      <point x="327" y="-66" type="curve"/>
    </contour>
    <contour>
      <point x="351" y="34" type="move" name="_bottom"/>
    </contour>
  </outline>
</glyph>
<glyph name="ordmasculine" format="1">
  <advance width="622"/>
  <unicode hex="00BA"/>
  <outline>
    <contour>
      <point x="311" y="310" type="curve" smooth="yes"/>
      <point x="481" y="310"/>
      <point x="588" y="393"/>
      <point x="588" y="516" type="curve" smooth="yes"/>
      <point x="588" y="638"/>
      <point x="481" y="720"/>
      <point x="311" y="720" type="curve" smooth="yes"/>
      <point x="140" y="720"/>
      <point x="34" y="638"/>
      <point x="34" y="516" type="curve" smooth="yes"/>
      <point x="34" y="393"/>
      <point x="140" y="310"/>
    </contour>
    <contour>
      <point x="311" y="380" type="curve" smooth="yes"/>
      <point x="259" y="380"/>
      <point x="231" y="425"/>
      <point x="231" y="516" type="curve" smooth="yes"/>
      <point x="231" y="603"/>
      <point x="259" y="650"/>
      <point x="311" y="650" type="curve" smooth="yes"/>
      <point x="363" y="650"/>
      <point x="392" y="603"/>
      <point x="392" y="516" type="curve" smooth="yes"/>
      <point x="392" y="425"/>
      <point x="363" y="380"/>
    </contour>
  </outline>
</glyph>
<glyph name="AE" format="1">
  <advance width="1149"/>
  <unicode hex="00C6"/>
  <outline>
    <contour>
      <point x="7" y="0" type="line"/>
      <point x="263" y="0" type="line"/>
      <point x="263" y="68" type="line"/>
      <point x="248" y="68" type="line" smooth="yes"/>
      <point x="216" y="68"/>
      <point x="184" y="75"/>
      <point x="184" y="86" type="curve"/>
      <point x="275" y="230" type="line"/>
      <point x="525" y="230" type="line"/>
      <point x="525" y="94" type="line" smooth="yes"/>
      <point x="525" y="73"/>
      <point x="493" y="68"/>
      <point x="459" y="68" type="curve" smooth="yes"/>
      <point x="448" y="68" type="line"/>
      <point x="448" y="0" type="line"/>
      <point x="1109" y="0" type="line"/>
      <point x="1109" y="228" type="line"/>
      <point x="1014" y="228" type="line"/>
      <point x="1002" y="122" type="line" smooth="yes"/>
      <point x="997" y="86"/>
      <point x="960" y="79"/>
      <point x="867" y="79" type="curve" smooth="yes"/>
      <point x="774" y="79" type="line"/>
      <point x="774" y="327" type="line"/>
      <point x="987" y="317" type="line"/>
      <point x="987" y="409" type="line"/>
      <point x="774" y="399" type="line"/>
      <point x="774" y="631" type="line"/>
      <point x="859" y="631" type="line" smooth="yes"/>
      <point x="930" y="631"/>
      <point x="973" y="624"/>
      <point x="975" y="588" type="curve" smooth="yes"/>
      <point x="983" y="507" type="line"/>
      <point x="1076" y="507" type="line"/>
      <point x="1076" y="710" type="line"/>
      <point x="284" y="710" type="line"/>
      <point x="284" y="642" type="line"/>
      <point x="304" y="642" type="line" smooth="yes"/>
      <point x="373" y="642"/>
      <point x="412" y="633"/>
      <point x="413" y="610" type="curve"/>
      <point x="83" y="111" type="line" smooth="yes"/>
      <point x="61" y="78"/>
      <point x="43" y="68"/>
      <point x="13" y="68" type="curve" smooth="yes"/>
      <point x="7" y="68" type="line"/>
    </contour>
    <contour>
      <point x="326" y="306" type="line"/>
      <point x="525" y="618" type="line"/>
      <point x="525" y="306" type="line"/>
    </contour>
    <contour>
      <point x="732" y="741" type="move" name="top"/>
    </contour>
  </outline>
</glyph>
<glyph name="Eth" format="1">
  <advance width="956"/>
  <unicode hex="00D0"/>
  <outline>
    <contour>
      <point x="34" y="396" type="line"/>
      <point x="512" y="396" type="line"/>
      <point x="512" y="314" type="line"/>
      <point x="34" y="314" type="line"/>
    </contour>
    <component base="D" xOffset="54"/>
  </outline>
</glyph>
<glyph name="multiply" format="1">
  <advance width="664"/>
  <unicode hex="00D7"/>
  <outline>
    <contour>
      <point x="166" y="551" type="line"/>
      <point x="75" y="478" type="line"/>
      <point x="490" y="129" type="line"/>
      <point x="581" y="203" type="line"/>
    </contour>
    <contour>
      <point x="489" y="551" type="line"/>
      <point x="74" y="203" type="line"/>
      <point x="166" y="129" type="line"/>
      <point x="581" y="478" type="line"/>
    </contour>
  </outline>
</glyph>
<glyph name="Oslash" format="1">
  <advance width="955"/>
  <unicode hex="00D8"/>
  <outline>
    <contour>
      <point x="814" y="725" type="line"/>
      <point x="-16" y="-15" type="line"/>
      <point x="115" y="-15" type="line"/>
      <point x="946" y="725" type="line"/>
    </contour>
    <contour>
      <point x="478" y="-10" type="curve" smooth="yes"/>
      <point x="733" y="-10"/>
      <point x="916" y="135"/>
      <point x="916" y="355" type="curve" smooth="yes"/>
      <point x="916" y="575"/>
      <point x="717" y="720"/>
      <point x="478" y="720" type="curve" smooth="yes"/>
      <point x="222" y="720"/>
      <point x="39" y="575"/>
      <point x="39" y="355" type="curve" smooth="yes"/>
      <point x="39" y="135"/>
      <point x="242" y="-10"/>
    </contour>
    <contour>
      <point x="473" y="74" type="curve" smooth="yes"/>
      <point x="350" y="74"/>
      <point x="286" y="160"/>
      <point x="286" y="355" type="curve" smooth="yes"/>
      <point x="286" y="535"/>
      <point x="362" y="636"/>
      <point x="482" y="636" type="curve" smooth="yes"/>
      <point x="605" y="636"/>
      <point x="669" y="550"/>
      <point x="669" y="355" type="curve" smooth="yes"/>
      <point x="669" y="175"/>
      <point x="593" y="74"/>
    </contour>
    <contour>
      <point x="468" y="731" type="move" name="top"/>
    </contour>
  </outline>
</glyph>
<glyph name="Thorn" format="1">
  <advance width="828"/>
  <unicode hex="00DE"/>
  <outline>
    <contour>
      <point x="450" y="710" type="line"/>
      <point x="34" y="710" type="line"/>
      <point x="34" y="642" type="line"/>
      <point x="46" y="642" type="line" smooth="yes"/>
      <point x="84" y="642"/>
      <point x="111" y="635"/>
      <point x="111" y="606" type="curve" smooth="yes"/>
      <point x="111" y="104" type="line" smooth="yes"/>
      <point x="111" y="75"/>
      <point x="84" y="68"/>
      <point x="46" y="68" type="curve" smooth="yes"/>
      <point x="34" y="68" type="line"/>
      <point x="34" y="0" type="line"/>
      <point x="450" y="0" type="line"/>
      <point x="450" y="68" type="line"/>
      <point x="420" y="68" type="line" smooth="yes"/>
      <point x="394" y="68"/>
      <point x="360" y="71"/>
      <point x="360" y="78" type="curve" smooth="yes"/>
      <point x="360" y="632" type="line" smooth="yes"/>
      <point x="360" y="639"/>
      <point x="394" y="642"/>
      <point x="420" y="642" type="curve" smooth="yes"/>
      <point x="450" y="642" type="line"/>
    </contour>
    <contour>
      <point x="257" y="150" type="line"/>
      <point x="474" y="150" type="line" smooth="yes"/>
      <point x="680" y="150"/>
      <point x="807" y="233"/>
      <point x="807" y="366" type="curve" smooth="yes"/>
      <point x="807" y="495"/>
      <point x="688" y="570"/>
      <point x="481" y="570" type="curve" smooth="yes"/>
      <point x="262" y="570" type="line"/>
      <point x="257" y="490" type="line"/>
      <point x="422" y="490" type="line" smooth="yes"/>
      <point x="506" y="490"/>
      <point x="558" y="449"/>
      <point x="558" y="363" type="curve" smooth="yes"/>
      <point x="558" y="277"/>
      <point x="506" y="230"/>
      <point x="417" y="230" type="curve" smooth="yes"/>
      <point x="257" y="230" type="line"/>
    </contour>
  </outline>
</glyph>
<glyph name="germandbls" format="1">
  <advance width="801"/>
  <unicode hex="00DF"/>
  <outline>
    <contour>
      <point x="13" y="512" type="line"/>
      <point x="13" y="438" type="line"/>
      <point x="173" y="438" type="line"/>
      <point x="173" y="512" type="line"/>
    </contour>
    <contour>
      <point x="27" y="0" type="line"/>
      <point x="342" y="0" type="line"/>
      <point x="342" y="560" type="line" smooth="yes"/>
      <point x="342" y="645"/>
      <point x="369" y="670"/>
      <point x="421" y="670" type="curve" smooth="yes"/>
      <point x="468" y="670"/>
      <point x="492" y="643"/>
      <point x="492" y="587" type="curve" smooth="yes"/>
      <point x="492" y="503"/>
      <point x="444" y="463"/>
      <point x="390" y="454" type="curve"/>
      <point x="390" y="385" type="line"/>
      <point x="395" y="385" type="line" smooth="yes"/>
      <point x="471" y="380"/>
      <point x="530" y="309"/>
      <point x="530" y="201" type="curve" smooth="yes"/>
      <point x="530" y="100"/>
      <point x="492" y="70"/>
      <point x="446" y="70" type="curve" smooth="yes"/>
      <point x="419" y="70"/>
      <point x="397" y="80"/>
      <point x="390" y="82" type="curve"/>
      <point x="390" y="10" type="line"/>
      <point x="414" y="1"/>
      <point x="464" y="-10"/>
      <point x="519" y="-10" type="curve" smooth="yes"/>
      <point x="673" y="-10"/>
      <point x="771" y="59"/>
      <point x="771" y="192" type="curve" smooth="yes"/>
      <point x="771" y="320"/>
      <point x="649" y="418"/>
      <point x="456" y="441" type="curve"/>
      <point x="427" y="422" type="line"/>
      <point x="577" y="423"/>
      <point x="707" y="484"/>
      <point x="707" y="589" type="curve" smooth="yes"/>
      <point x="707" y="688"/>
      <point x="601" y="749"/>
      <point x="417" y="749" type="curve" smooth="yes"/>
      <point x="204" y="749"/>
      <point x="107" y="679"/>
      <point x="107" y="544" type="curve" smooth="yes"/>
      <point x="107" y="96" type="line" smooth="yes"/>
      <point x="107" y="73"/>
      <point x="83" y="64"/>
      <point x="41" y="64" type="curve" smooth="yes"/>
      <point x="27" y="64" type="line"/>
    </contour>
  </outline>
</glyph>
<glyph name="ae" format="1">
  <advance width="1068"/>
  <unicode hex="00E6"/>
  <outline>
    <contour>
      <point x="436" y="301" type="line"/>
      <point x="167" y="281"/>
      <point x="31" y="237"/>
      <point x="31" y="127" type="curve" smooth="yes"/>
      <point x="31" y="37"/>
      <point x="112" y="-10"/>
      <point x="249" y="-10" type="curve" smooth="yes"/>
      <point x="394" y="-10"/>
      <point x="470" y="58"/>
      <point x="500" y="145" type="curve"/>
      <point x="542" y="190"/>
      <point x="442" y="188"/>
      <point x="445" y="172" type="curve"/>
      <point x="428" y="113"/>
      <point x="381" y="69"/>
      <point x="323" y="69" type="curve" smooth="yes"/>
      <point x="274" y="69"/>
      <point x="249" y="91"/>
      <point x="249" y="134" type="curve" smooth="yes"/>
      <point x="249" y="193"/>
      <point x="306" y="226"/>
      <point x="435" y="237" type="curve"/>
    </contour>
    <contour>
      <point x="753" y="-10" type="curve" smooth="yes"/>
      <point x="897" y="-10"/>
      <point x="979" y="43"/>
      <point x="1026" y="119" type="curve"/>
      <point x="946" y="165" type="line"/>
      <point x="917" y="122"/>
      <point x="872" y="73"/>
      <point x="792" y="73" type="curve" smooth="yes"/>
      <point x="686" y="73"/>
      <point x="644" y="137"/>
      <point x="644" y="254" type="curve" smooth="yes"/>
      <point x="644" y="385"/>
      <point x="681" y="442"/>
      <point x="740" y="442" type="curve" smooth="yes"/>
      <point x="797" y="442"/>
      <point x="821" y="400"/>
      <point x="824" y="267" type="curve"/>
      <point x="854" y="301" type="line"/>
      <point x="523" y="301" type="line"/>
      <point x="524" y="226" type="line"/>
      <point x="1039" y="226" type="line"/>
      <point x="1038" y="425"/>
      <point x="932" y="522"/>
      <point x="756" y="522" type="curve" smooth="yes"/>
      <point x="618" y="522"/>
      <point x="527" y="458"/>
      <point x="490" y="340" type="curve"/>
      <point x="464" y="316"/>
      <point x="432" y="288"/>
      <point x="407" y="271" type="curve" smooth="yes"/>
      <point x="407" y="91"/>
      <point x="541" y="-10"/>
    </contour>
    <contour>
      <point x="325" y="522" type="curve" smooth="yes"/>
      <point x="194" y="522"/>
      <point x="107" y="477"/>
      <point x="73" y="454" type="curve"/>
      <point x="73" y="346" type="line"/>
      <point x="253" y="346" type="line"/>
      <point x="253" y="451" type="line"/>
      <point x="204" y="444"/>
      <point x="185" y="415"/>
      <point x="218" y="389" type="curve"/>
      <point x="236" y="419"/>
      <point x="270" y="444"/>
      <point x="324" y="444" type="curve" smooth="yes"/>
      <point x="376" y="444"/>
      <point x="407" y="422"/>
      <point x="407" y="364" type="curve"/>
      <point x="407" y="265" type="line"/>
      <point x="564" y="330" type="line"/>
      <point x="564" y="462"/>
      <point x="492" y="522"/>
    </contour>
    <contour>
      <point x="545" y="555" type="move" name="top"/>
    </contour>
  </outline>
</glyph>
<glyph name="eth" format="1">
  <advance width="763"/>
  <unicode hex="00F0"/>
  <outline>
    <contour>
      <point x="521" y="413" type="curve"/>
      <point x="486" y="486"/>
      <point x="429" y="522"/>
      <point x="327" y="522" type="curve" smooth="yes"/>
      <point x="161" y="522"/>
      <point x="35" y="414"/>
      <point x="35" y="259" type="curve" smooth="yes"/>
      <point x="35" y="94"/>
      <point x="173" y="-10"/>
      <point x="382" y="-10" type="curve" smooth="yes"/>
      <point x="588" y="-10"/>
      <point x="728" y="110"/>
      <point x="728" y="295" type="curve" smooth="yes"/>
      <point x="728" y="477"/>
      <point x="612" y="653"/>
      <point x="234" y="744" type="curve"/>
      <point x="190" y="684" type="line"/>
      <point x="433" y="617"/>
      <point x="490" y="467"/>
      <point x="490" y="293" type="curve" smooth="yes"/>
      <point x="490" y="136"/>
      <point x="454" y="70"/>
      <point x="382" y="70" type="curve" smooth="yes"/>
      <point x="317" y="70"/>
      <point x="276" y="125"/>
      <point x="276" y="259" type="curve" smooth="yes"/>
      <point x="276" y="371"/>
      <point x="313" y="441"/>
      <point x="389" y="441" type="curve" smooth="yes"/>
      <point x="446" y="441"/>
      <point x="485" y="406"/>
      <point x="524" y="339" type="curve"/>
      <point x="555" y="369"/>
      <point x="560" y="398"/>
    </contour>
    <contour>
      <point x="151" y="584" type="line"/>
      <point x="180" y="531" type="line"/>
      <point x="588" y="683" type="line"/>
      <point x="560" y="737" type="line"/>
    </contour>
  </outline>
</glyph>
<glyph name="divide" format="1">
  <advance width="664"/>
  <unicode hex="00F7"/>
  <outline>
    <contour>
      <point x="444" y="143" type="curve" smooth="yes"/>
      <point x="444" y="191"/>
      <point x="402" y="225"/>
      <point x="332" y="225" type="curve" smooth="yes"/>
      <point x="262" y="225"/>
      <point x="219" y="191"/>
      <point x="219" y="143" type="curve" smooth="yes"/>
      <point x="219" y="94"/>
      <point x="262" y="60"/>
      <point x="332" y="60" type="curve" smooth="yes"/>
      <point x="402" y="60"/>
      <point x="444" y="94"/>
    </contour>
    <contour>
      <point x="444" y="539" type="curve" smooth="yes"/>
      <point x="444" y="587"/>
      <point x="402" y="622"/>
      <point x="332" y="622" type="curve" smooth="yes"/>
      <point x="262" y="622"/>
      <point x="219" y="587"/>
      <point x="219" y="539" type="curve" smooth="yes"/>
      <point x="219" y="491"/>
      <point x="262" y="457"/>
      <point x="332" y="457" type="curve" smooth="yes"/>
      <point x="402" y="457"/>
      <point x="444" y="491"/>
    </contour>
    <component base="minus" xOffset="42"/>
  </outline>
</glyph>
<glyph name="oslash" format="1">
  <advance width="770"/>
  <unicode hex="00F8"/>
  <outline>
    <contour>
      <point x="645" y="523" type="line"/>
      <point x="8" y="-13" type="line"/>
      <point x="123" y="-13" type="line"/>
      <point x="759" y="523" type="line"/>
    </contour>
    <contour>
      <point x="385" y="-10" type="curve"/>
      <point x="601" y="-10"/>
      <point x="736" y="98"/>
      <point x="736" y="255" type="curve" smooth="yes"/>
      <point x="736" y="414"/>
      <point x="601" y="522"/>
      <point x="385" y="522" type="curve" smooth="yes"/>
      <point x="169" y="522"/>
      <point x="35" y="414"/>
      <point x="35" y="255" type="curve" smooth="yes"/>
      <point x="35" y="98"/>
      <point x="169" y="-10"/>
    </contour>
    <contour>
      <point x="382" y="70" type="curve"/>
      <point x="300" y="70"/>
      <point x="264" y="129"/>
      <point x="264" y="255" type="curve" smooth="yes"/>
      <point x="264" y="379"/>
      <point x="306" y="441"/>
      <point x="388" y="441" type="curve" smooth="yes"/>
      <point x="471" y="441"/>
      <point x="507" y="383"/>
      <point x="507" y="255" type="curve" smooth="yes"/>
      <point x="507" y="133"/>
      <point x="465" y="70"/>
    </contour>
    <contour>
      <point x="362" y="551" type="move" name="top"/>
    </contour>
  </outline>
</glyph>
<glyph name="thorn" format="1">
  <advance width="802"/>
  <unicode hex="00FE"/>
  <outline>
    <contour>
      <point x="22" y="-223" type="line"/>
      <point x="396" y="-223" type="line"/>
      <point x="396" y="-159" type="line"/>
      <point x="385" y="-159" type="line" smooth="yes"/>
      <point x="358" y="-159"/>
      <point x="315" y="-157"/>
      <point x="315" y="-151" type="curve"/>
      <point x="315" y="735" type="line"/>
      <point x="22" y="735" type="line"/>
      <point x="22" y="668" type="line"/>
      <point x="31" y="666" type="line" smooth="yes"/>
      <point x="65" y="659"/>
      <point x="79" y="654"/>
      <point x="79" y="633" type="curve" smooth="yes"/>
      <point x="79" y="-130" type="line" smooth="yes"/>
      <point x="79" y="-153"/>
      <point x="54" y="-159"/>
      <point x="23" y="-159" type="curve"/>
      <point x="22" y="-159" type="line"/>
    </contour>
    <contour>
      <point x="522" y="261" type="curve" smooth="yes"/>
      <point x="522" y="152"/>
      <point x="490" y="82"/>
      <point x="417" y="82" type="curve" smooth="yes"/>
      <point x="352" y="82"/>
      <point x="319" y="130"/>
      <point x="286" y="205" type="curve"/>
      <point x="228" y="161" type="line"/>
      <point x="283" y="42"/>
      <point x="354" y="-10"/>
      <point x="486" y="-10" type="curve" smooth="yes"/>
      <point x="650" y="-10"/>
      <point x="764" y="102"/>
      <point x="764" y="261" type="curve" smooth="yes"/>
      <point x="764" y="418"/>
      <point x="659" y="522"/>
      <point x="495" y="522" type="curve" smooth="yes"/>
      <point x="375" y="522"/>
      <point x="318" y="463"/>
      <point x="247" y="345" type="curve"/>
      <point x="286" y="297" type="line"/>
      <point x="327" y="379"/>
      <point x="364" y="429"/>
      <point x="425" y="429" type="curve" smooth="yes"/>
      <point x="492" y="429"/>
      <point x="522" y="369"/>
    </contour>
  </outline>
</glyph>
<glyph name="Aogonek" format="1">
  <advance width="862"/>
  <unicode hex="0104"/>
  <outline>
    <contour>
      <point x="199" y="307" type="line"/>
      <point x="184" y="229" type="line"/>
      <point x="514" y="229" type="line"/>
      <point x="513" y="307" type="line"/>
    </contour>
    <contour>
      <point x="11" y="0" type="line"/>
      <point x="255" y="0" type="line"/>
      <point x="255" y="68" type="line"/>
      <point x="240" y="68" type="line" smooth="yes"/>
      <point x="207" y="68"/>
      <point x="172" y="75"/>
      <point x="172" y="86" type="curve"/>
      <point x="408" y="710" type="line"/>
      <point x="307" y="710" type="line"/>
      <point x="77" y="111" type="line" smooth="yes"/>
      <point x="64" y="76"/>
      <point x="48" y="68"/>
      <point x="17" y="68" type="curve"/>
      <point x="11" y="68" type="line"/>
    </contour>
    <contour>
      <point x="624" y="57" type="curve"/>
      <point x="452" y="-2"/>
      <point x="361" y="-57"/>
      <point x="361" y="-140" type="curve" smooth="yes"/>
      <point x="361" y="-206"/>
      <point x="425" y="-242"/>
      <point x="520" y="-242" type="curve" smooth="yes"/>
      <point x="608" y="-242"/>
      <point x="658" y="-216"/>
      <point x="697" y="-175" type="curve"/>
      <point x="646" y="-130" type="line"/>
      <point x="633" y="-141"/>
      <point x="613" y="-158"/>
      <point x="583" y="-158" type="curve" smooth="yes"/>
      <point x="554" y="-158"/>
      <point x="537" y="-145"/>
      <point x="537" y="-115" type="curve" smooth="yes"/>
      <point x="537" y="-79"/>
      <point x="562" y="-33"/>
      <point x="671" y="12" type="curve"/>
      <point x="654" y="24"/>
      <point x="635" y="38"/>
    </contour>
    <contour>
      <point x="566" y="0" type="line"/>
      <point x="851" y="0" type="line"/>
      <point x="851" y="68" type="line"/>
      <point x="846" y="68" type="line"/>
      <point x="815" y="68"/>
      <point x="795" y="72"/>
      <point x="786" y="96" type="curve" smooth="yes"/>
      <point x="550" y="710" type="line"/>
      <point x="346" y="710" type="line"/>
      <point x="324" y="650" type="line"/>
    </contour>
  </outline>
</glyph>
<glyph name="dcroat" format="1">
  <advance width="793"/>
  <unicode hex="0111"/>
  <outline>
    <contour>
      <point x="276" y="250" type="curve" smooth="yes"/>
      <point x="276" y="360"/>
      <point x="309" y="429"/>
      <point x="382" y="429" type="curve" smooth="yes"/>
      <point x="447" y="429"/>
      <point x="480" y="382"/>
      <point x="513" y="307" type="curve"/>
      <point x="562" y="326" type="line"/>
      <point x="519" y="457"/>
      <point x="448" y="522"/>
      <point x="313" y="522" type="curve" smooth="yes"/>
      <point x="150" y="522"/>
      <point x="35" y="410"/>
      <point x="35" y="250" type="curve" smooth="yes"/>
      <point x="35" y="94"/>
      <point x="141" y="-10"/>
      <point x="304" y="-10" type="curve" smooth="yes"/>
      <point x="428" y="-10"/>
      <point x="486" y="49"/>
      <point x="551" y="167" type="curve"/>
      <point x="512" y="214" type="line"/>
      <point x="472" y="132"/>
      <point x="436" y="82"/>
      <point x="374" y="82" type="curve" smooth="yes"/>
      <point x="308" y="82"/>
      <point x="276" y="143"/>
    </contour>
    <contour>
      <point x="485" y="735" type="line"/>
      <point x="485" y="110" type="line"/>
      <point x="496" y="118" type="line"/>
      <point x="496" y="0" type="line"/>
      <point x="777" y="0" type="line"/>
      <point x="777" y="66" type="line"/>
      <point x="771" y="68" type="line"/>
      <point x="737" y="71"/>
      <point x="719" y="76"/>
      <point x="719" y="97" type="curve" smooth="yes"/>
      <point x="719" y="735" type="line"/>
    </contour>
    <contour>
      <point x="792" y="648" type="line"/>
      <point x="295" y="648" type="line"/>
      <point x="295" y="569" type="line"/>
      <point x="792" y="569" type="line"/>
    </contour>
  </outline>
</glyph>
<glyph name="eogonek" format="1">
  <advance width="703"/>
  <unicode hex="0119"/>
  <outline>
    <contour>
      <point x="533" y="41" type="line"/>
      <point x="353" y="-11"/>
      <point x="259" y="-62"/>
      <point x="259" y="-140" type="curve" smooth="yes"/>
      <point x="259" y="-206"/>
      <point x="323" y="-242"/>
      <point x="418" y="-242" type="curve" smooth="yes"/>
      <point x="506" y="-242"/>
      <point x="555" y="-216"/>
      <point x="594" y="-175" type="curve"/>
      <point x="544" y="-130" type="line"/>
      <point x="531" y="-141"/>
      <point x="510" y="-158"/>
      <point x="480" y="-158" type="curve" smooth="yes"/>
      <point x="452" y="-158"/>
      <point x="434" y="-145"/>
      <point x="434" y="-115" type="curve" smooth="yes"/>
      <point x="434" y="-70"/>
      <point x="471" y="-34"/>
      <point x="570" y="31" type="curve" smooth="yes"/>
      <point x="611" y="58"/>
      <point x="636" y="83"/>
      <point x="660" y="119" type="curve"/>
      <point x="580" y="165" type="line"/>
      <point x="551" y="121"/>
      <point x="505" y="73"/>
      <point x="423" y="73" type="curve" smooth="yes"/>
      <point x="314" y="73"/>
      <point x="271" y="137"/>
      <point x="271" y="254" type="curve" smooth="yes"/>
      <point x="271" y="385"/>
      <point x="310" y="441"/>
      <point x="368" y="441" type="curve" smooth="yes"/>
      <point x="429" y="441"/>
      <point x="454" y="400"/>
      <point x="456" y="267" type="curve"/>
      <point x="481" y="298" type="line"/>
      <point x="152" y="298" type="line"/>
      <point x="152" y="224" type="line"/>
      <point x="673" y="224" type="line"/>
      <point x="672" y="423"/>
      <point x="565" y="522"/>
      <point x="363" y="522" type="curve" smooth="yes"/>
      <point x="174" y="522"/>
      <point x="35" y="414"/>
      <point x="35" y="254" type="curve" smooth="yes"/>
      <point x="35" y="91"/>
      <point x="170" y="-10"/>
      <point x="384" y="-10" type="curve" smooth="yes"/>
      <point x="444" y="-10"/>
      <point x="494" y="-2"/>
      <point x="534" y="14" type="curve"/>
    </contour>
  </outline>
</glyph>
<glyph name="Hbar" format="1">
  <advance width="971"/>
  <unicode hex="0126"/>
  <outline>
    <contour>
      <point x="34" y="548" type="line"/>
      <point x="34" y="477" type="line"/>
      <point x="941" y="477" type="line"/>
      <point x="941" y="548" type="line"/>
    </contour>
    <contour>
      <point x="211" y="390" type="line"/>
      <point x="211" y="317" type="line"/>
      <point x="722" y="317" type="line"/>
      <point x="722" y="390" type="line"/>
    </contour>
    <contour>
      <point x="34" y="0" type="line"/>
      <point x="437" y="0" type="line"/>
      <point x="437" y="68" type="line"/>
      <point x="427" y="68" type="line" smooth="yes"/>
      <point x="397" y="68"/>
      <point x="360" y="71"/>
      <point x="360" y="78" type="curve" smooth="yes"/>
      <point x="360" y="632" type="line" smooth="yes"/>
      <point x="360" y="639"/>
      <point x="397" y="642"/>
      <point x="427" y="642" type="curve" smooth="yes"/>
      <point x="437" y="642" type="line"/>
      <point x="437" y="710" type="line"/>
      <point x="34" y="710" type="line"/>
      <point x="34" y="642" type="line"/>
      <point x="46" y="642" type="line" smooth="yes"/>
      <point x="84" y="642"/>
      <point x="111" y="635"/>
      <point x="111" y="606" type="curve" smooth="yes"/>
      <point x="111" y="104" type="line" smooth="yes"/>
      <point x="111" y="75"/>
      <point x="84" y="68"/>
      <point x="46" y="68" type="curve" smooth="yes"/>
      <point x="34" y="68" type="line"/>
    </contour>
    <contour>
      <point x="538" y="0" type="line"/>
      <point x="941" y="0" type="line"/>
      <point x="941" y="68" type="line"/>
      <point x="929" y="68" type="line" smooth="yes"/>
      <point x="891" y="68"/>
      <point x="864" y="75"/>
      <point x="864" y="104" type="curve" smooth="yes"/>
      <point x="864" y="606" type="line" smooth="yes"/>
      <point x="864" y="635"/>
      <point x="891" y="642"/>
      <point x="929" y="642" type="curve" smooth="yes"/>
      <point x="941" y="642" type="line"/>
      <point x="941" y="710" type="line"/>
      <point x="538" y="710" type="line"/>
      <point x="538" y="642" type="line"/>
      <point x="548" y="642" type="line" smooth="yes"/>
      <point x="577" y="642"/>
      <point x="615" y="639"/>
      <point x="615" y="632" type="curve" smooth="yes"/>
      <point x="615" y="78" type="line" smooth="yes"/>
      <point x="615" y="71"/>
      <point x="577" y="68"/>
      <point x="548" y="68" type="curve" smooth="yes"/>
      <point x="538" y="68" type="line"/>
    </contour>
  </outline>
</glyph>
<glyph name="hbar" format="1">
  <advance width="794"/>
  <unicode hex="0127"/>
  <outline>
    <contour>
      <point x="781" y="0" type="line"/>
      <point x="781" y="64" type="line"/>
      <point x="778" y="64" type="line" smooth="yes"/>
      <point x="747" y="64"/>
      <point x="724" y="70"/>
      <point x="724" y="93" type="curve" smooth="yes"/>
      <point x="724" y="348" type="line" smooth="yes"/>
      <point x="724" y="463"/>
      <point x="643" y="522"/>
      <point x="520" y="522" type="curve" smooth="yes"/>
      <point x="412" y="522"/>
      <point x="336" y="471"/>
      <point x="288" y="387" type="curve"/>
      <point x="306" y="323" type="line"/>
      <point x="337" y="385"/>
      <point x="378" y="421"/>
      <point x="429" y="421" type="curve" smooth="yes"/>
      <point x="473" y="421"/>
      <point x="488" y="398"/>
      <point x="488" y="350" type="curve" smooth="yes"/>
      <point x="488" y="72" type="line" smooth="yes"/>
      <point x="488" y="66"/>
      <point x="459" y="64"/>
      <point x="439" y="64" type="curve" smooth="yes"/>
      <point x="437" y="64" type="line"/>
      <point x="437" y="0" type="line"/>
    </contour>
    <contour>
      <point x="84" y="735" type="line"/>
      <point x="84" y="93" type="line" smooth="yes"/>
      <point x="84" y="70"/>
      <point x="59" y="64"/>
      <point x="27" y="64" type="curve" smooth="yes"/>
      <point x="26" y="64" type="line"/>
      <point x="26" y="0" type="line"/>
      <point x="370" y="0" type="line"/>
      <point x="370" y="64" type="line"/>
      <point x="366" y="64" type="line" smooth="yes"/>
      <point x="348" y="64"/>
      <point x="319" y="66"/>
      <point x="319" y="72" type="curve"/>
      <point x="319" y="735" type="line"/>
    </contour>
    <contour>
      <point x="510" y="648" type="line"/>
      <point x="11" y="648" type="line"/>
      <point x="11" y="569" type="line"/>
      <point x="510" y="569" type="line"/>
    </contour>
  </outline>
</glyph>
<glyph name="dotlessi" format="1">
  <advance width="394"/>
  <unicode hex="0131"/>
  <outline>
    <contour>
      <point x="319" y="512" type="line"/>
      <point x="26" y="512" type="line"/>
      <point x="26" y="445" type="line"/>
      <point x="36" y="443" type="line" smooth="yes"/>
      <point x="70" y="436"/>
      <point x="84" y="431"/>
      <point x="84" y="410" type="curve" smooth="yes"/>
      <point x="84" y="93" type="line" smooth="yes"/>
      <point x="84" y="70"/>
      <point x="59" y="64"/>
      <point x="27" y="64" type="curve" smooth="yes"/>
      <point x="26" y="64" type="line"/>
      <point x="26" y="0" type="line"/>
      <point x="376" y="0" type="line"/>
      <point x="376" y="64" type="line"/>
      <point x="375" y="64" type="line" smooth="yes"/>
      <point x="343" y="64"/>
      <point x="319" y="70"/>
      <point x="319" y="93" type="curve" smooth="yes"/>
    </contour>
    <contour>
      <point x="201" y="542" type="move" name="top"/>
    </contour>
  </outline>
</glyph>
<glyph name="Ldot" format="1">
  <advance width="791"/>
  <unicode hex="013F"/>
  <outline>
    <contour>
      <point x="446" y="710" type="line"/>
      <point x="446" y="642" type="line"/>
      <point x="429" y="642" type="line" smooth="yes"/>
      <point x="389" y="642"/>
      <point x="360" y="635"/>
      <point x="360" y="606" type="curve" smooth="yes"/>
      <point x="360" y="79" type="line"/>
      <point x="465" y="79" type="line" smooth="yes"/>
      <point x="558" y="79"/>
      <point x="596" y="86"/>
      <point x="601" y="122" type="curve" smooth="yes"/>
      <point x="613" y="230" type="line"/>
      <point x="724" y="230" type="line"/>
      <point x="724" y="0" type="line"/>
      <point x="34" y="0" type="line"/>
      <point x="34" y="68" type="line"/>
      <point x="46" y="68" type="line" smooth="yes"/>
      <point x="84" y="68"/>
      <point x="111" y="75"/>
      <point x="111" y="104" type="curve" smooth="yes"/>
      <point x="111" y="606" type="line" smooth="yes"/>
      <point x="111" y="635"/>
      <point x="84" y="642"/>
      <point x="46" y="642" type="curve" smooth="yes"/>
      <point x="34" y="642" type="line"/>
      <point x="34" y="710" type="line"/>
    </contour>
    <component base="periodcentered" xOffset="437" yOffset="59"/>
  </outline>
</glyph>
<glyph name="Lslash" format="1">
  <advance width="759"/>
  <unicode hex="0141"/>
  <outline>
    <contour>
      <point x="21" y="180" type="line"/>
      <point x="21" y="270" type="line"/>
      <point x="560" y="530" type="line"/>
      <point x="560" y="440" type="line"/>
    </contour>
    <component base="L" xOffset="48"/>
  </outline>
</glyph>
<glyph name="lslash" format="1">
  <advance width="438"/>
  <unicode hex="0142"/>
  <outline>
    <contour>
      <point x="24" y="189" type="line"/>
      <point x="424" y="436" type="line"/>
      <point x="424" y="526" type="line"/>
      <point x="24" y="279" type="line"/>
    </contour>
    <component base="l" xOffset="54"/>
  </outline>
</glyph>
<glyph name="Eng" format="1">
  <advance width="903"/>
  <unicode hex="014A"/>
  <outline>
    <contour>
      <point x="686" y="74" type="line"/>
      <point x="686" y="-7" type="line" smooth="yes"/>
      <point x="686" y="-92"/>
      <point x="640" y="-123"/>
      <point x="576" y="-123" type="curve" smooth="yes"/>
      <point x="526" y="-123"/>
      <point x="483" y="-110"/>
      <point x="458" y="-104" type="curve"/>
      <point x="458" y="-196" type="line"/>
      <point x="491" y="-207"/>
      <point x="540" y="-212"/>
      <point x="584" y="-212" type="curve" smooth="yes"/>
      <point x="711" y="-212"/>
      <point x="794" y="-145"/>
      <point x="794" y="-6" type="curve" smooth="yes"/>
      <point x="794" y="604" type="line" smooth="yes"/>
      <point x="794" y="633"/>
      <point x="822" y="642"/>
      <point x="859" y="642" type="curve" smooth="yes"/>
      <point x="872" y="642" type="line"/>
      <point x="872" y="710" type="line"/>
      <point x="601" y="710" type="line"/>
      <point x="601" y="642" type="line"/>
      <point x="616" y="642" type="line" smooth="yes"/>
      <point x="652" y="642"/>
      <point x="690" y="634"/>
      <point x="690" y="627" type="curve" smooth="yes"/>
      <point x="690" y="133" type="line"/>
      <point x="747" y="238" type="line"/>
      <point x="428" y="710" type="line"/>
      <point x="34" y="710" type="line"/>
      <point x="34" y="642" type="line"/>
      <point x="46" y="642" type="line" smooth="yes"/>
      <point x="84" y="642"/>
      <point x="111" y="635"/>
      <point x="111" y="606" type="curve" smooth="yes"/>
      <point x="111" y="109" type="line" smooth="yes"/>
      <point x="111" y="80"/>
      <point x="84" y="68"/>
      <point x="46" y="68" type="curve" smooth="yes"/>
      <point x="34" y="68" type="line"/>
      <point x="34" y="0" type="line"/>
      <point x="305" y="0" type="line"/>
      <point x="305" y="68" type="line"/>
      <point x="290" y="68" type="line" smooth="yes"/>
      <point x="253" y="68"/>
      <point x="215" y="76"/>
      <point x="215" y="83" type="curve" smooth="yes"/>
      <point x="215" y="674" type="line"/>
      <point x="184" y="670" type="line"/>
      <point x="720" y="-107" type="line"/>
    </contour>
  </outline>
</glyph>
<glyph name="eng" format="1">
  <advance width="762"/>
  <unicode hex="014B"/>
  <outline>
    <contour>
      <point x="26" y="0" type="line"/>
      <point x="370" y="0" type="line"/>
      <point x="370" y="64" type="line"/>
      <point x="366" y="64" type="line" smooth="yes"/>
      <point x="348" y="64"/>
      <point x="319" y="66"/>
      <point x="319" y="72" type="curve" smooth="yes"/>
      <point x="319" y="401" type="line"/>
      <point x="304" y="403" type="line"/>
      <point x="304" y="512" type="line"/>
      <point x="26" y="512" type="line"/>
      <point x="26" y="445" type="line"/>
      <point x="35" y="443" type="line" smooth="yes"/>
      <point x="69" y="435"/>
      <point x="84" y="431"/>
      <point x="84" y="410" type="curve" smooth="yes"/>
      <point x="84" y="93" type="line" smooth="yes"/>
      <point x="84" y="70"/>
      <point x="59" y="64"/>
      <point x="27" y="64" type="curve" smooth="yes"/>
      <point x="26" y="64" type="line"/>
    </contour>
    <contour>
      <point x="724" y="348" type="line" smooth="yes"/>
      <point x="724" y="463"/>
      <point x="643" y="522"/>
      <point x="520" y="522" type="curve" smooth="yes"/>
      <point x="412" y="522"/>
      <point x="334" y="471"/>
      <point x="283" y="381" type="curve"/>
      <point x="306" y="323" type="line"/>
      <point x="337" y="385"/>
      <point x="377" y="421"/>
      <point x="427" y="421" type="curve" smooth="yes"/>
      <point x="472" y="421"/>
      <point x="488" y="398"/>
      <point x="488" y="347" type="curve"/>
      <point x="488" y="-33" type="line" smooth="yes"/>
      <point x="488" y="-124"/>
      <point x="456" y="-154"/>
      <point x="399" y="-154" type="curve" smooth="yes"/>
      <point x="363" y="-154"/>
      <point x="334" y="-146"/>
      <point x="310" y="-138" type="curve"/>
      <point x="310" y="-222" type="line"/>
      <point x="329" y="-229"/>
      <point x="381" y="-236"/>
      <point x="441" y="-236" type="curve" smooth="yes"/>
      <point x="624" y="-236"/>
      <point x="724" y="-179"/>
      <point x="724" y="-13" type="curve" smooth="yes"/>
    </contour>
  </outline>
</glyph>
<glyph name="OE" format="1">
  <advance width="1210"/>
  <unicode hex="0152"/>
  <outline>
    <contour>
      <point x="588" y="79" type="line"/>
      <point x="518" y="79" type="line" smooth="yes"/>
      <point x="388" y="79"/>
      <point x="299" y="177"/>
      <point x="299" y="353" type="curve" smooth="yes"/>
      <point x="299" y="529"/>
      <point x="388" y="631"/>
      <point x="518" y="631" type="curve" smooth="yes"/>
      <point x="588" y="631" type="line"/>
    </contour>
    <contour>
      <point x="1171" y="0" type="line"/>
      <point x="1171" y="228" type="line"/>
      <point x="1075" y="228" type="line"/>
      <point x="1063" y="122" type="line" smooth="yes"/>
      <point x="1058" y="86"/>
      <point x="1022" y="79"/>
      <point x="928" y="79" type="curve" smooth="yes"/>
      <point x="836" y="79" type="line"/>
      <point x="836" y="631" type="line"/>
      <point x="921" y="631" type="line" smooth="yes"/>
      <point x="991" y="631"/>
      <point x="1034" y="624"/>
      <point x="1037" y="588" type="curve" smooth="yes"/>
      <point x="1044" y="507" type="line"/>
      <point x="1138" y="507" type="line"/>
      <point x="1138" y="710" type="line"/>
      <point x="508" y="710" type="line" smooth="yes"/>
      <point x="232" y="710"/>
      <point x="39" y="575"/>
      <point x="39" y="353" type="curve" smooth="yes"/>
      <point x="39" y="130"/>
      <point x="232" y="0"/>
      <point x="508" y="0" type="curve" smooth="yes"/>
    </contour>
    <contour>
      <point x="805" y="398" type="line"/>
      <point x="805" y="329" type="line"/>
      <point x="1049" y="317" type="line"/>
      <point x="1049" y="410" type="line"/>
    </contour>
  </outline>
</glyph>
